<svg width="15" height="32" viewBox="0 0 15 32" fill="none" xmlns="http://www.w3.org/2000/svg">
<path fill-rule="evenodd" clip-rule="evenodd" d="M14.5236 30.3353C13.8826 29.9485 13.274 29.5485 12.6979 29.1352C14.5322 27.1345 12.0344 22.6748 11.4807 21.754C11.2823 21.3579 11.15 21.0939 10.7531 21.0939C10.4224 21.0279 10.2239 21.2919 9.82702 21.82C9.16553 22.8101 8.96708 24.0643 9.23168 25.5166C9.29055 25.7813 9.36662 26.0486 9.45725 26.3159C8.85 25.6657 8.30493 24.9905 7.82336 24.2914C9.55448 22.7567 9.49297 20.4272 9.43079 18.3874V17.3313C9.43079 17.1993 9.36464 17.0672 9.29849 17.0012C9.23234 16.9352 9.10004 16.8692 8.96774 16.8692C7.51246 16.9352 6.58638 17.6613 6.12333 19.0475C5.98178 19.4476 5.89181 19.8634 5.83294 20.2819C5.61399 19.6073 5.44134 18.9155 5.31565 18.2072C8.06481 17.3055 9.05969 14.8605 9.62923 12.7766C9.69538 12.5125 9.56308 12.3145 9.36464 12.2485C9.29849 12.1825 8.10781 11.6544 6.71868 12.1825C6.12069 12.463 5.59811 12.9304 5.14962 13.574C5.20651 12.9931 5.28787 12.4353 5.38577 11.9046C8.11574 11.7785 9.6418 10.9547 11.3484 8.68393C11.4146 8.55191 11.4146 8.35388 11.3484 8.15585C11.2823 8.08984 10.4224 6.83564 8.90093 6.83564C8.07936 6.87459 7.25713 7.30696 6.44945 8.13142C6.677 7.53601 6.87677 7.09176 6.99716 6.83234C8.73688 6.75973 10.5037 5.40124 11.0184 3.66715C11.4153 2.28093 12.5398 0.828705 12.6059 0.762695C12.6642 0.675561 12.684 0.575886 12.6708 0.47489C12.6642 0.338909 12.6053 0.22141 12.5113 0.142858C12.4994 0.128996 12.4869 0.115794 12.4736 0.102592C12.3903 0.0471432 12.295 0.0266801 12.2031 0.0365816C12.0093 0.0365816 9.14635 0.0596853 7.44631 2.01689C6.47525 3.1153 6.07571 4.53122 6.24571 6.3234C6.14715 6.51747 5.96325 6.89439 5.74298 7.42313L5.79259 5.51544C5.85874 3.73316 4.66806 2.21492 4.40346 1.95088V1.88487L4.33731 1.81886C4.20501 1.68684 4.07271 1.55482 3.80812 1.55482C3.54352 1.62083 3.41122 1.81886 3.34508 1.95088C3.34508 1.95088 3.27893 2.01689 3.27893 2.0829C1.95595 4.32725 1.4929 6.5716 2.02209 8.41989C2.38922 9.76254 3.20881 10.8781 4.48019 11.6656C4.36377 12.2848 4.26918 12.9409 4.20964 13.6288C3.92123 12.8677 3.59313 12.2095 3.21278 11.6551C2.48514 10.5329 1.82365 10.0048 1.29446 9.80677C0.96371 9.60874 0.699114 9.47671 0.434518 9.67474C0.169922 9.80677 0.169922 10.1368 0.169922 10.3348V10.5329C0.169922 12.0511 0.169922 13.8994 0.699114 15.4176C1.31695 17.2052 2.56915 18.1868 4.40214 18.4165C4.48482 18.87 4.58537 19.3175 4.7051 19.7591C3.57329 18.7657 2.53673 18.5597 2.02209 18.5208C1.29446 18.4548 0.897561 18.4548 0.632965 18.7188C0.368369 19.0489 0.434518 19.3789 0.500667 19.841C0.566816 19.841 0.566816 19.907 0.566816 20.039C1.22831 23.1415 3.08048 24.6597 6.25563 24.6597C6.45276 24.6597 6.68692 24.6228 6.93101 24.6043C7.33981 25.2202 7.79161 25.8189 8.28575 26.3978C7.11623 25.8182 5.90107 25.4519 4.8665 25.7819C4.27116 25.9139 3.94042 26.046 3.80812 26.442C3.67582 26.7721 3.87427 27.0361 4.07271 27.3002C4.07271 27.3662 4.13886 27.4322 4.20501 27.4982C5.32955 29.1484 7.38017 30.7987 9.36464 30.8647H9.49693C10.423 30.8647 11.2988 30.5109 11.9908 29.8026C12.6218 30.264 13.2893 30.7063 13.9951 31.1287C14.1274 31.1948 14.1935 31.1948 14.2597 31.1948C14.392 31.1948 14.5904 31.1287 14.6566 30.9967C14.7889 30.7327 14.7227 30.4686 14.5243 30.3366L14.5236 30.3353ZM10.6208 22.3481C10.6208 22.2821 10.687 22.2821 10.687 22.216C11.8128 24.0881 13.1742 27.3167 11.9226 28.5563C11.7341 28.4098 11.5495 28.2613 11.3683 28.1114C10.1611 26.3912 9.54787 23.8597 10.6208 22.3481ZM8.50404 17.8594V18.3874C8.56489 20.3869 8.62443 22.2741 7.30409 23.4894C7.06794 23.0999 6.85097 22.7032 6.65187 22.2992C6.6598 20.1268 6.82981 18.1802 8.50338 17.8587L8.50404 17.8594ZM7.11491 13.0406C7.71025 12.7766 8.23944 12.8426 8.57019 12.9746C7.90671 15.3213 6.85891 16.6798 5.17608 17.2521C5.12515 16.8118 5.09141 16.3649 5.07487 15.9121C5.53725 14.413 6.19544 13.434 7.11491 13.0406ZM8.96708 7.75979C9.62857 7.75979 10.0916 8.15585 10.3562 8.41989C8.99023 10.1718 7.81609 10.8392 5.57694 10.987C5.58951 10.9329 5.60208 10.8788 5.61531 10.8253C6.73323 8.86942 7.91597 7.8258 8.96774 7.75979H8.96708ZM8.10714 2.61098C9.01008 1.62743 10.3721 1.22939 11.275 1.06832C10.8794 1.66968 10.384 2.52583 10.0916 3.40311C9.73309 4.71473 8.45707 5.75703 7.14137 5.89764C7.04876 4.56291 7.38612 3.45063 8.10714 2.61098ZM2.94752 8.22186C2.48448 6.63761 2.88137 4.6573 3.93975 2.80901C4.2705 3.27109 4.93199 4.32725 4.86584 5.51544L4.73619 10.4854C4.7223 10.5421 4.70841 10.5989 4.69452 10.6563C3.76578 10.0061 3.20219 9.17571 2.94686 8.22186H2.94752ZM1.09535 10.7303C1.88914 11.1923 3.34441 12.6445 4.20435 17.1332C4.21163 17.1557 4.21957 17.1768 4.22684 17.1973C4.23676 17.2937 4.24801 17.39 4.25992 17.4864C1.40625 16.9563 1.09535 14.1225 1.09535 10.7303ZM1.49224 19.8397C1.49224 19.7737 1.42609 19.7076 1.42609 19.6416C1.42609 19.5756 1.42609 19.4436 1.35994 19.3776C1.49224 19.3776 1.69069 19.4436 1.88914 19.4436H1.95528C2.61611 19.5037 4.20369 19.8905 5.72842 22.5303C5.74165 22.6629 5.80582 22.7751 5.90306 22.8484C5.95333 22.9461 6.00427 23.0431 6.05652 23.1402C6.06314 23.1527 6.07041 23.1646 6.07703 23.1772C6.11473 23.2517 6.15178 23.327 6.18882 23.4042C6.21065 23.4907 6.25365 23.5554 6.3112 23.5996C6.33104 23.6339 6.35022 23.6683 6.37007 23.7026C3.57395 23.7587 2.1061 22.5949 1.49224 19.8397ZM9.43012 29.9392C7.7764 29.9392 5.99037 28.355 4.99814 26.9688C4.93199 26.9028 4.86584 26.7708 4.79969 26.7047C4.86584 26.7047 4.99814 26.6387 5.13044 26.6387C6.38727 26.2427 8.37174 27.4309 9.82702 28.355C10.2206 28.5794 10.5652 28.7557 10.8636 28.9253C10.8669 28.928 10.8702 28.9313 10.8742 28.9339C10.8781 28.9385 10.8821 28.9438 10.8861 28.9491C10.931 29.0164 10.9912 29.0606 11.0594 29.0844C11.1249 29.1372 11.1903 29.19 11.2572 29.2428C10.7081 29.7505 10.0698 29.9973 9.43145 29.9392H9.43012Z" fill="white"/>
</svg>
