<svg width="184" height="35" viewBox="0 0 184 35" fill="none" xmlns="http://www.w3.org/2000/svg">
<path d="M46.4515 1.00277C48.0111 0.994443 49.5557 1.3077 50.9888 1.92298C53.7877 3.12308 56.0168 5.35509 57.2133 8.15552C57.8338 9.58619 58.1495 11.1305 58.1401 12.6899V18.8755C58.1473 19.6206 57.9779 20.3568 57.6459 21.0239C57.3143 21.6823 56.8613 22.2721 56.3107 22.7624C55.7539 23.263 55.1136 23.6621 54.4189 23.9414C53.7176 24.2282 52.9666 24.3742 52.2089 24.3711C51.4635 24.3719 50.7251 24.2264 50.0356 23.9429C48.6652 23.3978 47.5523 22.3537 46.9208 21.0209C46.603 20.3497 46.4416 19.6152 46.4486 18.8725C46.455 19.6176 46.2857 20.3536 45.9544 21.0209C45.6254 21.6799 45.1749 22.2707 44.6265 22.7624C44.0684 23.2627 43.4272 23.6617 42.7318 23.9414C42.0305 24.2282 41.2795 24.3742 40.5218 24.3711C39.777 24.3709 39.0394 24.225 38.3507 23.9414C36.9829 23.3923 35.8712 22.3495 35.2359 21.0195C34.9188 20.3481 34.7581 19.6135 34.7659 18.8711V6.49986C34.762 5.76897 34.9088 5.04512 35.197 4.37347C35.4712 3.71505 35.8723 3.11707 36.3776 2.61369C36.8758 2.11238 37.4651 1.71072 38.1139 1.43025C38.7932 1.14212 39.5244 0.996623 40.2623 1.00277C41.1303 0.989889 41.9876 1.19565 42.7553 1.60109C43.9467 1.20319 45.1955 1.00113 46.4515 1.00277Z" fill="white"/>
<path d="M137.275 1.00272C138.834 0.993938 140.378 1.30722 141.81 1.92293C144.612 3.12146 146.844 5.35364 148.043 8.15547C148.661 9.58683 148.975 11.1308 148.967 12.6898V18.8754C148.972 19.6203 148.803 20.3562 148.472 21.0238C148.141 21.6828 147.689 22.274 147.14 22.7667C146.583 23.2662 145.943 23.6651 145.249 23.9458C144.548 24.2324 143.798 24.3784 143.04 24.3755C142.296 24.3762 141.559 24.2302 140.872 23.9458C139.5 23.4009 138.386 22.3569 137.753 21.0238C137.437 20.3521 137.275 19.6179 137.281 18.8754C137.287 19.6204 137.118 20.3565 136.787 21.0238C136.454 21.6825 136 22.2724 135.449 22.7623C134.892 23.2629 134.252 23.6619 133.558 23.9414C132.856 24.2283 132.104 24.3743 131.346 24.3711C130.602 24.3713 129.866 24.2253 129.179 23.9414C127.807 23.3969 126.694 22.3527 126.062 21.0194C125.744 20.3485 125.582 19.6137 125.59 18.871V6.49981C125.588 5.76909 125.735 5.04557 126.021 4.37342C126.296 3.71534 126.697 3.11748 127.202 2.61364C127.701 2.11269 128.292 1.7111 128.941 1.4302C129.62 1.14132 130.351 0.995787 131.088 1.00272C131.956 0.990436 132.813 1.19616 133.581 1.60104C134.772 1.20312 136.019 1.00105 137.275 1.00272Z" fill="white"/>
<path d="M177.939 17.1097C178.651 17.0429 179.365 17.0201 180.08 17.0415C180.741 16.9685 181.366 16.6998 181.874 16.2697C182.382 15.8395 182.751 15.2675 182.932 14.6269C183.038 14.0013 183.075 13.3659 183.043 12.7322C183.043 10.4294 182.36 8.17818 181.081 6.26341C179.801 4.34864 177.983 2.8563 175.855 1.97513C173.727 1.09396 171.386 0.863557 169.128 1.31305C166.869 1.76255 164.795 2.87176 163.166 4.50039C161.538 6.12901 160.43 8.2039 159.981 10.4626C159.532 12.7213 159.763 15.0624 160.645 17.1897C161.527 19.3171 163.02 21.1351 164.935 22.4139C166.85 23.6926 169.102 24.3747 171.405 24.3739C174.075 24.3393 176.659 23.4208 178.752 21.7621C179.819 20.8741 180.02 19.2353 179.284 18.5072C178.548 17.7791 177.939 17.1507 177.939 17.1097Z" fill="white"/>
<path d="M18.7376 17.1097C19.4489 17.0428 20.1637 17.0201 20.8779 17.0415C21.5392 16.9678 22.1636 16.6988 22.6713 16.2687C23.1791 15.8387 23.5472 15.2671 23.7287 14.6269C23.8347 14.0013 23.8719 13.3659 23.8394 12.7322C23.8397 10.4295 23.1572 8.17838 21.878 6.26359C20.5989 4.34881 18.7806 2.85635 16.6533 1.97496C14.5259 1.09357 12.1849 0.862846 9.92638 1.31196C7.66787 1.76108 5.59326 2.86987 3.96493 4.4981C2.33659 6.12633 1.22768 8.20087 0.778416 10.4594C0.329156 12.7178 0.559733 15.0588 1.44099 17.1863C2.32224 19.3137 3.81459 21.132 5.72929 22.4113C7.644 23.6906 9.89507 24.3733 12.1978 24.3731C14.8695 24.3382 17.4544 23.4198 19.5493 21.7613C20.6161 20.8734 20.8156 19.2346 20.0743 18.5065C19.333 17.7784 18.7346 17.15 18.7346 17.1089" fill="white"/>
<path d="M108.939 24.4596C108.202 24.4663 107.471 24.3208 106.793 24.0321C105.482 23.4648 104.437 22.4183 103.871 21.1065C103.58 20.4293 103.433 19.6983 103.442 18.961V6.58978C103.434 5.85036 103.58 5.1174 103.871 4.43773C104.15 3.78745 104.551 3.1973 105.054 2.69995C105.554 2.19928 106.144 1.79838 106.793 1.5187C107.473 1.23306 108.203 1.08594 108.94 1.08594C109.678 1.08594 110.408 1.23306 111.087 1.5187C111.736 1.79977 112.327 2.20021 112.829 2.69921C113.329 3.19836 113.731 3.78807 114.011 4.43699C114.3 5.11756 114.445 5.85001 114.439 6.58905V18.9603C114.446 19.6972 114.3 20.4276 114.011 21.1057C113.446 22.4183 112.4 23.465 111.087 24.0314C110.408 24.3203 109.677 24.4658 108.939 24.4588" fill="white"/>
<path d="M92.5186 6.58996C92.5265 5.85077 92.3809 5.11798 92.0911 4.4379C91.5232 3.12814 90.4772 2.08423 89.1663 1.51887C88.4862 1.23432 87.7565 1.08778 87.0193 1.08778C86.2822 1.08778 85.5524 1.23432 84.8724 1.51887C84.7903 1.5526 84.7126 1.5922 84.6341 1.63473C83.3847 1.18493 82.0663 0.957124 80.7384 0.961613C79.1797 0.952622 77.6363 1.26826 76.2062 1.88843C73.4047 3.08364 71.1733 5.31504 69.9781 8.11656C69.3585 9.54663 69.0441 11.0902 69.055 12.6487C69.0444 14.2064 69.3596 15.7492 69.9803 17.1779C71.1734 19.9819 73.4053 22.2154 76.2084 23.4105C76.9294 23.7237 77.6819 23.959 78.4529 24.1122C73.0108 26.5319 74.9275 33.8555 80.5265 34.5594C85.7574 35.212 91.2941 31.0046 92.185 26.229C92.4646 23.8173 92.5761 21.3891 92.5186 18.9619V6.58996Z" fill="white"/>
</svg>
