<svg width="154" height="56" viewBox="0 0 154 56" fill="none" xmlns="http://www.w3.org/2000/svg">
<g style="mix-blend-mode:luminosity" clip-path="url(#clip0_156_17713)">
<path d="M49.3271 15.619V21.8354H47.3209V15.619H46.4863V14.1065H47.3209V13.114C47.3209 11.9822 48.0324 10.8379 49.669 10.8379H50.8103V12.517H50.0234C49.5458 12.517 49.3296 12.7782 49.3296 13.2359V14.1065H50.8128V15.619H49.3296H49.3271Z" fill="white"/>
<path d="M56.1047 15.9249C55.8734 15.696 55.5642 15.5742 55.1619 15.5742C54.7597 15.5742 54.4656 15.696 54.2343 15.9249C53.817 16.3378 53.7717 17.0244 53.7717 17.8478C53.7717 18.6712 53.8195 19.3752 54.2343 19.7881C54.4656 20.0169 54.7597 20.1388 55.1619 20.1388C55.5642 20.1388 55.8709 20.0169 56.1047 19.7881C56.522 19.3752 56.5672 18.6737 56.5672 17.8478C56.5672 17.0219 56.5195 16.3353 56.1047 15.9249ZM57.6633 20.9523C57.1706 21.4722 56.351 21.9299 55.1619 21.9299C53.9728 21.9299 53.1709 21.4722 52.6757 20.9523C51.9491 20.2035 51.7656 19.303 51.7656 17.8503C51.7656 16.3975 51.9517 15.512 52.6757 14.7657C53.1684 14.2458 53.9728 13.7881 55.1619 13.7881C56.351 13.7881 57.168 14.2458 57.6633 14.7657C58.3873 15.5145 58.5733 16.415 58.5733 17.8503C58.5733 19.2856 58.3873 20.2035 57.6633 20.9523Z" fill="white"/>
<path d="M65.1661 21.8378V17.0244C65.1661 15.9398 64.4723 15.5717 63.8388 15.5717C63.2053 15.5717 62.4963 15.9398 62.4963 17.0244V21.8378H60.4902V13.8801H62.4511V14.614C62.9765 14.0642 63.7156 13.7881 64.4572 13.7881C65.2617 13.7881 65.9077 14.0468 66.3552 14.4896C67.0038 15.1314 67.1748 15.8801 67.1748 16.7508V21.8378H65.1687H65.1661Z" fill="white"/>
<path d="M72.3597 15.5739C71.1555 15.5739 71.0022 16.5515 71.0022 17.85C71.0022 19.1485 71.1581 20.1411 72.3597 20.1411C73.5614 20.1411 73.7348 19.1485 73.7348 17.85C73.7348 16.5515 73.5639 15.5739 72.3597 15.5739ZM73.7801 21.8376V21.0888C73.2245 21.7008 72.6388 21.9296 71.7891 21.9296C71.0022 21.9296 70.2606 21.6535 69.8131 21.2107C69.0112 20.4147 68.9961 19.0416 68.9961 17.85C68.9961 16.6585 69.0112 15.3003 69.8131 14.5042C70.2606 14.0615 70.9871 13.7853 71.774 13.7853C72.5608 13.7853 73.2094 13.9993 73.7348 14.5814V10.9595H75.741V21.8351H73.7801V21.8376Z" fill="white"/>
<path d="M80.6316 21.9294C79.3671 21.9294 78.2232 21.7926 77.2051 20.7827L78.5173 19.4842C79.181 20.1409 80.0458 20.2329 80.6617 20.2329C81.3556 20.2329 82.0821 20.0041 82.0821 19.407C82.0821 19.009 81.8659 18.7354 81.2324 18.6732L79.9679 18.5488C78.5174 18.412 77.6199 17.7852 77.6199 16.32C77.6199 14.6707 79.088 13.7852 80.7246 13.7852C81.974 13.7852 83.0248 13.9991 83.7966 14.7155L82.5623 15.9518C82.0997 15.5389 81.3883 15.417 80.6944 15.417C79.8925 15.417 79.5531 15.7827 79.5531 16.1807C79.5531 16.4717 79.6763 16.8075 80.3877 16.8672L81.6522 16.9891C83.2435 17.1434 84.0455 17.9817 84.0455 19.3274C84.0455 21.0837 82.5321 21.9245 80.6341 21.9245" fill="white"/>
<path d="M49.7898 36.4593C48.5253 36.4593 47.3814 36.3225 46.3633 35.3125L47.6755 34.014C48.3392 34.6707 49.204 34.7627 49.8199 34.7627C50.5138 34.7627 51.2403 34.5339 51.2403 33.9369C51.2403 33.5389 51.0241 33.2652 50.3906 33.203L49.1261 33.0787C47.6756 32.9419 46.7781 32.315 46.7781 30.8473C46.7781 29.1981 48.2437 28.3125 49.8828 28.3125C51.1322 28.3125 52.183 28.5264 52.9548 29.2453L51.7205 30.4817C51.2579 30.0687 50.5465 29.9468 49.8526 29.9468C49.0507 29.9468 48.7113 30.3125 48.7113 30.7105C48.7113 31.0016 48.8345 31.3374 49.5434 31.3971L50.8079 31.519C52.3992 31.6707 53.2012 32.5115 53.2012 33.8548C53.2012 35.6135 51.6878 36.4518 49.7898 36.4518" fill="white"/>
<path d="M57.1521 36.3678C55.5005 36.3678 54.8066 35.2235 54.8066 34.0917V25.4922H56.8128V33.9698C56.8128 34.4424 57.0139 34.6887 57.5242 34.6887H58.296V36.3678H57.1546H57.1521Z" fill="white"/>
<path d="M63.9758 33.0069H62.387C61.6605 33.0069 61.2583 33.3427 61.2583 33.9074C61.2583 34.4721 61.6303 34.8253 62.4172 34.8253C62.9728 34.8253 63.3272 34.7805 63.6817 34.4422C63.8979 34.2432 63.9758 33.9248 63.9758 33.4347V33.0069ZM64.0236 36.3676V35.681C63.4831 36.2158 62.9728 36.4447 62.0476 36.4447C61.1225 36.4447 60.4714 36.2158 59.9938 35.7432C59.5614 35.3004 59.3301 34.6586 59.3301 33.9546C59.3301 32.686 60.21 31.6487 62.0778 31.6487H63.9758V31.2507C63.9758 30.38 63.5434 29.9994 62.4775 29.9994C61.7057 29.9994 61.3513 30.1835 60.934 30.6561L59.6519 29.4198C60.4387 28.5641 61.213 28.3203 62.5554 28.3203C64.8104 28.3203 65.9819 29.2681 65.9819 31.1313V36.3701H64.0211L64.0236 36.3676Z" fill="white"/>
<path d="M71.3377 36.4602C69.7313 36.4602 67.7402 35.6044 67.7402 32.3805C67.7402 29.1567 69.7338 28.3184 71.3377 28.3184C72.4488 28.3184 73.2834 28.6542 73.9924 29.388L72.6348 30.7313C72.2175 30.2885 71.8631 30.1069 71.3377 30.1069C70.86 30.1069 70.488 30.2761 70.1963 30.6243C69.8871 31.0074 69.7489 31.5422 69.7489 32.3805C69.7489 33.2189 69.8871 33.7711 70.1963 34.1517C70.4905 34.5049 70.86 34.6716 71.3377 34.6716C71.8631 34.6716 72.2175 34.4875 72.6348 34.0447L73.9924 35.3731C73.2834 36.1069 72.4488 36.4577 71.3377 36.4577" fill="white"/>
<path d="M80.1702 36.3678V31.5096C80.1702 30.4574 79.4915 30.1041 78.858 30.1041C78.2245 30.1041 77.5608 30.4698 77.5608 31.5096V36.3678H75.5547V25.4922H77.5608V29.1439C78.1013 28.5942 78.7801 28.3181 79.4915 28.3181C81.2512 28.3181 82.1789 29.5395 82.1789 31.221V36.3703H80.1702V36.3678Z" fill="white"/>
<path d="M86.852 36.3672C85.2154 36.3672 84.5216 35.223 84.5216 34.0911V30.1508H83.6719V28.6384H84.5216V26.2852H86.5277V28.6384H87.9481V30.1508H86.5277V33.9692C86.5277 34.4269 86.7439 34.6881 87.2215 34.6881H87.9481V36.3672H86.852Z" fill="white"/>
<path d="M93.7218 30.4547C93.4906 30.2259 93.1814 30.104 92.7816 30.104C92.3819 30.104 92.0878 30.2259 91.854 30.4547C91.4367 30.8677 91.3914 31.5542 91.3914 32.3801C91.3914 33.206 91.4367 33.9075 91.854 34.3204C92.0853 34.5493 92.3794 34.6712 92.7816 34.6712C93.1839 34.6712 93.4931 34.5493 93.7218 34.3204C94.1392 33.9075 94.1844 33.206 94.1844 32.3801C94.1844 31.5542 94.1392 30.8677 93.7218 30.4547ZM95.2805 35.4821C94.7852 35.9995 93.9682 36.4597 92.7791 36.4597C91.59 36.4597 90.7881 35.9995 90.2929 35.4821C89.5688 34.7333 89.3828 33.8328 89.3828 32.3801C89.3828 30.9274 89.5688 30.0418 90.2929 29.293C90.7856 28.7731 91.59 28.3154 92.7791 28.3154C93.9682 28.3154 94.7852 28.7731 95.2805 29.293C96.007 30.0418 96.1905 30.9448 96.1905 32.3801C96.1905 33.8154 96.0045 34.7333 95.2805 35.4821Z" fill="white"/>
<path d="M100.362 30.1512V36.3676H98.3561V30.1512H97.5215V28.6388H98.3561V27.6462C98.3561 26.5144 99.065 25.3701 100.702 25.3701H101.845V27.0492H101.059C100.581 27.0492 100.362 27.3104 100.362 27.7681V28.6388H101.845V30.1512H100.362Z" fill="white"/>
<path d="M105.638 30.1512V36.3676H103.631V30.1512H102.797V28.6388H103.631V27.6462C103.631 26.5144 104.343 25.3701 105.977 25.3701H107.121V27.0492H106.334C105.856 27.0492 105.638 27.3104 105.638 27.7681V28.6388H107.121V30.1512H105.638Z" fill="white"/>
<path d="M112.866 30.7906C112.649 30.3179 112.202 29.9672 111.523 29.9672C110.844 29.9672 110.397 30.3179 110.181 30.7906C110.057 31.0816 110.01 31.2955 109.995 31.6463H113.052C113.036 31.2955 112.989 31.0816 112.866 30.7906ZM109.992 33.007C109.992 34.0318 110.626 34.7781 111.752 34.7781C112.632 34.7781 113.064 34.5343 113.572 34.0294L114.791 35.2035C113.974 36.0144 113.185 36.4572 111.734 36.4572C109.836 36.4572 108.014 35.6015 108.014 32.3776C108.014 29.7806 109.434 28.3154 111.518 28.3154C113.755 28.3154 115.022 29.9348 115.022 32.1189V33.0045H109.99L109.992 33.007Z" fill="white"/>
<path d="M121.248 30.5796C120.939 30.2736 120.677 30.1069 120.182 30.1069C119.564 30.1069 118.885 30.5646 118.885 31.5721V36.3681H116.879V28.4104H118.84V29.1741C119.224 28.7164 119.996 28.3184 120.861 28.3184C121.65 28.3184 122.203 28.5174 122.759 29.0671L121.246 30.5796H121.248Z" fill="white"/>
<path d="M128.518 36.3678V31.5096C128.518 30.4574 127.839 30.1041 127.206 30.1041C126.572 30.1041 125.908 30.4698 125.908 31.5096V36.3678H123.902V25.4922H125.908V29.1439C126.449 28.5942 127.128 28.3181 127.839 28.3181C129.599 28.3181 130.524 29.5395 130.524 31.221V36.3703H128.518V36.3678Z" fill="white"/>
<path d="M137.315 36.3674V35.6336C136.79 36.1833 136.048 36.4595 135.309 36.4595C134.505 36.4595 133.856 36.1983 133.411 35.7555C132.763 35.1137 132.592 34.3649 132.592 33.4943V28.4072H134.598V33.2182C134.598 34.3027 135.292 34.6684 135.925 34.6684C136.559 34.6684 137.268 34.3027 137.268 33.2182V28.4072H139.274V36.3649H137.313L137.315 36.3674Z" fill="white"/>
<path d="M143.799 36.3678C142.148 36.3678 141.451 35.2235 141.451 34.0917V25.4922H143.457V33.9698C143.457 34.4424 143.658 34.6887 144.169 34.6887H144.941V36.3678H143.799Z" fill="white"/>
<path d="M149.913 30.104C148.709 30.104 148.556 31.0816 148.556 32.3801C148.556 33.6786 148.709 34.6736 149.913 34.6736C151.117 34.6736 151.273 33.6811 151.273 32.3801C151.273 31.0791 151.117 30.104 149.913 30.104ZM152.46 35.7408C152.012 36.1836 151.286 36.4597 150.499 36.4597C149.712 36.4597 149.078 36.2458 148.553 35.6662V39.2856H146.547V28.4075H148.493V29.1562C149.048 28.5443 149.649 28.3154 150.499 28.3154C151.286 28.3154 152.012 28.5915 152.46 29.0343C153.262 29.8279 153.277 31.1886 153.277 32.3801C153.277 33.5716 153.262 34.9473 152.46 35.7408Z" fill="white"/>
<path d="M120.437 45.8208H121.06V48.4626C121.06 49.4651 121.392 49.9452 122.541 49.9452H122.961V49.2138H122.571C121.918 49.2138 121.84 48.9352 121.84 48.2685V45.8183H122.961V45.1243H121.84V44.0646H121.06V45.1243H120.437V45.8183V45.8208ZM115.527 49.9476H116.307V46.9402C116.307 46.276 116.764 45.7636 117.496 45.7636C118.071 45.7636 118.607 45.975 118.607 46.9501V49.9476H119.386V46.9402C119.386 45.5894 118.657 45.0521 117.614 45.0521C116.892 45.0521 116.55 45.2362 116.307 45.6019V43.2984H115.527V49.9501V49.9476ZM113.928 48.7909C113.725 49.1765 113.305 49.3307 112.847 49.3307C111.912 49.3307 111.523 48.674 111.523 47.8456V47.2088C111.523 46.3034 112.01 45.7437 112.847 45.7437C113.295 45.7437 113.705 45.9178 113.918 46.2262L114.532 45.8009C114.182 45.3108 113.576 45.0496 112.847 45.0496C111.533 45.0496 110.743 45.8382 110.743 47.2088V47.8456C110.743 49.1765 111.513 50.0248 112.847 50.0248C113.637 50.0248 114.23 49.7735 114.532 49.2163L113.928 48.7909ZM108.725 48.0969C108.725 49.179 108.209 49.3133 107.488 49.3133C106.912 49.3133 106.522 49.1019 106.522 48.5621C106.522 48.0795 106.796 47.8183 107.566 47.8183H108.725V48.0969ZM105.743 48.5397C105.743 49.475 106.356 50.0248 107.488 50.0248C108.121 50.0248 108.453 49.9178 108.725 49.475V49.9452H109.504V46.6019C109.504 45.4427 108.891 45.0496 107.654 45.0496C106.726 45.0496 106.231 45.2909 105.889 45.8481L106.472 46.2536C106.744 45.8108 107.058 45.7611 107.644 45.7611C108.403 45.7611 108.725 45.9153 108.725 46.6019V47.1616H107.566C106.492 47.1616 105.743 47.4999 105.743 48.5397ZM105.333 45.7039C105.022 45.271 104.602 45.0496 103.941 45.0496C103.347 45.0496 103.015 45.2611 102.809 45.5994V45.1292H102.03V49.9501H102.809V46.9327C102.809 46.2088 103.257 45.766 103.853 45.766C104.212 45.766 104.466 45.8904 104.672 46.1715L105.336 45.7088L105.333 45.7039ZM99.8178 45.1267L97.8494 47.0944V43.2959H97.07V49.9476H97.8494V48.1641L98.151 47.8456L100.119 49.9476H101.133L98.7267 47.2586L100.831 45.1267H99.8178ZM89.0833 49.9476H89.8601V46.9402C89.8601 46.276 90.3202 45.7636 91.0492 45.7636C91.6249 45.7636 92.1604 45.975 92.1604 46.9501V49.9476H92.9372V46.9402C92.9372 45.5894 92.2081 45.0521 91.1648 45.0521C90.4433 45.0521 90.104 45.2362 89.8576 45.6019V45.1317H89.0808V49.9526L89.0833 49.9476ZM86.8233 48.0969C86.8233 49.179 86.3054 49.3133 85.5839 49.3133C85.0082 49.3133 84.6186 49.1019 84.6186 48.5621C84.6186 48.0795 84.8926 47.8183 85.6619 47.8183H86.8233V48.0969ZM83.8418 48.5397C83.8418 49.475 84.4552 50.0248 85.5839 50.0248C86.2174 50.0248 86.5493 49.9178 86.8233 49.475V49.9452H87.6001V46.6019C87.6001 45.4427 86.9867 45.0496 85.7498 45.0496C84.8247 45.0496 84.327 45.2909 83.9876 45.8481L84.5708 46.2536C84.8448 45.8108 85.1566 45.7611 85.7423 45.7611C86.5015 45.7611 86.8258 45.9153 86.8258 46.6019V47.1616H85.6644C84.5909 47.1616 83.8443 47.4999 83.8443 48.5397H83.8418ZM82.2605 45.1267L80.7798 48.9626L79.2991 45.1267H78.4218L80.4103 49.9476H81.1896L83.1379 45.1267H82.2605ZM74.8746 45.8506C74.495 45.2536 73.8917 45.0521 73.1023 45.0521C71.9434 45.0521 71.3601 45.6193 71.3601 46.4203C71.3601 47.47 72.1671 47.7984 72.9866 47.8556C73.9319 47.9228 74.2436 48.1068 74.2436 48.6292C74.2436 49.0621 73.854 49.3133 73.2003 49.3133C72.4989 49.3133 72.147 49.169 71.8856 48.8208L71.3124 49.2262C71.6819 49.7262 72.1973 50.0248 73.1928 50.0248C74.4498 50.0248 75.0254 49.4476 75.0254 48.6093C75.0254 47.4999 74.1883 47.2412 73.2707 47.174C72.6272 47.1267 72.1395 46.9626 72.1395 46.4128C72.1395 45.9874 72.509 45.766 73.0847 45.766C73.7559 45.766 74.0299 45.9203 74.2939 46.2586L74.8771 45.8531L74.8746 45.8506ZM69.1001 44.1641H69.975V43.2959H69.1001V44.1641ZM69.1479 49.9476H69.9272V45.1267H69.1479V49.9476ZM63.6625 49.9476H64.4418V46.9402C64.4418 46.276 64.8994 45.7636 65.6309 45.7636C66.2066 45.7636 66.7421 45.975 66.7421 46.9501V49.9476H67.5214V46.9402C67.5214 45.5894 66.7923 45.0521 65.7491 45.0521C65.0276 45.0521 64.6857 45.2362 64.4443 45.6019V45.1317H63.665V49.9526L63.6625 49.9476ZM58.3229 49.9476H59.1022V46.9402C59.1022 46.276 59.5598 45.7636 60.2913 45.7636C60.867 45.7636 61.4025 45.975 61.4025 46.9501V49.9476H62.1818V46.9402C62.1818 45.5894 61.4528 45.0521 60.4095 45.0521C59.688 45.0521 59.3461 45.2362 59.1022 45.6019V45.1317H58.3229V49.9526V49.9476ZM55.0397 45.7437C55.7814 45.7437 56.1408 46.2262 56.1786 47.0372H53.8884C53.9361 46.2362 54.2881 45.7437 55.0397 45.7437ZM56.2967 48.7909C56.0931 49.1466 55.7713 49.3307 55.1378 49.3307C54.2881 49.3307 53.8884 48.674 53.8884 47.8456V47.7113H56.9679V47.2113C56.9679 45.8307 56.3269 45.0521 55.0397 45.0521C53.7526 45.0521 53.1116 45.8407 53.1116 47.2113V47.8456C53.1116 49.1864 53.8909 50.0248 55.1956 50.0248C56.0428 50.0248 56.5607 49.8034 56.9 49.2163L56.2967 48.7909ZM52.6515 49.9476L49.944 45.9675L52.1563 43.2959H51.0753L48.1516 46.873V43.2959H47.3145V49.9476H48.1516V48.1342L49.3884 46.6317L51.6485 49.9476H52.6515Z" fill="white"/>
<path d="M22.6436 16.7731H33.2901C33.2901 14.2283 32.8954 12.0517 32.1789 10.1686C31.9979 10.4945 31.8194 10.8179 31.6359 11.1437C31.5655 11.2681 31.4725 11.3776 31.3971 11.4995C31.2613 11.7184 31.1306 11.9373 30.9999 12.1587C30.9823 12.1885 30.9647 12.2184 30.9195 12.2383C30.9597 12.084 31.0024 11.9298 31.0401 11.7756C31.0979 11.5517 31.1181 11.3278 31.0477 11.1015C31.0049 10.9622 31.0049 10.8253 31.0627 10.6885C31.1633 10.4597 31.2412 10.2209 31.3518 9.99947C31.4876 9.72833 31.6234 9.45718 31.7641 9.18604C31.7616 9.17857 31.7566 9.17111 31.7541 9.16365L31.7264 9.17857C31.734 9.16614 31.739 9.1537 31.7465 9.14126C31.7315 9.11141 31.7164 9.08156 31.7013 9.05171C31.6334 9.1736 31.568 9.29798 31.4977 9.41738C31.3167 9.73828 31.1281 10.0592 30.9471 10.3726C30.922 10.2632 30.9169 10.2607 30.9672 10.1587C31.1558 9.78305 31.3443 9.40992 31.5379 9.0343L31.5303 8.97957C31.553 8.93231 31.5706 8.88255 31.5932 8.83529C30.839 7.3328 29.8586 6.03927 28.6846 4.91738C25.9218 2.28803 21.8266 0.870117 17.3216 0.870117C12.8167 0.870117 8.62094 2.39002 5.652 5.32783C2.78612 8.26564 0.943418 11.6064 0.943418 16.7731C0.943418 19.7109 1.45626 22.1413 2.68557 24.0641C4.22158 26.4945 6.88131 28.6214 10.5667 30.2432L17.7314 33.3826C19.6772 34.1935 21.1101 35.2059 21.9271 36.4199C22.7467 37.6363 23.0534 38.8502 23.0534 40.3701C23.0534 42.0915 22.5405 43.7134 21.5174 44.6238C20.2881 45.7383 19.0613 46.1437 17.3191 46.1437C15.8862 46.1437 14.2471 45.6363 13.2239 44.5219C11.9971 43.3054 11.3812 41.584 11.3812 39.4572H0.636719C0.636719 44.5219 2.27328 48.2706 5.44837 51.5119C8.21117 54.3477 12.7161 55.8676 17.3216 55.8676C21.9271 55.8676 25.8187 54.7532 29.0943 51.5119C31.8597 48.7781 33.906 44.9273 33.906 39.6612C33.906 36.0144 33.0865 32.9746 31.6535 30.9497C29.9139 28.4174 27.4553 26.696 23.7724 25.0741L16.6077 22.0368C14.765 21.2258 13.332 20.1114 12.6156 18.997C12.0022 18.084 11.796 17.1736 11.796 15.8577C11.796 14.2383 12.3089 12.8204 13.332 11.8054C14.2521 10.8925 15.6851 10.2855 17.3242 10.2855C18.7571 10.2855 20.0895 10.793 21.1126 11.9049C22.1358 13.0194 22.6486 14.4373 22.6486 16.7681L22.6436 16.7731ZM31.1105 8.84524C31.1105 8.84524 31.1231 8.82534 31.1306 8.81539C31.1407 8.82285 31.1482 8.8328 31.1583 8.84027C31.1507 8.85022 31.1432 8.86017 31.1357 8.86763C31.1256 8.86017 31.1105 8.8527 31.1105 8.84275V8.84524ZM23.9735 7.48703C23.9584 7.50445 23.9383 7.53181 23.9333 7.52932C23.9131 7.51937 23.8955 7.50196 23.878 7.48703C23.8955 7.47211 23.9131 7.45469 23.9333 7.44723C23.9383 7.44474 23.9584 7.47211 23.9735 7.48703ZM26.7287 5.34524C26.7287 5.34524 26.7338 5.34524 26.7338 5.34773L26.6181 5.58156C26.6005 5.57161 26.5829 5.56415 26.5628 5.55668C26.5628 5.55668 26.5628 5.55171 26.5653 5.55171C26.5653 5.55171 26.5628 5.55171 26.5603 5.55171C26.598 5.47211 26.6382 5.39251 26.6759 5.31539C26.6935 5.32285 26.7111 5.3328 26.7287 5.34027V5.34773H26.7262L26.7287 5.34524ZM26.9902 5.27061C27.0053 5.43231 26.9525 5.53927 26.8947 5.63877C26.7187 5.93977 26.5352 6.23579 26.3517 6.53181C26.3139 6.594 26.2737 6.65619 26.1757 6.58405C26.1857 6.54922 26.1933 6.51688 26.2058 6.48454C26.3165 6.21838 26.4648 5.97708 26.6483 5.75071C26.7639 5.60892 26.8595 5.44972 26.9877 5.26813L26.9902 5.27061ZM27.1033 6.06912C27.0681 6.37758 26.8117 6.56415 26.6961 6.82534C26.6759 6.81539 26.6584 6.80544 26.6382 6.793C26.7765 6.54425 26.9148 6.29549 27.053 6.04425C27.0706 6.05171 27.0857 6.05917 27.1033 6.06663V6.06912ZM28.3377 7.6935C28.2974 7.74574 28.2572 7.79549 28.217 7.85022C28.1994 7.83778 28.1843 7.82534 28.1692 7.8129C28.212 7.76315 28.2547 7.7134 28.2974 7.66365L28.3351 7.6935H28.3377ZM28.9536 9.22832C29.039 9.08653 29.1295 8.94474 29.215 8.80295C29.2301 8.8129 29.2477 8.82285 29.2628 8.83032C29.1748 8.96962 29.0843 9.11141 28.9963 9.2532C28.9812 9.24325 28.9661 9.23579 28.951 9.22584L28.9536 9.22832ZM28.6795 5.89748C28.7198 5.87758 28.7499 5.85519 28.7625 5.86265C28.7876 5.87509 28.8078 5.90494 28.8153 5.93231C28.8178 5.93977 28.7726 5.97708 28.7575 5.97459C28.7323 5.96464 28.7122 5.93479 28.677 5.89997L28.6795 5.89748ZM27.5935 9.78305C27.6614 9.43977 27.8675 9.20345 28.0058 8.91489C27.9606 8.91987 27.9354 8.91987 27.8801 8.92733C28.0636 8.57161 28.2949 8.26564 28.5187 7.93231C28.5262 8.04425 28.5413 8.12385 28.5363 8.20345C28.5312 8.27061 28.5161 8.34773 28.4835 8.40494C28.2195 8.84275 27.948 9.28056 27.6765 9.71589C27.6664 9.7333 27.6438 9.74076 27.591 9.78056L27.5935 9.78305ZM27.6086 8.75071C27.7293 8.54176 27.8474 8.33032 27.9857 8.08902C27.9857 8.39997 27.8349 8.59648 27.6086 8.75071ZM26.5477 9.49698C26.5955 9.40494 26.6408 9.31042 26.6885 9.21589C26.7388 9.1139 26.784 9.00942 26.8343 8.90743C26.8896 8.80047 26.9424 8.69101 27.0028 8.58405C27.0581 8.48454 27.1159 8.38753 27.1737 8.28803C27.234 8.19101 27.2868 8.08902 27.3522 7.99449C27.415 7.90245 27.4829 7.81041 27.6287 7.76315C27.4 8.44474 26.95 8.95221 26.5905 9.51439C26.5754 9.50693 26.5628 9.49947 26.5477 9.49449V9.49698ZM27.0807 8.06166C26.9776 8.21091 26.8871 8.36514 26.7916 8.51937C26.7715 8.50693 26.7514 8.49201 26.7313 8.47957C26.9173 8.1736 27.1008 7.86514 27.3044 7.52683C27.3044 7.71091 27.2667 7.78803 27.0807 8.06166ZM26.045 9.15619C26.0827 9.05171 26.1103 8.93977 26.1606 8.83778C26.3114 8.52435 26.4623 8.20843 26.6307 7.90245C26.8067 7.58653 27.0028 7.27808 27.1938 6.96962C27.2491 6.88255 27.3195 6.80295 27.3949 6.70594C27.5483 6.84027 27.5634 6.86763 27.4779 6.96962C27.3497 7.12634 27.2768 7.31042 27.2014 7.49698C27.053 7.86763 26.8218 8.1935 26.5754 8.5144C26.5955 8.45967 26.6131 8.40494 26.6332 8.3527C26.6232 8.34524 26.6131 8.34027 26.603 8.33529C26.4271 8.6139 26.2511 8.89002 26.0776 9.16862C26.0676 9.16365 26.0575 9.16116 26.0475 9.1537L26.045 9.15619ZM25.6402 8.82783C25.6628 8.77559 25.6829 8.72335 25.7106 8.6736C26.2989 7.64126 26.8921 6.60892 27.5885 5.63877C27.6061 5.6139 27.6162 5.58653 27.6312 5.55668C27.6639 5.60395 27.6815 5.61887 27.6765 5.62385C27.5357 5.86265 27.3899 6.09897 27.2491 6.33778C27.219 6.39002 27.1762 6.47708 27.1963 6.50942C27.2717 6.61141 27.2089 6.68355 27.1611 6.75818C26.7489 7.43231 26.3366 8.10892 25.9243 8.78305C25.8815 8.8527 25.8313 8.91738 25.786 8.98206L25.7483 8.95967C25.8036 8.84027 25.8589 8.72086 25.9117 8.60146C25.9017 8.594 25.8941 8.58902 25.8841 8.58156C25.8137 8.67609 25.7458 8.77061 25.6779 8.86265C25.6578 8.85022 25.6503 8.84524 25.6478 8.84027C25.6427 8.83529 25.6377 8.82783 25.6402 8.82285V8.82783ZM25.7835 7.01688C25.8162 6.81041 26.0022 6.5343 26.1505 6.46464C26.0274 6.65121 25.9193 6.81539 25.7835 7.01688ZM25.791 7.22086L25.693 7.39002C25.6804 7.38255 25.6679 7.37509 25.6553 7.37012C25.688 7.31539 25.7207 7.25818 25.7533 7.20345C25.7659 7.20843 25.7785 7.21589 25.7885 7.22335L25.791 7.22086ZM26.0801 7.7134C26.0801 7.7134 26.1003 7.72086 26.1254 7.72833C26.0626 7.82783 26.0022 7.92484 25.9419 8.02186C25.9243 8.01191 25.9092 8.00196 25.8916 7.99449C25.9545 7.90245 26.0148 7.80544 26.0801 7.7134ZM23.1665 9.22832C23.2922 9.01688 23.4078 8.8328 23.5159 8.64126C24.0388 7.72086 24.5542 6.80047 25.0796 5.88255C25.3511 5.40743 25.6402 4.93977 25.9193 4.46962C26.0952 4.58156 26.1003 4.59151 26.0399 4.74325C26.0072 4.82783 25.9695 4.90743 25.9695 5.00693C26.0726 4.86017 26.1782 4.7134 26.2813 4.56912C26.2989 4.57907 26.3165 4.58653 26.3341 4.59648C26.2762 4.83529 26.0525 5.00942 26.05 5.28305C26.1128 5.20594 26.1807 5.12882 26.236 5.04425C26.3114 4.92982 26.3693 4.80793 26.4422 4.69599C26.5151 4.58902 26.5427 4.59151 26.6558 4.68355C26.5251 4.92733 26.4019 5.1736 26.2637 5.40992C26.1304 5.64126 25.9846 5.86763 25.869 6.11141C26.0198 5.97211 26.143 5.81042 26.231 5.63131C26.2963 5.49698 26.3818 5.39002 26.5377 5.32037C26.5327 5.35519 26.5377 5.38007 26.5251 5.39748C26.3265 5.72833 26.1355 6.06415 25.9243 6.38753C25.6553 6.79798 25.3712 7.20096 25.0922 7.60644C25.0494 7.66862 25.0268 7.73828 24.9187 7.74325C24.8684 7.74325 24.8106 7.83032 24.7754 7.88753C24.6196 8.12634 24.4687 8.37012 24.3129 8.60892C24.2676 8.67857 24.2048 8.73828 24.1495 8.80046C24.1369 8.79549 24.1243 8.78803 24.1117 8.78305C24.1117 8.75071 24.1117 8.71838 24.1143 8.65867C24.0564 8.72584 24.0137 8.77808 23.971 8.82783L23.9433 8.81042C24.0238 8.6537 24.1042 8.49449 24.1872 8.33529C24.1595 8.33032 24.1394 8.32037 24.1369 8.32783C23.971 8.52186 23.8076 8.71838 23.6442 8.91241C23.5713 8.99947 23.5109 9.10395 23.4254 9.17111C23.3727 9.2134 23.2771 9.20345 23.1665 9.22335V9.22832Z" fill="white"/>
<path d="M32.0315 7.23838C31.8706 7.44485 31.8254 7.54684 31.8254 7.69609C31.9108 7.55181 32.0466 7.45728 32.0315 7.23838ZM31.5966 9.25579C31.8782 8.73092 32.1572 8.20355 32.4337 7.67619C32.5242 7.50206 32.67 7.34534 32.6223 7.12395C32.6172 7.09907 32.6399 7.06922 32.655 7.04435C32.8083 6.77569 32.9617 6.50704 33.1125 6.24087C33.1728 6.13141 33.2281 6.01947 33.2859 5.91002C33.2709 5.90007 33.2533 5.89012 33.2382 5.88017C33.198 5.92495 33.1527 5.96475 33.12 6.0145C32.9642 6.25579 32.7932 6.49211 32.66 6.74335C32.5795 6.89758 32.4765 7.03937 32.396 7.19111C32.2804 7.41002 32.1874 7.63888 32.0768 7.86027C31.9963 8.02196 31.8957 8.17121 31.8178 8.33291C31.7198 8.54186 31.6494 8.76077 31.5488 8.96475M33.1351 8.37022C33.2432 8.16624 33.3387 7.96226 33.482 7.77818C33.6354 7.57917 33.7636 7.36027 33.8868 7.14136C34.2639 6.46972 34.6309 5.79559 35.0004 5.12395C35.0457 5.04186 35.0935 4.96226 35.1261 4.87519C35.1563 4.7931 35.2091 4.70853 35.1563 4.60156C35.0155 4.62395 34.9401 4.72097 34.8748 4.82047C34.7591 4.9946 34.651 5.17121 34.5354 5.34534C34.4725 5.43987 34.4046 5.52694 34.3167 5.64883C34.1809 5.37022 34.0577 5.12395 33.9169 4.83291C33.834 4.91997 33.7711 4.96475 33.741 5.02196C33.6304 5.21599 33.6178 5.4349 33.6555 5.64385C33.6831 5.78813 33.6681 5.89261 33.5751 5.99957C33.5223 6.05927 33.477 6.12146 33.4368 6.19111C33.3337 6.37022 33.2407 6.55679 33.1351 6.73589C32.8963 7.13639 32.6424 7.52942 32.4111 7.93241C32.1798 8.33788 31.9636 8.7533 31.7474 9.16624" fill="white"/>
<path d="M31.1617 8.863H31.1113V8.81055H31.1617V8.863Z" fill="white"/>
</g>
<defs>
<clipPath id="clip0_156_17713">
<rect width="152.64" height="55" fill="white" transform="translate(0.636719 0.870117)"/>
</clipPath>
</defs>
</svg>
