<svg width="80" height="56" viewBox="0 0 80 56" fill="none" xmlns="http://www.w3.org/2000/svg">
<g style="mix-blend-mode:luminosity" clip-path="url(#clip0_156_17751)">
<path d="M62.1187 7.75496C62.3536 7.75496 62.4319 7.68844 62.376 7.56093C62.1075 6.93175 61.7804 6.68506 61.5315 6.68506C61.182 6.68506 61.2547 7.10082 60.9694 7.17566C60.8548 7.20615 60.852 7.28376 60.9443 7.37245C61.1428 7.55539 61.7133 7.75496 62.1187 7.75496Z" fill="white"/>
<path d="M77.2261 0.870117L2.81861 0.870117C1.48756 0.870117 0.500453 2.08969 0.785678 3.37579C4.83756 21.6943 11.8396 38.9153 21.2688 54.5314C21.7693 55.3601 22.6753 55.8674 23.6512 55.8674H77.2289C78.7613 55.8674 80.0028 54.6367 80.0028 53.1178V3.6197C80.0028 2.10078 78.7613 0.870117 77.2289 0.870117H77.2261ZM45.2613 7.25348C45.4346 7.05114 45.7338 7.02897 45.9436 7.19527C48.1387 8.91376 51.072 11.0979 53.4629 12.7166C53.5104 12.7499 53.5244 12.7554 53.5999 12.7471C55.1994 12.5614 56.3012 12.0486 56.9275 11.9378C57.663 11.8075 58.2977 11.8075 58.8542 11.9267C59.0472 11.9682 59.2345 12.0985 59.3156 12.3119C59.503 12.8025 59.8217 13.4373 60.0622 13.8031C60.2132 14.036 60.2831 14.011 60.2272 13.7117C60.0958 12.9827 59.9196 12.4422 59.4442 11.3585C59.3855 11.3585 59.1842 11.3307 59.0667 11.2864C58.2278 10.9732 57.3023 10.3523 56.9695 9.88111C56.9415 9.83953 56.9164 9.82567 56.8688 9.80904C56.2005 9.56513 55.7615 9.1161 55.6664 8.68093C55.4091 7.48076 56.0635 6.97907 55.9684 6.54391C55.8817 6.142 56.1306 5.85928 56.9807 5.9563C58.0433 6.07825 59.0388 6.36652 60.0343 6.36652C60.093 6.36652 60.1405 6.33048 60.1713 6.28613C60.5572 5.71515 61.0242 5.4851 61.7232 5.4851C64.033 5.4851 65.4144 6.54945 65.8283 7.62212C65.8674 7.72468 65.7695 7.79952 65.6856 7.73022C65.2969 7.4087 64.4748 7.12598 64.1812 7.12598C63.8149 7.12598 63.8065 7.28674 63.9016 7.41147C64.5475 8.27349 64.1616 9.31012 63.3227 10.1389C62.7467 10.7099 62.2517 12.2066 63.4905 12.2066C64.2651 12.2066 64.9949 12.0459 65.4004 11.838C65.4647 11.8047 65.5039 11.8186 65.4787 11.9017C64.3686 15.4745 63.6024 17.3371 62.9564 18.3599C62.7998 18.6094 62.5901 18.7008 62.3272 18.7008C57.7664 18.7008 51.9193 13.7699 45.3144 7.92979C45.1159 7.7524 45.0823 7.45582 45.2557 7.25071L45.2613 7.25348ZM29.3306 49.3316C29.3306 49.4701 29.2159 49.5838 29.0761 49.5838H26.414C26.2742 49.5838 26.1596 49.4701 26.1596 49.3316V37.2633C26.1596 37.1247 26.2742 37.0111 26.414 37.0111H29.0761C29.2159 37.0111 29.3306 37.1247 29.3306 37.2633V49.3316ZM36.9478 49.5838H33.7432C33.6118 49.5838 33.4915 49.5173 33.4216 49.4064L29.7836 43.6439C29.5515 43.278 29.5515 42.8124 29.7836 42.4465L33.0777 37.1885C33.1476 37.0776 33.2706 37.0111 33.402 37.0111H36.6765C36.7772 37.0111 36.8387 37.122 36.7828 37.2051L32.9574 42.9066C32.9015 42.9898 32.9015 43.1006 32.9574 43.1838L37.0624 49.387C37.1184 49.4701 37.0568 49.581 36.9562 49.581L36.9478 49.5838ZM35.3427 32.0746C35.1553 33.3274 34.0508 34.3862 33.5474 34.3862C33.2762 34.3862 33.1224 34.195 33.1224 33.3801C33.1224 32.7952 33.142 32.7426 33.7851 32.2409C34.2158 31.9055 34.501 31.1682 34.501 30.5861C34.501 30.0789 34.3919 29.8017 34.2158 29.5301C34.02 29.2224 34.0284 29.0256 34.199 28.8095C34.4758 28.463 34.4982 28.3327 34.3248 27.8726C34.185 27.504 34.2941 27.2295 34.6828 26.9856C36.1788 26.0432 37.0512 24.8403 37.0512 22.8335C37.0512 19.3079 36.6066 18.2241 37.3113 16.2395C37.4008 15.9901 37.3672 15.8931 37.11 15.857C32.3786 15.2029 29.9793 12.3868 29.5431 9.09115C29.4648 8.48968 29.8479 8.36773 30.1219 8.82784C31.7466 11.5552 34.8086 13.4096 37.2973 13.4096C39.6406 13.4096 40.9605 12.7721 42.7558 12.6085C44.4168 12.4561 46.7042 12.6002 48.8601 12.9079C48.9021 12.9134 48.9105 12.9328 48.8965 12.9605C47.5207 15.8598 48.1415 17.1431 50.331 18.59C51.1839 19.1526 51.2874 19.3827 50.359 21.3285C49.4977 23.1357 49.2209 23.2105 48.2925 23.1273C47.0873 23.0165 45.0348 22.3374 43.8435 21.4892C43.2731 21.0846 43.013 21.1788 42.8872 21.5862C42.3838 23.2022 41.3128 24.9816 40.3369 25.7633C39.4309 26.4895 38.6004 26.3564 37.0764 27.7174C36.1648 28.5295 35.6838 29.774 35.3399 32.069L35.3427 32.0746ZM40.2446 28.8815C39.8811 28.596 39.7525 28.4186 39.7525 27.7784C39.7525 27.4541 39.9818 27.1048 40.5383 26.7861C41.1814 26.4174 41.7071 25.7577 42.0259 24.9124C42.1937 24.4606 42.5041 24.5936 42.5041 25.0426C42.5041 26.2899 42.1406 27.2628 42.1406 28.2606C42.1406 29.1559 42.4034 30.09 42.8033 30.8661C43.2591 31.7503 43.8379 32.2464 44.7383 32.5652C45.3647 32.7869 45.8541 33.3163 45.8541 33.8152C45.8541 33.8624 45.8121 33.9012 45.7255 33.9012H43.7708C43.6562 33.9012 43.5415 33.8513 43.4884 33.7598C42.6803 32.3767 41.6764 31.0989 40.6361 30.1316C40.432 29.9403 40.3761 29.7629 40.418 29.2668C40.432 29.1033 40.3761 28.9868 40.2419 28.8815H40.2446ZM50.1381 49.3316C50.1381 49.4701 50.0234 49.5838 49.8836 49.5838H47.3529C47.1879 49.5838 47.0313 49.5034 46.9363 49.3676L41.7463 41.8811C41.7463 41.8811 41.7295 41.8672 41.7155 41.8727C41.7043 41.8755 41.6959 41.8922 41.6987 41.9005C41.7379 42.0501 41.7882 42.258 41.7882 42.355V49.3343C41.7882 49.4729 41.6736 49.5866 41.5338 49.5866H38.9667C38.8269 49.5866 38.7123 49.4729 38.7123 49.3343V37.2661C38.7123 37.1275 38.8269 37.0139 38.9667 37.0139C39.5987 37.0139 40.8654 37.0139 41.4974 37.0139C41.6624 37.0139 41.819 37.0942 41.9141 37.2301C43.2143 39.0982 47.104 44.7166 47.104 44.7166C47.1096 44.7249 47.1208 44.7304 47.1348 44.7249C47.146 44.7221 47.1544 44.7055 47.1516 44.6972C47.1124 44.5475 47.0621 44.3396 47.0621 44.2426V37.2633C47.0621 37.1247 47.1767 37.0111 47.3166 37.0111H49.8836C50.0234 37.0111 50.1381 37.1247 50.1381 37.2633V49.3316ZM63.4318 48.8825C62.1427 49.581 61.013 49.8 59.2093 49.8C55.1071 49.8 52.5681 47.3636 52.5681 43.2974C52.5681 39.4641 55.3001 36.7949 59.2093 36.7949C60.7697 36.7949 61.9469 37.0998 62.934 37.6597C63.0235 37.7096 63.0795 37.8038 63.0795 37.9036V40.6449C63.0795 40.7779 62.9257 40.85 62.8222 40.7668C61.9441 40.0794 60.6802 39.6082 59.3631 39.6082C57.1624 39.6082 55.837 41.0689 55.837 43.2947C55.837 45.5204 57.2911 47.0892 59.3631 47.0892C59.8944 47.0892 60.2496 47.0365 60.6131 46.9201C60.7837 45.7227 61.1276 44.5808 61.6142 43.5164C61.6757 43.3806 61.8127 43.2947 61.9609 43.2947H63.443C63.5828 43.2947 63.6974 43.4083 63.6974 43.5469V48.439C63.6974 48.6248 63.594 48.7938 63.4318 48.8825ZM65.4787 33.757C63.4262 32.0302 61.8435 30.3894 60.2859 28.28C59.9196 27.7867 60.1573 27.4125 59.4275 27.0826C59.0472 26.9108 58.8989 26.6835 58.8989 26.1874C58.8989 25.8936 58.6501 25.5554 57.8 25.1563C57.5204 25.026 57.4477 24.7904 57.5371 24.5271C57.7916 23.7732 58.267 23.2077 58.3956 22.9555C58.4292 22.8862 58.3844 22.8751 58.2782 22.8973C54.7101 23.7233 50.3646 28.9065 50.3646 31.1599C50.3646 31.8445 50.5351 32.349 50.8176 32.5347C51.2957 32.8451 52.2353 32.9699 52.2353 33.8097C52.2353 33.8596 52.1962 33.9012 52.1067 33.9012H50.3058C50.194 33.9012 50.0626 33.8596 49.9926 33.7792C49.6878 33.4355 49.1258 32.0857 49.1258 31.171C49.1258 29.3444 49.5816 28.4159 49.0307 27.0133C48.8741 26.6142 49.6767 26.2206 49.3439 25.9351C49.0251 25.6607 49.0167 25.4501 49.7074 24.6241C50.2919 23.9256 50.8959 22.8419 51.4971 21.3645C52.0452 20.0202 52.3639 19.7957 53.7537 19.9925C55.493 20.2364 58.9828 20.3611 61.6897 20.2447C61.8043 20.2392 61.8547 20.314 61.8155 20.411C61.2786 21.7969 61.2535 22.4815 61.6421 23.8757C62.4922 26.9441 64.2903 30.4032 65.7779 32.033C66.052 32.3324 66.1666 32.4044 66.9468 32.6955C67.6319 32.9505 67.9199 33.2027 67.9199 33.8263C67.9199 33.8762 67.8808 33.9012 67.8164 33.9012H65.7416C65.6549 33.9012 65.5766 33.8485 65.4731 33.7598L65.4787 33.757ZM74.7513 39.5251C74.7513 39.6637 74.6367 39.7773 74.4969 39.7773H69.2314V42.2275H73.4035C73.5517 42.2275 73.6692 42.355 73.6552 42.5019C73.5853 43.2531 73.4455 43.9821 73.2413 44.6861C73.2106 44.7942 73.1099 44.8663 72.998 44.8663H69.2286V49.3288C69.2286 49.4674 69.1139 49.581 68.9741 49.581H66.312C66.1722 49.581 66.0576 49.4674 66.0576 49.3288V37.2605C66.0576 37.122 66.1722 37.0083 66.312 37.0083H74.4941C74.6339 37.0083 74.7485 37.122 74.7485 37.2605V39.5223L74.7513 39.5251Z" fill="white"/>
</g>
<defs>
<clipPath id="clip0_156_17751">
<rect width="79.2647" height="55" fill="white" transform="translate(0.734375 0.870117)"/>
</clipPath>
</defs>
</svg>
