<svg width="149" height="56" viewBox="0 0 149 56" fill="none" xmlns="http://www.w3.org/2000/svg">
<g style="mix-blend-mode:luminosity" clip-path="url(#clip0_156_17738)">
<path d="M55.3748 19.0968H37.2306V0.878906H19.0821V19.0968H0.933594V37.3189H19.0821V55.5411H37.2306V37.3189H55.3748V19.0968Z" fill="white"/>
<path d="M100.71 24.0016C105.544 24.0016 109.279 20.3494 109.279 15.1492C109.279 9.949 105.655 6.29688 100.71 6.29688C95.7649 6.29688 92.1445 9.949 92.1445 15.1492C92.1445 20.3494 95.7649 24.0016 100.71 24.0016ZM100.71 9.22627C103.734 9.22627 105.983 11.3859 105.983 15.1492C105.983 18.9125 103.734 21.0679 100.71 21.0679C97.6858 21.0679 95.4412 18.9083 95.4412 15.1492C95.4412 11.3902 97.6858 9.22627 100.71 9.22627Z" fill="white"/>
<path d="M125.661 23.172C125.661 23.5013 125.823 23.6681 126.16 23.6681H128.298C128.63 23.6681 128.792 23.5013 128.792 23.172V1.37047C128.792 1.0369 128.63 0.870117 128.298 0.870117H126.104C125.772 0.870117 125.606 1.0369 125.606 1.37047V9.03822C124.52 7.40033 122.782 6.29271 120.167 6.29271C115.448 6.29271 112.096 9.89352 112.096 15.2007C112.096 20.5078 115.392 23.9974 120.056 23.9974C122.774 23.9974 124.558 22.8171 125.661 21.0851V23.172ZM120.444 21.068C117.424 21.068 115.392 18.9084 115.392 15.1493C115.392 11.3903 117.424 9.22639 120.444 9.22639C123.464 9.22639 125.717 11.386 125.717 15.1493C125.717 18.9126 123.468 21.068 120.444 21.068Z" fill="white"/>
<path d="M128.519 32.3018H125.998C125.666 32.3018 125.504 32.4685 125.504 32.8021V35.3466C125.504 35.6802 125.666 35.8384 125.998 35.8384H128.519C128.852 35.8384 129.013 35.6802 129.013 35.3466V32.8021C129.013 32.4685 128.852 32.3018 128.519 32.3018Z" fill="white"/>
<path d="M128.356 38.4941H126.158C125.826 38.4941 125.66 38.6609 125.66 38.9945V55.0399C125.66 55.3735 125.826 55.5402 126.158 55.5402H128.356C128.684 55.5402 128.846 55.3735 128.846 55.0399V38.9945C128.846 38.6609 128.68 38.4941 128.356 38.4941Z" fill="white"/>
<path d="M74.0133 23.668H76.2621C76.5943 23.668 76.7604 23.5012 76.7604 23.1676V15.0337H80.4958L86.3692 23.2788C86.5353 23.5012 86.7568 23.668 87.1401 23.668H89.7766C90.2706 23.668 90.326 23.2232 90.1045 22.9453L84.0139 14.4778C87.5235 13.7038 89.4997 11.2704 89.4997 8.00747C89.4997 3.13654 85.6026 0.865723 81.4839 0.865723H74.0175C73.6895 0.865723 73.5234 1.03678 73.5234 1.36607V23.1676C73.5234 23.5012 73.6895 23.668 74.0175 23.668H74.0133ZM76.7647 4.02178H81.2113C84.3972 4.02178 86.1563 5.51855 86.1563 8.00747C86.1563 10.4964 84.3972 11.9889 81.2113 11.9889H76.7647V4.02178Z" fill="white"/>
<path d="M120.307 38.4941H118.109C117.777 38.4941 117.619 38.6609 117.619 38.9945V48.1804C117.619 50.943 116.022 52.8803 113.283 52.8803C110.758 52.8803 109.109 51.221 109.109 48.1804V38.9945C109.109 38.6609 108.948 38.4941 108.615 38.4941H106.418C106.09 38.4941 105.928 38.6609 105.928 38.9945V48.7321C105.928 52.9359 108.726 55.8695 112.738 55.8695C115.102 55.8695 116.746 54.8688 117.679 53.2694V55.0399C117.679 55.3735 117.845 55.5402 118.173 55.5402H120.315C120.648 55.5402 120.809 55.3735 120.809 55.0399V38.9945C120.809 38.6609 120.643 38.4941 120.315 38.4941H120.307Z" fill="white"/>
<path d="M140.282 6.29248C135.942 6.29248 132.428 9.83769 132.428 15.1491C132.428 20.4605 135.942 24.0014 140.72 24.0014C143.625 24.0014 146.155 22.6757 147.361 20.9566C147.637 20.6273 147.467 20.4049 147.305 20.2381L146.044 18.9637C145.823 18.7414 145.601 18.7414 145.329 18.9637C144.839 19.4042 143.459 21.1234 140.776 21.1234C138.574 21.1234 136.201 19.8062 135.707 16.4748H147.522C148.021 16.4748 148.072 16.0899 148.072 15.3715C148.072 9.72651 144.946 6.29676 140.277 6.29676L140.282 6.29248ZM135.695 13.8191C136.116 10.5262 138.135 9.17056 140.282 9.17056C142.701 9.17056 144.566 10.8854 144.839 13.8191H135.69H135.695Z" fill="white"/>
<path d="M140.401 45.6361C138.314 45.0245 136.448 44.4729 136.448 42.9205C136.448 41.7616 137.547 41.0388 139.685 41.0388C141.824 41.0388 143.093 41.7616 143.97 42.2534C144.302 42.4201 144.575 42.2534 144.686 42.0395L145.503 40.376C145.67 39.9868 145.503 39.773 145.286 39.6618C143.749 38.8322 141.551 38.165 139.519 38.165C135.899 38.165 133.263 39.9911 133.263 43.1472C133.263 46.5213 136.338 47.5177 139.136 48.3431C141.385 49.0102 142.927 49.455 142.927 50.8876C142.927 52.0508 141.99 52.9874 139.409 52.9874C137.266 52.9874 136.005 52.3288 134.14 51.3324C133.808 51.1656 133.59 51.2212 133.424 51.5505L132.602 53.2097C132.492 53.4321 132.492 53.6545 132.709 53.8769C133.258 54.4328 136.227 55.8697 139.626 55.8697C143.523 55.8697 146.108 53.9325 146.108 50.7208C146.108 47.2355 143.089 46.4058 140.397 45.6318L140.401 45.6361Z" fill="white"/>
<path d="M81.4803 42.8091L90.2671 33.4649C90.4886 33.1869 90.4289 32.7465 89.9349 32.7465H87.2984C86.9151 32.7465 86.6425 32.9132 86.4764 33.1314L76.7569 43.489V33.2425C76.7569 32.909 76.5908 32.7422 76.2586 32.7422H74.0097C73.6817 32.7422 73.5156 32.909 73.5156 33.2425V55.0356C73.5156 55.3691 73.6817 55.5359 74.0097 55.5359H76.2586C76.5908 55.5359 76.7569 55.3691 76.7569 55.0356V47.6372L79.1676 45.0756L86.8597 55.1425C87.0258 55.3648 87.2942 55.5316 87.6818 55.5316H90.3182C90.8123 55.5316 90.8676 55.0869 90.6462 54.8089L81.4761 42.8048L81.4803 42.8091Z" fill="white"/>
<path d="M102.562 38.1611C99.7595 38.1611 97.451 39.7648 96.4075 42.4761V38.9951C96.4075 38.6615 96.2414 38.4947 95.9134 38.4947H93.7711C93.4388 38.4947 93.2812 38.6615 93.2812 38.9951V55.0405C93.2812 55.374 93.4388 55.5408 93.7711 55.5408H95.9688C96.2968 55.5408 96.4629 55.374 96.4629 55.0405V48.8994C96.4629 44.4176 98.8778 41.6508 102.558 41.6508C102.886 41.6508 103.052 41.484 103.052 41.1504V38.6615C103.052 38.3279 102.89 38.1611 102.558 38.1611H102.562Z" fill="white"/>
</g>
<defs>
<clipPath id="clip0_156_17738">
<rect width="147.143" height="55" fill="white" transform="translate(0.933594 0.870117)"/>
</clipPath>
</defs>
</svg>
