<svg width="168" height="59" viewBox="0 0 168 59" fill="none" xmlns="http://www.w3.org/2000/svg">
<g style="mix-blend-mode:luminosity" clip-path="url(#clip0_156_17638)">
<path d="M36.6715 37.3912C36.9875 37.2864 37.3032 37.1641 37.6071 37.036C37.9109 36.9021 38.2085 36.7506 38.4703 36.5644C39.0057 36.1918 39.427 35.6562 39.5883 35.0422C39.7106 34.5699 39.7479 34.3165 39.5579 33.8019C39.3373 33.2054 38.9646 32.6641 38.5107 32.2005L37.1602 30.7683C37.0524 30.6405 36.9617 30.4713 36.9589 30.2891C36.9563 30.1127 37.0008 29.9474 37.0515 29.7937C37.108 29.64 37.1762 29.4861 37.2505 29.3438C37.3249 29.2075 37.3756 29.0597 37.3558 28.913C37.3419 28.772 37.2576 28.6381 37.1443 28.5339C37.0309 28.4239 36.9001 28.3318 36.7577 28.2457C36.6212 28.1595 36.4729 28.0735 36.3304 27.9816C36.1937 27.8896 36.0394 27.7919 35.9485 27.6169C35.8814 27.4532 35.8669 27.2711 35.9056 27.1059C35.9384 26.9408 35.9773 26.7932 35.9926 26.6342C36.0078 26.4752 36.0055 26.3223 35.9914 26.1637C35.9844 26.0874 35.9714 26.0053 35.9644 25.9289C35.9514 25.8468 35.9386 25.7764 35.9081 25.7063C35.7922 25.4258 35.5476 25.1942 35.2976 24.9922C35.0416 24.7843 34.7684 24.6061 34.4835 24.4281C34.2044 24.25 33.9139 24.0897 33.6231 23.9176C33.4807 23.8316 33.3383 23.7455 33.1959 23.6594C33.0534 23.5675 32.9108 23.4755 32.7855 23.3539C32.7557 23.325 32.7199 23.2902 32.6957 23.2494C32.6897 23.2378 32.6837 23.232 32.6776 23.2144C32.6715 23.2028 32.6654 23.1852 32.6653 23.1793C32.6531 23.1501 32.6527 23.1207 32.6582 23.0971C32.6742 22.991 32.7261 22.9197 32.7779 22.8483C32.8876 22.7114 33.0094 22.5979 33.1313 22.4902C33.3808 22.2689 33.6304 22.0534 33.8681 21.8264C34.1058 21.5994 34.3317 21.3666 34.5158 21.0992C34.6942 20.8378 34.8309 20.5418 34.8204 20.2361C34.7865 19.9367 34.6413 19.6625 34.4263 19.4423C34.2112 19.2162 33.944 19.0438 33.6596 18.901C33.0907 18.6097 32.4646 18.425 31.8387 18.258C31.2129 18.091 28.6747 17.4528 28.0486 17.2682C26.8021 16.887 25.561 16.4763 24.3768 15.9355C24.0807 15.7988 23.7903 15.6503 23.5056 15.484C23.2267 15.3176 22.9534 15.1336 22.7206 14.9018C22.4878 14.6701 22.2955 14.3966 22.1735 14.1044C22.0455 13.8064 21.9703 13.4959 21.9011 13.1912C21.7683 12.5757 21.6299 11.9721 21.3802 11.3995C21.1306 10.8329 20.7581 10.3092 20.3569 9.82717C19.2911 8.55534 17.3145 7.33246 14.583 6.35026C6.18697 11.1395 0.584445 20.2561 0.740034 30.6211C0.839582 37.2528 3.28259 43.3024 7.26355 47.9941C10.4526 44.9825 14.4086 42.1357 18.8636 40.7987C25.3266 38.861 33.4067 38.4869 36.6715 37.3912Z" fill="white"/>
<path d="M23.005 10.2402C23.472 10.7977 24.1189 11.9759 24.2237 12.2977C24.8036 14.1002 26.0816 14.622 26.3833 14.741C27.6134 15.2047 28.9477 15.561 30.2755 15.8704C30.6118 15.9477 34.9824 16.823 35.4665 16.951C41.1588 18.1239 38.9705 21.5969 38.0021 22.5052C37.0452 23.4017 40.0004 23.6102 39.8663 26.035C39.8435 26.4763 40.0211 26.556 40.1695 26.6479C42.6984 28.2329 41.3307 29.1826 41.6601 29.9715C42.0384 30.8832 43.461 31.638 44.2934 33.031C45.1317 34.4238 46.1153 36.4849 44.3824 38.9572C43.916 39.6169 42.4691 40.7736 39.327 41.4323C38.6119 41.5842 32.5864 42.5038 26.6491 45.3803C23.1347 47.0855 21.1029 50.409 20.6257 51.9216C20.3228 52.8964 20.0086 53.9008 19.5922 56.324C22.4348 57.2633 25.4823 57.7527 28.6453 57.7052C43.8312 57.4773 55.9574 44.9815 55.7295 29.7956C55.5015 14.6097 43.0116 2.48339 27.8257 2.71135C23.5045 2.77621 19.4335 3.83701 15.8268 5.66706C19.5587 6.69305 21.7357 8.73619 23.0051 10.2461L23.005 10.2402Z" fill="white"/>
<path d="M66.0296 17.0444C66.616 16.9357 67.2855 16.8786 68.0321 16.8674C68.3261 16.863 68.6201 16.8644 68.9203 16.8776C69.2204 16.8907 69.5149 16.9274 69.804 16.9878L71.589 30.1333L75.3304 16.9048C75.6589 16.8529 75.9582 16.8072 76.24 16.7794C76.516 16.7518 76.8039 16.7357 77.092 16.7314C77.5799 16.724 78.1039 16.7632 78.6639 16.8548L81.0596 30.3322L84.3079 16.7701C84.8179 16.6624 85.3404 16.6076 85.8754 16.5995C86.1988 16.5947 86.5165 16.6075 86.8227 16.6323C87.1289 16.6572 87.4233 16.688 87.7178 16.7189L82.5424 34.3087C81.9501 34.4176 81.3453 34.4737 80.7103 34.4832C80.0754 34.4927 79.4221 34.4555 78.6974 34.3664L76.5411 22.7319L72.8829 34.4537C72.4895 34.489 72.1431 34.5295 71.8438 34.5693C71.5385 34.6032 71.2096 34.6258 70.8568 34.6311C70.3512 34.6387 69.8155 34.5997 69.232 34.5085L66.0296 17.0444Z" fill="white"/>
<path d="M90.3066 28.9529C90.3212 29.9288 90.6199 30.63 91.2143 31.0562C91.8088 31.4825 92.6058 31.694 93.6111 31.6789C94.1638 31.6706 94.7274 31.6092 95.3137 31.4946C95.8942 31.38 96.4505 31.2246 96.9825 31.0167C97.1461 31.3377 97.2754 31.7239 97.3822 32.1809C97.4889 32.6321 97.5315 33.1196 97.5217 33.6372C96.2297 34.1447 94.787 34.4074 93.1997 34.4313C92.0297 34.4488 91.0395 34.299 90.2175 33.9879C89.4013 33.6768 88.7419 33.2339 88.2453 32.665C87.7487 32.0962 87.3973 31.4134 87.1914 30.6227C86.9855 29.8319 86.9078 28.9628 86.9583 28.0211C87.0091 27.0971 87.1901 26.2241 87.4895 25.4081C87.7948 24.592 88.2193 23.88 88.7629 23.272C89.3065 22.664 89.9638 22.1778 90.7405 21.8192C91.5172 21.4606 92.4023 21.2709 93.4135 21.2557C94.2895 21.2426 95.062 21.3839 95.7251 21.6856C96.3883 21.9873 96.9472 22.3964 97.3962 22.9248C97.8451 23.4532 98.1722 24.0893 98.3714 24.8213C98.5765 25.5592 98.653 26.346 98.6069 27.1935C98.5939 27.4995 98.5632 27.8057 98.5207 28.1063C98.4781 28.4068 98.4406 28.6485 98.3962 28.8256L90.3123 28.9469L90.3066 28.9529ZM95.3794 26.4657C95.3911 25.6835 95.2113 25.0628 94.8396 24.5862C94.4679 24.1155 93.9234 23.8825 93.212 23.8932C92.4007 23.9054 91.7692 24.1442 91.3233 24.6037C90.8774 25.0632 90.5872 25.7085 90.4644 26.5395L95.3794 26.4657Z" fill="white"/>
<path d="M110.518 16.0885C111.111 15.9797 111.686 15.924 112.256 15.9154C112.827 15.9069 113.374 15.9457 113.952 16.037L113.25 28.8317C113.222 29.3379 113.228 29.7435 113.268 30.0487C113.308 30.3598 113.382 30.5939 113.497 30.7627C113.611 30.9315 113.76 31.0469 113.949 31.1087C114.138 31.1706 114.379 31.2022 114.673 31.1978C114.803 31.1959 114.944 31.1879 115.102 31.1679C115.255 31.1479 115.407 31.1221 115.554 31.0905C115.693 31.7529 115.75 32.4048 115.712 33.0346C115.708 33.164 115.698 33.2818 115.694 33.3877C115.69 33.4936 115.668 33.6115 115.629 33.7415C115.365 33.8278 115.049 33.8855 114.685 33.9262C114.315 33.9612 113.98 33.9838 113.674 33.9884C112.422 34.0072 111.441 33.675 110.725 32.9977C110.009 32.3205 109.692 31.1962 109.775 29.6366L110.518 16.0885Z" fill="white"/>
<path d="M124.443 25.3998C124.466 25.0113 124.415 24.6946 124.299 24.4493C124.184 24.21 124.016 24.0184 123.797 23.8865C123.577 23.7545 123.305 23.6645 122.969 23.6166C122.639 23.5745 122.269 23.5566 121.863 23.5627C120.987 23.5758 120.043 23.7605 119.037 24.1167C118.831 23.6964 118.684 23.3046 118.59 22.9297C118.496 22.5606 118.466 22.1141 118.493 21.5904C119.219 21.3384 119.945 21.1452 120.666 21.0226C121.388 20.9 122.057 20.8312 122.675 20.8219C124.362 20.7966 125.661 21.1828 126.561 21.9808C127.467 22.7788 127.869 24.0723 127.772 25.8614L127.37 33.1711C126.791 33.3562 126.094 33.5372 125.273 33.7141C124.453 33.8911 123.531 33.9814 122.508 33.9968C121.679 34.0092 120.925 33.9499 120.247 33.8131C119.563 33.6764 118.989 33.4439 118.507 33.11C118.032 32.7761 117.673 32.3463 117.435 31.8089C117.198 31.2773 117.1 30.6202 117.141 29.8433C117.182 29.0606 117.384 28.4049 117.747 27.8761C118.109 27.3414 118.561 26.9112 119.109 26.5913C119.651 26.2656 120.254 26.0331 120.91 25.8821C121.566 25.737 122.218 25.6567 122.871 25.6469C123.341 25.6398 123.859 25.6556 124.424 25.6941L124.437 25.3999L124.443 25.3998ZM124.31 27.9069C124.115 27.8804 123.903 27.8542 123.68 27.834C123.456 27.8139 123.25 27.8052 123.073 27.8079C122.274 27.8199 121.641 27.9705 121.163 28.2599C120.685 28.5494 120.428 29.0119 120.396 29.6475C120.373 30.0712 120.443 30.3936 120.611 30.6204C120.779 30.8472 120.981 31.0089 121.23 31.111C121.478 31.2131 121.738 31.2739 122.02 31.2932C122.303 31.3124 122.55 31.3205 122.762 31.3173C123.003 31.3137 123.249 31.2865 123.496 31.2475C123.742 31.2026 123.953 31.1642 124.135 31.1262L124.31 27.9069Z" fill="white"/>
<path d="M131.109 20.9899C131.337 20.9394 131.566 20.9007 131.795 20.8679C132.024 20.8409 132.277 20.8253 132.553 20.8212C132.829 20.817 133.071 20.8252 133.283 20.8455C133.489 20.866 133.707 20.898 133.931 20.9475C133.973 21.0292 134.016 21.1462 134.048 21.2986C134.08 21.451 134.106 21.6153 134.132 21.7854C134.152 21.9557 134.172 22.12 134.186 22.2844C134.2 22.4489 134.214 22.5839 134.222 22.6955C134.4 22.4459 134.602 22.2017 134.846 21.957C135.089 21.7122 135.362 21.4847 135.677 21.2859C135.985 21.0872 136.33 20.9233 136.716 20.794C137.096 20.6648 137.513 20.5997 137.965 20.5929C139.394 20.5715 140.446 20.9438 141.128 21.7157C141.81 22.4875 142.099 23.7064 142.013 25.3777L141.575 33.4229C140.988 33.5317 140.407 33.5875 139.837 33.596C139.266 33.6046 138.695 33.5661 138.118 33.4748L138.511 26.3594C138.556 25.4825 138.464 24.8076 138.222 24.3408C137.979 23.874 137.529 23.6456 136.859 23.6556C136.583 23.6598 136.295 23.7053 136.002 23.792C135.71 23.8787 135.436 24.0416 135.186 24.2806C134.937 24.5195 134.73 24.8519 134.56 25.2779C134.39 25.7038 134.287 26.2581 134.25 26.9408L133.885 33.5442C133.298 33.653 132.717 33.7088 132.147 33.7173C131.576 33.7259 131.005 33.6874 130.428 33.5961L131.121 20.9956L131.109 20.9899Z" fill="white"/>
<path d="M152.872 15.4527C153.165 15.4012 153.458 15.3615 153.74 15.3396C154.028 15.3177 154.304 15.3077 154.581 15.3035C154.857 15.2994 155.139 15.3069 155.433 15.3142C155.728 15.3275 156.016 15.3525 156.305 15.4011L155.349 32.8041C154.57 33.0451 153.791 33.2274 152.993 33.3628C152.202 33.4982 151.244 33.5714 150.121 33.5882C149.263 33.6011 148.444 33.4958 147.67 33.2722C146.896 33.0486 146.221 32.6824 145.649 32.1794C145.076 31.6764 144.637 31.0243 144.331 30.2115C144.025 29.4046 143.91 28.4184 143.969 27.2473C144.02 26.3233 144.218 25.4441 144.565 24.6216C144.911 23.799 145.377 23.0804 145.973 22.4717C146.564 21.863 147.268 21.3761 148.086 21.0169C148.898 20.6577 149.795 20.4679 150.771 20.4532C151.065 20.4488 151.365 20.4561 151.683 20.4748C152 20.4936 152.301 20.542 152.585 20.62L152.872 15.4527ZM152.442 23.2743C152.123 23.1967 151.864 23.1477 151.658 23.1273C151.458 23.1068 151.199 23.0989 150.893 23.1035C150.358 23.1115 149.883 23.2304 149.475 23.4541C149.067 23.6778 148.719 23.977 148.442 24.3458C148.165 24.7145 147.948 25.1471 147.803 25.6432C147.651 26.1394 147.565 26.6582 147.532 27.1938C147.495 27.8589 147.55 28.4226 147.681 28.8852C147.817 29.3477 148.017 29.7093 148.291 29.9816C148.56 30.2539 148.886 30.4489 149.27 30.5667C149.654 30.6785 150.073 30.7369 150.525 30.7301C150.802 30.726 151.054 30.7104 151.283 30.6835C151.512 30.6565 151.764 30.5998 152.045 30.5133L152.442 23.2743Z" fill="white"/>
<path d="M161.123 27.6488C160.225 27.4036 159.538 27.0258 159.054 26.5214C158.57 26.0171 158.358 25.2558 158.414 24.2318C158.483 22.9958 158.974 22.024 159.899 21.3104C160.823 20.5967 162.047 20.2314 163.569 20.2086C164.204 20.199 164.822 20.2485 165.436 20.3511C166.049 20.4536 166.663 20.6149 167.283 20.8349C167.225 21.2592 167.12 21.6959 166.968 22.1569C166.81 22.6121 166.64 23.0145 166.439 23.3586C166.06 23.1996 165.635 23.0649 165.169 22.9543C164.703 22.8378 164.214 22.7863 163.696 22.7941C163.144 22.8024 162.71 22.8912 162.395 23.0723C162.074 23.2477 161.908 23.5207 161.89 23.8973C161.872 24.2563 161.964 24.5078 162.178 24.6457C162.386 24.7896 162.693 24.9202 163.089 25.0437L164.453 25.4348C164.902 25.5574 165.304 25.7102 165.66 25.893C166.015 26.0759 166.313 26.3007 166.558 26.5734C166.803 26.8461 166.985 27.1845 167.114 27.5883C167.238 27.9922 167.287 28.4854 167.248 29.074C167.216 29.6743 167.06 30.2412 166.78 30.7629C166.499 31.2846 166.112 31.7432 165.612 32.1329C165.113 32.5227 164.517 32.8315 163.821 33.0595C163.131 33.2875 162.35 33.4109 161.492 33.4238C161.104 33.4296 160.745 33.4233 160.421 33.4046C160.098 33.3859 159.791 33.3494 159.491 33.2951C159.19 33.2408 158.901 33.1804 158.612 33.1025C158.322 33.0245 158.015 32.9232 157.678 32.7989C157.736 32.3629 157.835 31.9145 157.981 31.4654C158.127 31.0163 158.309 30.5784 158.526 30.1576C159.053 30.3614 159.549 30.5127 160.021 30.6115C160.493 30.7103 160.993 30.7557 161.511 30.7479C161.74 30.7445 161.986 30.7172 162.256 30.6779C162.526 30.6327 162.778 30.5583 163.011 30.449C163.245 30.3396 163.443 30.2014 163.605 30.0285C163.767 29.8555 163.858 29.6307 163.871 29.3541C163.895 28.9656 163.791 28.6849 163.565 28.5178C163.339 28.3506 163.019 28.2084 162.605 28.0794L161.117 27.6607L161.123 27.6488Z" fill="white"/>
<path d="M107.698 21.3408L104.752 21.385L104.956 17.7067L104.397 17.7151L101.353 21.3949L101.354 21.4419L99.8903 21.4639C99.8295 21.7236 99.786 21.9594 99.7539 22.1716C99.7277 22.3837 99.7074 22.6016 99.6932 22.8311C99.6788 23.0431 99.6759 23.243 99.6848 23.4428C99.6877 23.6369 99.7086 23.8541 99.7476 24.1005L101.2 24.0787L100.885 29.7816C100.803 31.3412 101.126 32.4595 101.871 33.1423C102.61 33.8192 103.721 34.1495 105.196 34.1273C105.99 34.1154 106.765 34.0156 107.526 33.8218C107.548 33.7098 107.564 33.5919 107.58 33.4682C107.596 33.3445 107.605 33.1973 107.614 33.0149C107.628 32.7559 107.623 32.4561 107.589 32.1273C107.561 31.7984 107.497 31.4759 107.398 31.1716C107.217 31.2038 107.006 31.2481 106.771 31.2928C106.536 31.3375 106.296 31.3587 106.049 31.3624C105.737 31.3671 105.472 31.3417 105.248 31.2745C105.023 31.2132 104.839 31.0924 104.695 30.9182C104.552 30.7439 104.448 30.4985 104.385 30.1937C104.321 29.8888 104.303 29.4834 104.331 28.9772L104.604 24.0276L107.549 23.9834C107.61 23.7238 107.654 23.4879 107.686 23.2757C107.712 23.0636 107.732 22.8457 107.746 22.6162C107.761 22.4043 107.764 22.2043 107.755 22.0045C107.752 21.8105 107.725 21.5933 107.692 21.3468L107.698 21.3408Z" fill="white"/>
<path d="M69.7041 40.1124C69.6393 40.1016 69.5745 40.0967 69.5039 40.0918C69.3626 40.0822 69.2274 40.0842 69.0864 40.0981C69.0159 40.0992 68.9455 40.112 68.881 40.1247C68.8283 40.1373 68.7936 40.1789 68.7885 40.2319L68.4836 45.776C68.4845 45.8347 68.5206 45.8871 68.5796 45.898C68.6385 45.9089 68.7033 45.9138 68.7798 45.9185C68.8504 45.9175 68.921 45.9223 68.9915 45.9212C69.068 45.9201 69.1385 45.919 69.209 45.9121C69.2795 45.911 69.344 45.8983 69.4085 45.8856C69.4613 45.873 69.5018 45.8312 69.501 45.7783L69.8059 40.2343C69.805 40.1755 69.7689 40.1231 69.71 40.1123L69.7041 40.1124Z" fill="white"/>
<path d="M76.4997 40.0099C76.4408 39.999 76.376 39.9941 76.3113 39.9892C76.17 39.9796 76.0465 39.9814 75.9174 39.9951C75.8468 39.9962 75.7764 40.009 75.7119 40.0217C75.6592 40.0343 75.6187 40.0761 75.6195 40.129L75.4112 43.8839L73.4142 40.1209C73.3961 40.0918 73.3663 40.0687 73.331 40.0634C73.272 40.0525 73.2072 40.0476 73.1366 40.0428C73.0012 40.033 72.8895 40.0347 72.7545 40.0485C72.6839 40.0496 72.6194 40.0623 72.5608 40.0749C72.5081 40.0875 72.4734 40.1292 72.4683 40.1822L72.1634 45.7262C72.1643 45.785 72.2003 45.8315 72.2534 45.8424C72.3065 45.8534 72.3712 45.8583 72.4419 45.8631C72.5714 45.8729 72.7066 45.8709 72.8475 45.857C72.9181 45.856 72.9826 45.8432 73.0412 45.8306C73.0939 45.8181 73.1286 45.7764 73.1337 45.7234L73.3364 41.9921L75.3391 45.7373C75.3571 45.7664 75.3869 45.7895 75.4222 45.7949C75.4812 45.8057 75.546 45.8106 75.6166 45.8155C75.6813 45.8145 75.746 45.8194 75.8048 45.8185C75.8636 45.8176 75.9283 45.8167 75.9988 45.8097C76.0693 45.8087 76.1338 45.7959 76.1924 45.7833C76.2452 45.7707 76.2798 45.7291 76.2849 45.6761L76.5898 40.1321C76.5889 40.0733 76.5528 40.0209 76.4939 40.01L76.4997 40.0099Z" fill="white"/>
<path d="M82.5735 39.9188L78.899 39.974C78.8461 39.9748 78.8055 40.0107 78.7885 40.058C78.7717 40.1112 78.7609 40.176 78.7559 40.2349C78.7451 40.2997 78.7401 40.3586 78.7351 40.4175C78.736 40.4763 78.737 40.541 78.738 40.6056C78.7389 40.6703 78.7399 40.735 78.7524 40.7877C78.7592 40.8464 78.8069 40.8869 78.8657 40.886L80.1885 40.8661L79.9302 45.5979C79.9311 45.6567 79.973 45.709 80.032 45.7199C80.1616 45.7356 80.2969 45.7394 80.4439 45.7372C80.5909 45.735 80.7201 45.7272 80.8433 45.7077C80.8961 45.701 80.9366 45.6534 80.9417 45.6004L81.1997 40.8509L82.5343 40.8309C82.5872 40.8301 82.6278 40.7942 82.6447 40.7469C82.6557 40.6938 82.6724 40.6289 82.6772 40.5583C82.688 40.4934 82.6929 40.4287 82.6979 40.3698C82.697 40.311 82.6961 40.2522 82.6952 40.1934C82.6943 40.1346 82.6935 40.0758 82.6809 40.0231C82.6741 39.9644 82.6265 39.9239 82.5677 39.9248L82.5735 39.9188Z" fill="white"/>
<path d="M88.0354 39.8374L84.99 39.8831C84.9312 39.884 84.879 39.9318 84.8799 39.9906L84.575 45.5346C84.5754 45.564 84.5818 45.5992 84.6057 45.6224C84.6295 45.6455 84.6591 45.6569 84.6885 45.6564L87.7986 45.6097C87.8515 45.6089 87.898 45.573 87.9091 45.5257C87.9258 45.4667 87.9308 45.4078 87.9415 45.3371C87.9464 45.2723 87.9514 45.2134 87.9564 45.1546C87.9663 45.0309 87.9645 44.9075 87.951 44.7959C87.9502 44.7371 87.8965 44.6909 87.8377 44.6918L85.6389 44.7248L85.7315 43.0592L87.4306 43.0337C87.4835 43.0329 87.5242 42.997 87.5411 42.9497C87.5579 42.8966 87.5687 42.8317 87.5736 42.7669C87.5844 42.7021 87.5893 42.6373 87.5943 42.5785C87.5934 42.5197 87.5925 42.455 87.5916 42.3962C87.5906 42.3315 87.5897 42.2727 87.5772 42.22C87.5704 42.1613 87.5228 42.1209 87.464 42.1217L85.7825 42.147L85.8562 40.7875L88.0139 40.7551C88.0668 40.7543 88.1074 40.7184 88.1243 40.6711C88.1411 40.612 88.152 40.5531 88.1568 40.4824C88.1617 40.4177 88.1667 40.3588 88.1717 40.2999C88.1816 40.1763 88.1797 40.0528 88.1663 39.9413C88.1654 39.8825 88.1118 39.8363 88.053 39.8371L88.0354 39.8374Z" fill="white"/>
<path d="M92.8302 43.1347C92.9586 43.068 93.0868 42.9897 93.2206 42.8936C93.366 42.7914 93.4936 42.6719 93.6092 42.5349C93.7247 42.3979 93.8223 42.2377 93.902 42.066C93.9817 41.8883 94.0316 41.6877 94.0402 41.4758C94.0584 41.1227 94.0069 40.8236 93.8858 40.5902C93.7647 40.3568 93.5913 40.1712 93.3834 40.0332C93.1756 39.9011 92.9391 39.8105 92.6677 39.7558C92.4083 39.7068 92.1375 39.6873 91.867 39.6914C91.7494 39.6931 91.6377 39.6948 91.5379 39.7022C91.4379 39.7037 91.344 39.7169 91.2501 39.7242C91.1561 39.7315 91.0681 39.7445 90.9742 39.7577C90.8803 39.7709 90.7805 39.7841 90.6689 39.7917C90.6101 39.7926 90.5698 39.8461 90.5647 39.8991L90.2599 45.449C90.2608 45.5078 90.2968 45.5602 90.3558 45.571C90.4206 45.5818 90.4913 45.5867 90.5678 45.5914C90.7148 45.5892 90.8324 45.5933 90.9793 45.5852C91.0499 45.5841 91.1144 45.5714 91.1731 45.5647C91.226 45.5639 91.2723 45.5161 91.2773 45.4572L91.5457 40.6136C91.5986 40.6128 91.6513 40.6002 91.6984 40.5995C91.7689 40.5985 91.8511 40.5913 91.9334 40.5901C92.2744 40.585 92.5402 40.6633 92.7249 40.8193C92.9095 40.9753 92.9836 41.2094 92.9651 41.5449C92.956 41.7214 92.9054 41.8751 92.8249 41.9998C92.7387 42.1305 92.6286 42.2438 92.5066 42.3398C92.3787 42.4358 92.2387 42.5143 92.0926 42.5753C91.9406 42.6364 91.7944 42.6856 91.6597 42.723L91.5953 42.7416C91.5484 42.754 91.5137 42.7957 91.5086 42.8428L91.509 42.8722C91.509 42.8722 91.5097 42.9193 91.5218 42.9426L93.1595 45.4819C93.1595 45.4819 93.2072 45.5282 93.2426 45.5336C93.3839 45.5491 93.531 45.5528 93.6721 45.5507C93.8485 45.548 94.013 45.5397 94.1538 45.5199C94.195 45.5193 94.2239 45.4895 94.241 45.4539C94.2581 45.4184 94.2575 45.3772 94.2394 45.3422L92.8243 43.1347L92.8302 43.1347Z" fill="white"/>
<path d="M100.734 39.6466C100.675 39.6358 100.61 39.6308 100.546 39.6259C100.404 39.6163 100.281 39.6182 100.152 39.6319C100.081 39.6329 100.011 39.6457 99.9463 39.6585C99.8936 39.671 99.853 39.7128 99.8538 39.7657L99.6456 43.5206L97.6485 39.7576C97.6305 39.7285 97.6007 39.7054 97.5653 39.7001C97.5064 39.6892 97.4416 39.6843 97.371 39.6795C97.2356 39.6697 97.1239 39.6714 96.9888 39.6852C96.9183 39.6863 96.8538 39.699 96.7952 39.7116C96.7424 39.7242 96.7078 39.7659 96.7027 39.8189L96.3978 45.3629C96.3987 45.4217 96.4347 45.4682 96.4878 45.4791C96.5408 45.4901 96.6056 45.495 96.6762 45.4998C96.8058 45.5097 96.941 45.5076 97.0819 45.4937C97.1525 45.4927 97.2169 45.48 97.2756 45.4673C97.3283 45.4548 97.363 45.4131 97.368 45.3601L97.5708 41.6288L99.5734 45.374C99.5915 45.4032 99.6213 45.4262 99.6566 45.4316C99.7156 45.4425 99.7804 45.4474 99.851 45.4522C99.9215 45.4511 99.9804 45.4561 100.039 45.4552C100.098 45.4544 100.163 45.4534 100.233 45.4464C100.304 45.4454 100.368 45.4327 100.427 45.42C100.48 45.4075 100.514 45.3658 100.519 45.3128L100.824 39.7688C100.823 39.71 100.787 39.6576 100.728 39.6467L100.734 39.6466Z" fill="white"/>
<path d="M105.879 39.6576C105.867 39.6166 105.831 39.5819 105.784 39.5767C105.707 39.5661 105.631 39.5614 105.554 39.5566C105.383 39.5474 105.225 39.5498 105.078 39.5638C104.996 39.565 104.919 39.5779 104.849 39.5907C104.808 39.5914 104.779 39.6271 104.762 39.6626L102.652 45.2337C102.641 45.2633 102.641 45.2986 102.654 45.3278C102.672 45.3569 102.701 45.38 102.731 45.3854C102.79 45.3963 102.855 45.4012 102.931 45.4059C103.072 45.4156 103.213 45.4135 103.36 45.3995C103.431 45.3984 103.501 45.3856 103.572 45.3728C103.613 45.3722 103.647 45.3364 103.659 45.3009L104.082 44.0891L106.022 44.06L106.316 45.2493C106.328 45.2961 106.364 45.325 106.411 45.3361C106.476 45.3468 106.547 45.3517 106.617 45.3565C106.688 45.3554 106.759 45.3602 106.829 45.3592C106.906 45.358 106.982 45.3569 107.064 45.3498C107.147 45.3485 107.217 45.3357 107.281 45.323C107.311 45.3226 107.34 45.2986 107.357 45.2689C107.374 45.2452 107.38 45.2098 107.373 45.1805L105.879 39.6635L105.879 39.6576ZM105.796 43.146L104.415 43.1667L105.232 40.8375L105.802 43.1459L105.796 43.146Z" fill="white"/>
<path d="M112.615 39.4676L108.941 39.5228C108.888 39.5236 108.847 39.5595 108.83 39.6068C108.813 39.66 108.803 39.7248 108.798 39.7837C108.787 39.8485 108.782 39.9074 108.777 39.9663C108.778 40.0251 108.773 40.0898 108.78 40.1544C108.781 40.2191 108.782 40.2838 108.794 40.3365C108.801 40.3952 108.854 40.4356 108.907 40.4348L110.23 40.4149L109.972 45.1467C109.973 45.2055 110.015 45.2578 110.074 45.2687C110.203 45.2844 110.339 45.2882 110.486 45.286C110.633 45.2838 110.762 45.276 110.885 45.2565C110.938 45.2498 110.978 45.2022 110.983 45.1492L111.241 40.3997L112.582 40.3796C112.635 40.3788 112.675 40.3429 112.692 40.2956C112.703 40.2425 112.72 40.1776 112.725 40.107C112.736 40.0421 112.74 39.9774 112.745 39.9185C112.745 39.8597 112.744 39.8009 112.743 39.7421C112.742 39.6833 112.741 39.6245 112.728 39.5718C112.722 39.5131 112.674 39.4726 112.615 39.4735L112.615 39.4676Z" fill="white"/>
<path d="M115.837 39.42C115.772 39.4092 115.707 39.4043 115.637 39.3995C115.495 39.3898 115.36 39.3918 115.219 39.4057C115.149 39.4068 115.078 39.4196 115.014 39.4323C114.961 39.4449 114.921 39.4867 114.921 39.5396L114.616 45.0836C114.617 45.1424 114.653 45.1947 114.712 45.2056C114.771 45.2165 114.836 45.2214 114.913 45.2261C114.983 45.2251 115.054 45.2299 115.124 45.2288C115.201 45.2277 115.271 45.2266 115.336 45.2198C115.406 45.2187 115.471 45.206 115.535 45.1933C115.588 45.1807 115.629 45.1389 115.628 45.086L115.933 39.542C115.932 39.4832 115.896 39.4308 115.837 39.42Z" fill="white"/>
<path d="M122.687 40.087C122.495 39.8194 122.25 39.6114 121.948 39.463C121.646 39.3147 121.286 39.2436 120.869 39.2499C120.452 39.2561 120.082 39.3381 119.767 39.4958C119.452 39.6534 119.185 39.8632 118.965 40.137C118.752 40.4048 118.58 40.725 118.462 41.0854C118.344 41.4459 118.273 41.841 118.25 42.2647C118.227 42.6885 118.257 43.0879 118.333 43.4396C118.409 43.803 118.549 44.1185 118.735 44.3803C118.927 44.6479 119.171 44.856 119.473 44.9984C119.775 45.1409 120.135 45.212 120.553 45.2057C120.97 45.1994 121.339 45.1174 121.655 44.9657C121.97 44.8139 122.237 44.5982 122.457 44.3303C122.67 44.0625 122.842 43.7424 122.954 43.382C123.066 43.0216 123.137 42.6265 123.16 42.2028C123.183 41.779 123.159 41.3854 123.083 41.0278C123.007 40.6644 122.873 40.3488 122.687 40.087ZM120.586 44.2996C120.351 44.3031 120.144 44.2592 119.984 44.1734C119.824 44.0876 119.687 43.9544 119.585 43.7854C119.482 43.6105 119.402 43.3941 119.357 43.1419C119.312 42.8839 119.296 42.5901 119.315 42.2605C119.333 41.9368 119.376 41.6421 119.454 41.3763C119.527 41.1165 119.629 40.8974 119.756 40.7191C119.877 40.5467 120.028 40.4092 120.209 40.3124C120.384 40.2216 120.595 40.1713 120.83 40.1678C121.065 40.1643 121.272 40.2082 121.432 40.294C121.598 40.3798 121.729 40.513 121.831 40.6762C121.934 40.851 122.014 41.0674 122.059 41.3196C122.104 41.5777 122.12 41.8773 122.101 42.1952C122.083 42.5247 122.034 42.8195 121.961 43.0793C121.889 43.3333 121.786 43.5524 121.66 43.7366C121.539 43.9148 121.382 44.0524 121.207 44.1433C121.032 44.24 120.821 44.2843 120.58 44.2879L120.586 44.2996Z" fill="white"/>
<path d="M129.806 39.2101C129.747 39.1992 129.683 39.1943 129.618 39.1894C129.477 39.1798 129.353 39.1816 129.224 39.1953C129.153 39.1964 129.083 39.2092 129.019 39.2219C128.966 39.2345 128.925 39.2763 128.926 39.3292L128.718 43.0841L126.721 39.3211C126.703 39.292 126.673 39.2689 126.638 39.2636C126.579 39.2527 126.514 39.2478 126.443 39.243C126.308 39.2332 126.202 39.2348 126.061 39.2487C125.991 39.2497 125.926 39.2625 125.867 39.2751C125.815 39.2877 125.78 39.3294 125.775 39.3824L125.47 44.9264C125.471 44.9852 125.507 45.0317 125.56 45.0426C125.613 45.0536 125.678 45.0585 125.749 45.0633C125.878 45.0731 126.013 45.0711 126.154 45.0572C126.225 45.0562 126.289 45.0434 126.348 45.0308C126.401 45.0182 126.435 44.9766 126.44 44.9236L126.643 41.1923L128.646 44.9375C128.664 44.9666 128.694 44.9897 128.729 44.9951C128.788 45.0059 128.853 45.0108 128.923 45.0157C128.994 45.0146 129.053 45.0196 129.111 45.0187C129.17 45.0178 129.235 45.0169 129.305 45.0099C129.376 45.0089 129.44 44.9961 129.499 44.9835C129.552 44.9709 129.586 44.9293 129.592 44.8763L129.896 39.3322C129.896 39.2735 129.859 39.2211 129.801 39.2102L129.806 39.2101Z" fill="white"/>
<path d="M134.953 39.2211C134.94 39.1801 134.905 39.1454 134.857 39.1402C134.787 39.1295 134.704 39.1248 134.628 39.1201C134.457 39.1109 134.298 39.1133 134.152 39.1273C134.069 39.1285 133.993 39.1414 133.923 39.1542C133.881 39.1548 133.847 39.1906 133.835 39.2261L131.726 44.7972C131.714 44.8268 131.715 44.862 131.733 44.8912C131.751 44.9203 131.781 44.9434 131.81 44.9488C131.869 44.9597 131.934 44.9646 132.011 44.9693C132.152 44.979 132.293 44.9769 132.44 44.9629C132.51 44.9618 132.581 44.949 132.651 44.9362C132.692 44.9356 132.727 44.8998 132.738 44.8643L133.161 43.6525L135.095 43.6234L135.389 44.8128C135.402 44.8596 135.438 44.8885 135.485 44.8995C135.55 44.9103 135.62 44.9151 135.691 44.92C135.762 44.9189 135.832 44.9237 135.903 44.9227C135.979 44.9215 136.056 44.9204 136.138 44.9133C136.22 44.912 136.29 44.8992 136.361 44.8864C136.39 44.8859 136.419 44.862 136.436 44.8323C136.454 44.8086 136.459 44.7732 136.453 44.7439L134.959 39.2269L134.953 39.2211ZM134.87 42.7095L133.488 42.7302L134.306 40.401L134.876 42.7094L134.87 42.7095Z" fill="white"/>
<path d="M141.797 43.9751C141.79 43.9164 141.742 43.8759 141.683 43.8768L139.626 43.9077L139.884 39.1818C139.883 39.123 139.847 39.0706 139.788 39.0597C139.723 39.0489 139.658 39.044 139.588 39.0392C139.447 39.0296 139.3 39.0318 139.165 39.0455C139.094 39.0466 139.029 39.0593 138.971 39.072C138.918 39.0845 138.883 39.1262 138.878 39.1792L138.573 44.7232C138.574 44.7526 138.58 44.7878 138.604 44.811C138.628 44.8341 138.658 44.8454 138.687 44.845L141.644 44.8006C141.697 44.7998 141.744 44.7638 141.755 44.7108C141.776 44.5987 141.792 44.475 141.796 44.3455C141.795 44.2926 141.8 44.2337 141.799 44.1691C141.798 44.1044 141.798 44.0397 141.791 43.9751L141.797 43.9751Z" fill="white"/>
</g>
<defs>
<clipPath id="clip0_156_17638">
<rect width="166.67" height="55" fill="white" transform="translate(0.328125 3.12402) rotate(-0.86)"/>
</clipPath>
</defs>
</svg>
