<svg width="16" height="32" viewBox="0 0 16 32" fill="none" xmlns="http://www.w3.org/2000/svg">
<path fill-rule="evenodd" clip-rule="evenodd" d="M14.9218 15.4163C15.451 13.8981 15.451 12.0498 15.451 10.5315V10.3335C15.451 10.1355 15.451 9.80541 15.1864 9.67339C14.9218 9.47536 14.6572 9.60738 14.3265 9.80541C13.5592 10.1407 12.3744 11.0662 11.4027 13.5119C11.3438 12.8643 11.2559 12.2452 11.1487 11.6596C12.4155 10.8728 13.2331 9.7592 13.5989 8.4192C14.0619 6.5049 13.5989 4.19454 12.2759 1.95019L12.2097 1.88418C12.1436 1.75216 12.0113 1.55413 11.7467 1.55413C11.4821 1.55413 11.3498 1.75216 11.2175 1.88418C10.0268 3.27039 9.82836 4.39257 9.82836 5.97682L9.86673 7.32607C9.65505 6.82571 9.47711 6.47321 9.37723 6.29829C9.54062 4.51733 9.14108 3.10999 8.17398 2.0162C6.45476 0.0358887 3.47806 0.0358887 3.34576 0.0358887C3.08116 0.0358887 2.88272 0.23392 2.88272 0.497961C2.88272 0.668927 2.96606 0.81151 3.09638 0.891382C3.37156 1.2848 4.26854 2.49939 4.60259 3.66646C5.11723 5.40055 6.88539 6.7597 8.62511 6.83165C8.7541 7.10559 8.97306 7.58615 9.21913 8.23371C8.36383 7.34191 7.50852 6.87522 6.65321 6.83495C5.13178 6.83495 4.27185 8.08914 4.2057 8.15516C4.13955 8.35319 4.13955 8.55122 4.2057 8.68324C5.19793 9.93743 6.05787 10.7296 7.05011 11.1916C7.90012 11.6161 8.86325 11.8174 10.2444 11.8986C10.3437 12.4386 10.4244 13.0082 10.4799 13.601C10.0056 12.9363 9.45065 12.4702 8.83679 12.1818C7.51381 11.6537 6.32313 12.1818 6.25698 12.2478C6.05853 12.3138 5.99238 12.5778 5.99238 12.7759C6.56126 14.8578 7.55482 17.3009 10.2993 18.2046C10.1737 18.9076 10.0023 19.5934 9.78603 20.2614C9.72716 19.8495 9.63786 19.4403 9.49828 19.0469C9.03524 17.6606 8.043 16.9345 6.58772 16.8685C6.45543 16.8685 6.32313 16.9345 6.25698 17.0005C6.19083 17.0665 6.12468 17.1986 6.12468 17.3306V18.2547C6.0625 20.3558 6.00098 22.7461 7.78502 24.2887C7.30478 24.9832 6.76103 25.6538 6.15577 26.2994C6.64197 24.7376 6.63204 23.0491 5.72779 21.8193C5.39704 21.3572 5.19859 21.0272 4.86785 21.0932C4.47096 21.0932 4.33866 21.3572 4.14021 21.7533C3.58853 22.6708 1.10595 27.1034 2.90388 29.1141C2.31384 29.5346 1.69005 29.9419 1.03121 30.3346C0.832758 30.4666 0.766609 30.7307 0.898907 30.9947C0.965056 31.1267 1.1635 31.1927 1.2958 31.1927C1.36195 31.1927 1.49425 31.1927 1.5604 31.1267C2.28804 30.6911 2.97797 30.2336 3.63086 29.757C4.32278 30.5089 5.19859 30.8627 6.12468 30.8627H6.25698C8.24145 30.7967 10.2921 29.1464 11.4166 27.4962C11.4828 27.4302 11.4828 27.2981 11.5489 27.2321C11.7473 27.0341 11.9458 26.7701 11.8135 26.44C11.6812 26.0439 11.3505 25.9119 10.7551 25.7139C9.72782 25.3858 8.52192 25.7713 7.34381 26.3628C7.83265 25.7951 8.27982 25.2083 8.68465 24.6049C8.89632 24.6241 9.13115 24.6571 9.36598 24.6571C12.5411 24.6571 14.3933 23.1388 14.9887 20.0363C14.9887 19.9703 14.9887 19.8383 15.0548 19.8383C15.1209 19.3762 15.1871 19.0462 14.9225 18.7161C14.6579 18.4521 14.261 18.4521 13.5995 18.5181C13.0789 18.5584 12.0252 18.7921 10.8781 19.8192C11.0018 19.3591 11.1057 18.8917 11.1904 18.4178C13.0392 18.1953 14.302 17.2124 14.9225 15.415L14.9218 15.4163ZM14.5249 10.7296C14.5249 14.1099 14.216 16.9966 11.3313 17.4857C11.3557 17.291 11.3776 17.0956 11.3961 16.8989C12.2633 12.593 13.7457 11.1837 14.5249 10.7296ZM10.7545 5.97682C10.7545 4.5906 11.019 3.73247 11.6805 2.80832C12.7389 4.65661 13.1358 6.63692 12.6728 8.15516C12.4155 9.1836 11.8433 10.0239 10.9582 10.7375C10.9331 10.6279 10.9073 10.5196 10.8815 10.4127L10.7545 5.97682ZM5.52868 3.40241C5.24027 2.53834 4.73555 1.67492 4.32476 1.05707C5.23365 1.20955 6.58309 1.60165 7.51315 2.61029C8.23417 3.44994 8.57153 4.56221 8.47893 5.89694C7.16322 5.75634 5.88721 4.71404 5.52868 3.40241ZM5.19793 8.4192C5.46253 8.15516 5.92557 7.75909 6.65321 7.75909C7.64479 7.75909 8.83547 8.8146 10.0255 10.8589C10.0354 10.9012 10.0453 10.9434 10.0553 10.9863C8.06152 10.8451 6.69356 10.3658 5.19793 8.4192ZM7.05011 12.9739C7.38085 12.8419 7.91004 12.8419 8.43924 13.0399C9.35738 13.4327 10.0804 14.4103 10.5441 15.9067C10.5348 16.1437 10.5209 16.3787 10.5024 16.6117C10.476 16.7391 10.4495 16.8685 10.4244 17.0005C10.4019 17.0896 10.4105 17.1708 10.4409 17.2428C10.4409 17.2454 10.4409 17.2474 10.4402 17.2501C8.76006 16.6771 7.71358 15.3179 7.05077 12.9739H7.05011ZM7.05011 18.3207V17.8587C8.78189 18.1788 8.95917 20.1129 8.96776 22.2761C8.76667 22.6847 8.54706 23.086 8.3076 23.4801C6.98528 22.2464 6.98925 20.2562 7.04944 18.3207H7.05011ZM4.86719 22.2814C4.91129 22.2814 4.93334 22.3034 4.93334 22.3474C6.0539 23.8379 5.47576 26.3218 4.30095 28.0401C4.09854 28.2078 3.89149 28.3734 3.67915 28.5378C2.4587 27.2856 3.8088 24.0828 4.86653 22.2814H4.86719ZM10.4899 26.638C10.6222 26.638 10.7545 26.704 10.8206 26.704C10.7545 26.7701 10.6883 26.9021 10.6222 26.9681C9.69607 28.3543 7.91004 29.9386 6.25632 29.9386C5.53992 29.998 4.87843 29.7346 4.3671 29.1973C4.43325 29.1451 4.49874 29.0923 4.56423 29.0395C4.62905 29.0157 4.69189 28.9774 4.75076 28.9279C5.05042 28.7576 5.3977 28.5801 5.79394 28.3536C7.24921 27.4295 9.23369 26.2413 10.4905 26.6374L10.4899 26.638ZM13.665 19.4429H14.1942C14.1281 19.4429 14.1281 19.5749 14.1281 19.5749C14.1281 19.6409 14.0619 19.707 14.0619 19.839C13.5129 22.5777 12.0635 23.7441 9.2489 23.7026C9.26808 23.6696 9.2866 23.6365 9.30579 23.6035C9.36466 23.5573 9.40964 23.4913 9.43147 23.4029C9.46851 23.3256 9.50622 23.2497 9.54392 23.1751C9.55054 23.1633 9.55715 23.1507 9.56377 23.1388C9.61603 23.0425 9.66696 22.9454 9.71657 22.8477C9.81381 22.7738 9.87864 22.6616 9.89187 22.5289C11.4166 19.8885 13.0042 19.5023 13.665 19.4423V19.4429Z" fill="white"/>
</svg>
