<svg width="39" height="24" viewBox="0 0 39 24" fill="none" xmlns="http://www.w3.org/2000/svg">
<g clip-path="url(#clip0_165_17900)">
<path d="M31.8418 9.35646C24.4033 9.19624 16.9649 9.51667 9.52643 9.8371C7.87718 9.90118 5.99233 10.4139 4.47771 10.9266C3.29968 11.3111 1.75141 11.8878 0.808978 12.753C-1.34514 14.6755 2.76115 14.6435 3.83821 14.6115C4.24211 14.6115 4.646 14.5794 5.0499 14.5474C5.31916 14.5474 5.58843 14.5474 5.85769 14.5153C5.21819 14.5153 5.08356 14.5153 5.48745 14.5153C6.29525 14.5153 7.1367 14.4513 7.9445 14.4192C9.66106 14.3551 11.3776 14.291 13.0942 14.259C16.5273 14.1629 19.9268 14.1629 23.3599 14.227C24.9418 14.259 26.5911 13.9706 28.1057 13.5861C29.6203 13.2016 31.2696 12.6889 32.5486 11.8878C33.0871 11.5674 34.2988 10.9266 34.0968 10.1575C33.8949 9.3885 32.3803 9.3885 31.8418 9.3885V9.35646Z" fill="#F0091C"/>
<path d="M25.9858 3.68493C28.9141 6.05609 31.9769 8.4593 33.9964 11.5995L34.3667 8.97198C30.5633 12.8171 26.2551 16.1495 24.3366 21.2443C23.9327 22.3338 24.8078 23.6155 25.9185 23.9039C27.1975 24.2243 28.3082 23.4873 28.7121 22.3979C30.3277 18.1362 34.434 15.2203 37.5978 12.016C38.271 11.3111 38.473 10.2216 37.9681 9.38854C35.7466 5.89588 32.4818 3.20429 29.2506 0.576786C28.3082 -0.192239 26.9619 -0.288367 26.0531 0.576786C25.2453 1.34581 25.1107 2.88386 26.0531 3.62085L25.9858 3.68493Z" fill="#F0091C"/>
</g>
<defs>
<clipPath id="clip0_165_17900">
<rect width="38" height="24" fill="white" transform="translate(0.203125)"/>
</clipPath>
</defs>
</svg>
