<svg width="140" height="56" viewBox="0 0 140 56" fill="none" xmlns="http://www.w3.org/2000/svg">
<g style="mix-blend-mode:luminosity" clip-path="url(#clip0_156_17314)">
<path d="M49.252 19.2656V24.381H56.4941V19.2656H49.252Z" fill="white"/>
<path d="M22.9613 42.8835C20.5694 42.8835 18.3924 42.0269 16.6337 40.5994C14.9453 42.0269 12.7683 42.8835 10.3764 42.8835C4.893 42.8835 0.460938 38.3907 0.460938 32.8272L0.460938 0.870117L7.7031 0.870117L7.7031 32.6131C7.7031 34.108 8.89905 35.3214 10.3725 35.3214C11.8459 35.3214 13.0458 34.108 13.0458 32.6131V0.870117L20.288 0.870117V32.6131C20.288 34.108 21.4839 35.3214 22.9613 35.3214C24.4386 35.3214 25.6346 34.108 25.6346 32.6131V0.870117L32.8728 0.870117V32.8272C32.8728 38.3907 28.4447 42.8835 22.9613 42.8835Z" fill="white"/>
<path d="M106.412 42.8835C100.928 42.8835 96.4961 38.3907 96.4961 32.8272V10.9303C96.4961 5.36687 100.924 0.870117 106.412 0.870117C111.899 0.870117 116.327 5.36687 116.327 10.9303V26.0543H103.738V32.6171C103.738 34.112 104.938 35.3254 106.412 35.3254C107.885 35.3254 109.085 34.112 109.085 32.6171V30.1902H116.327V32.8272C116.327 38.3907 111.895 42.8835 106.412 42.8835ZM109.085 11.1445C109.085 9.64553 107.889 8.43212 106.412 8.43212C104.934 8.43212 103.738 9.64553 103.738 11.1445V19.4916H109.085V11.1445Z" fill="white"/>
<path d="M132.708 42.3838V11.1445C132.708 9.64553 131.512 8.43212 130.035 8.43212C128.557 8.43212 127.365 9.64553 127.365 11.1445V42.3878H120.123V10.9303C120.123 5.36687 124.551 0.870117 130.035 0.870117C135.518 0.870117 139.95 5.36687 139.95 10.9303V42.3878H132.708V42.3838Z" fill="white"/>
<path d="M49.2528 32.6131C49.2528 34.108 48.0569 35.3215 46.5795 35.3215C45.1022 35.3215 43.9101 34.108 43.9101 32.6131V11.1445C43.9101 9.64553 45.1022 8.43212 46.5795 8.43212C48.0569 8.43212 49.2528 9.64553 49.2528 11.1445V11.3943H56.495V10.9303C56.495 5.36687 52.0668 0.870117 46.5834 0.870117C41.1 0.870117 36.6719 5.36687 36.6719 10.9303V32.8312C36.6719 38.3946 41.1 42.8874 46.5834 42.8874C52.0668 42.8874 56.495 38.3946 56.495 32.8312V32.2483H49.2528V32.6171V32.6131Z" fill="white"/>
<path d="M60.293 42.3836H67.5312V32.2441H60.293V42.3836Z" fill="white"/>
<path d="M82.7894 0.870117C80.3975 0.870117 78.2205 1.72664 76.5321 3.15418C74.7773 1.72664 72.5964 0.870117 70.2084 0.870117C64.7211 0.870117 60.2969 5.36687 60.2969 10.9303V11.3943H67.539V11.1445C67.539 9.64553 68.735 8.43212 70.2123 8.43212C71.6897 8.43212 72.8817 9.64553 72.8817 11.1445V42.3878H80.1239V11.1445C80.1239 9.64553 81.3159 8.43212 82.7933 8.43212C84.2707 8.43212 85.4627 9.64553 85.4627 11.1445V42.3878H92.7049V10.9303C92.7049 5.36687 88.2767 0.870117 82.7933 0.870117H82.7894Z" fill="white"/>
<path d="M60.293 24.381H67.5312V19.2656H60.293V24.381Z" fill="white"/>
<path d="M67.5508 18.0479H49.252V12.6074H67.5508V18.0479Z" fill="white"/>
<path d="M67.5274 31.0344L49.252 31.0304V25.5859L67.5274 25.5899V31.0344Z" fill="white"/>
<path d="M0.460938 48.0781H3.14988C3.73613 48.0781 4.27548 48.1773 4.76012 48.3716C5.24475 48.5698 5.65904 48.8395 6.00688 49.1805C6.35081 49.5255 6.62049 49.93 6.812 50.3979C7.00351 50.8658 7.09731 51.3734 7.09731 51.9206C7.09731 52.4678 6.9996 52.9754 6.80027 53.4473C6.60485 53.9191 6.33127 54.3236 5.98734 54.6646C5.63949 55.0057 5.22912 55.2753 4.74839 55.4696C4.26766 55.6679 3.74785 55.7631 3.18505 55.7631H0.460938L0.460938 48.0781ZM2.26659 49.7832V54.046H3.09516C3.42737 54.046 3.72831 53.9905 3.99408 53.8835C4.25985 53.7764 4.49044 53.6257 4.67804 53.4314C4.86955 53.2371 5.01416 53.0111 5.11578 52.7533C5.21739 52.4956 5.26429 52.218 5.26429 51.9206C5.26429 51.6232 5.21739 51.3377 5.11968 51.0799C5.02198 50.8222 4.88127 50.5922 4.69367 50.4018C4.50607 50.2075 4.27548 50.0569 4.0019 49.9498C3.72831 49.8427 3.41565 49.7872 3.06389 49.7872H2.26659V49.7832Z" fill="white"/>
<path d="M11.0368 55.8701C10.5678 55.8701 10.1418 55.7987 9.76659 55.66C9.39139 55.5212 9.0709 55.315 8.80513 55.0493C8.54327 54.7836 8.33613 54.4545 8.19152 54.0698C8.04692 53.6852 7.97266 53.2411 7.97266 52.7414V48.0781H9.80958V52.7414C9.80958 53.1697 9.91901 53.4988 10.1379 53.7328C10.3567 53.9628 10.6499 54.0817 11.0251 54.0817C11.4003 54.0817 11.6895 53.9667 11.9162 53.7328C12.1429 53.5028 12.2601 53.1697 12.2601 52.7414V48.0781H14.097V52.7414C14.097 53.2411 14.0228 53.6812 13.8782 54.0698C13.7336 54.4545 13.5303 54.7836 13.2646 55.0493C13.0027 55.315 12.6783 55.5212 12.2992 55.66C11.9201 55.7987 11.498 55.8701 11.0329 55.8701H11.0368Z" fill="white"/>
<path d="M17.1066 49.7714H15.0508V48.0742H20.9055V49.7714H18.8731V55.7631H17.1105V49.7714H17.1066Z" fill="white"/>
<path d="M25.0568 55.8697C24.4744 55.8697 23.9468 55.7666 23.47 55.5604C22.9932 55.3542 22.5828 55.0727 22.2467 54.7197C21.9066 54.3668 21.6448 53.9465 21.4572 53.4667C21.2696 52.9869 21.1758 52.4714 21.1758 51.9241C21.1758 51.3769 21.2735 50.8416 21.465 50.3618C21.6604 49.882 21.9301 49.4616 22.274 49.1087C22.618 48.7558 23.0283 48.4782 23.5052 48.276C23.9781 48.0777 24.4979 47.9746 25.0568 47.9746C25.4242 47.9746 25.772 48.0222 26.1042 48.1134C26.4364 48.2046 26.7491 48.3315 27.0383 48.498C27.3275 48.6646 27.5933 48.8629 27.8278 49.0968C28.0623 49.3308 28.2655 49.5885 28.4297 49.8701L26.8429 50.8931C26.6709 50.5481 26.4364 50.2785 26.1394 50.0763C25.8423 49.878 25.4867 49.7749 25.0685 49.7749C24.7636 49.7749 24.4861 49.8304 24.2399 49.9414C23.9898 50.0525 23.7748 50.2071 23.595 50.3975C23.4153 50.5918 23.2746 50.8178 23.1729 51.0835C23.0713 51.3452 23.0205 51.6267 23.0205 51.9202C23.0205 52.2136 23.0674 52.4912 23.1651 52.745C23.2628 53.0027 23.3996 53.2248 23.5794 53.4191C23.7592 53.6134 23.9702 53.7641 24.2165 53.8791C24.4627 53.9901 24.7363 54.0456 25.0411 54.0456C25.4984 54.0456 25.8775 53.9267 26.1824 53.6927C26.4872 53.4588 26.7178 53.1574 26.8781 52.7926L28.5508 53.6967C28.3906 54.0139 28.1952 54.3034 27.9607 54.5691C27.7262 54.8347 27.4604 55.0647 27.1673 55.259C26.8741 55.4533 26.5498 55.6001 26.1902 55.7071C25.8345 55.8142 25.4554 55.8657 25.0529 55.8657L25.0568 55.8697Z" fill="white"/>
<path d="M33.6156 52.8049H31.1338V55.7631H29.3164V48.0781H31.1338V50.9967H33.6156V48.0781H35.433V55.7631H33.6156V52.8049Z" fill="white"/>
<path d="M42.7189 55.8697C42.1014 55.8697 41.5503 55.7626 41.0579 55.5525C40.5654 55.3423 40.1511 55.0568 39.8072 54.696C39.4633 54.3351 39.2014 53.9148 39.0177 53.4389C38.834 52.9631 38.7441 52.4555 38.7441 51.9241C38.7441 51.3928 38.8419 50.8495 39.0334 50.3657C39.2288 49.882 39.4945 49.4656 39.8385 49.1127C40.1824 48.7598 40.5889 48.4861 41.0696 48.2799C41.5464 48.0777 42.0741 47.9746 42.6486 47.9746C43.3833 47.9746 44.0165 48.1134 44.548 48.3949C45.0796 48.6765 45.5251 49.0532 45.8886 49.5211L44.3722 50.6076C44.1924 50.3182 43.9579 50.1001 43.6726 49.9454C43.3873 49.7908 43.0472 49.7154 42.6603 49.7154C42.3711 49.7154 42.0975 49.7709 41.8396 49.882C41.5816 49.993 41.3588 50.1476 41.1712 50.3459C40.9797 50.5442 40.8312 50.7742 40.7179 51.0478C40.6084 51.3174 40.5537 51.6109 40.5537 51.9281C40.5537 52.2453 40.6045 52.5546 40.71 52.8243C40.8156 53.09 40.9602 53.3239 41.1517 53.5182C41.3432 53.7165 41.5699 53.8672 41.8317 53.9703C42.0936 54.0773 42.3828 54.1289 42.6916 54.1289C43.1293 54.1289 43.4928 54.0218 43.7898 53.8117C44.0868 53.6015 44.3018 53.3081 44.4347 52.9274H42.3281V51.2223H46.3967V52.0946C46.3967 52.5983 46.3068 53.082 46.1309 53.542C45.955 54.002 45.7049 54.4025 45.3844 54.7475C45.0639 55.0925 44.677 55.3661 44.2236 55.5683C43.7703 55.7706 43.27 55.8737 42.7228 55.8737L42.7189 55.8697Z" fill="white"/>
<path d="M47.3691 48.0781H52.5985V49.7832H49.1748V51.0482H52.5985V52.7533H49.1748V54.0579H52.5985V55.7631H47.3691V48.0781Z" fill="white"/>
<path d="M53.6895 48.0781H55.5772L58.4303 52.6899V48.0781H60.1539V55.7631H58.399L55.4208 50.9292V55.7631H53.6895V48.0781Z" fill="white"/>
<path d="M61.2949 48.0781H63.9839C64.5701 48.0781 65.1095 48.1773 65.5941 48.3716C66.0787 48.5698 66.493 48.8395 66.8409 49.1805C67.1848 49.5255 67.4545 49.93 67.646 50.3979C67.8375 50.8658 67.9313 51.3734 67.9313 51.9206C67.9313 52.4678 67.8336 52.9754 67.6343 53.4473C67.4388 53.9191 67.1653 54.3236 66.8213 54.6646C66.4735 55.0057 66.0631 55.2753 65.5824 55.4696C65.1016 55.6679 64.5818 55.7631 64.019 55.7631H61.2988V48.0781H61.2949ZM63.1006 49.7832V54.046H63.9291C64.2614 54.046 64.5623 53.9905 64.8281 53.8835C65.0938 53.7764 65.3244 53.6257 65.512 53.4314C65.7035 53.2371 65.8481 53.0111 65.9498 52.7533C66.0514 52.4956 66.0983 52.218 66.0983 51.9206C66.0983 51.6232 66.0514 51.3377 65.9537 51.0799C65.856 50.8222 65.7153 50.5922 65.5277 50.4018C65.3401 50.2075 65.1095 50.0569 64.8359 49.9498C64.5623 49.8427 64.2496 49.7872 63.8979 49.7872H63.1006V49.7832Z" fill="white"/>
<path d="M68.8809 48.0781H74.1102V49.7832H70.6865V51.0482H74.1102V52.7533H70.6865V54.0579H74.1102V55.7631H68.8809V48.0781Z" fill="white"/>
<path d="M75.2012 48.0781H78.4607C78.918 48.0781 79.3206 48.1495 79.6762 48.2883C80.028 48.4271 80.325 48.6174 80.5673 48.8553C80.8097 49.0933 80.9933 49.3748 81.1184 49.692C81.2435 50.0132 81.306 50.3543 81.306 50.7191C81.306 51.2108 81.1966 51.6549 80.9777 52.0515C80.7588 52.448 80.4618 52.7573 80.0788 52.9833L81.4897 55.7631H79.4964L78.4256 53.4592H77.0029V55.7631H75.1973V48.0781H75.2012ZM77.0068 49.7515V51.7937H78.3239C78.7109 51.7937 78.9962 51.6946 79.1799 51.4923C79.3636 51.2941 79.4535 51.0482 79.4535 50.7587C79.4535 50.4415 79.3597 50.1956 79.1721 50.0172C78.9845 49.8388 78.7031 49.7476 78.32 49.7476H77.0029L77.0068 49.7515Z" fill="white"/>
<path d="M84.5918 48.0781H87.6208C88.0624 48.0781 88.465 48.1535 88.8245 48.3042C89.1841 48.4548 89.4929 48.661 89.7469 48.9188C90.0049 49.1805 90.2003 49.4819 90.3371 49.8308C90.4739 50.1798 90.5442 50.5486 90.5442 50.9411C90.5442 51.3337 90.4739 51.6946 90.3371 52.0475C90.2003 52.4004 90.0049 52.7057 89.7508 52.9675C89.4968 53.2292 89.1919 53.4393 88.8284 53.598C88.465 53.7566 88.0585 53.8359 87.609 53.8359H86.4053V55.7631H84.5879V48.0781H84.5918ZM86.4053 49.7396V52.1308H87.527C87.867 52.1308 88.1484 52.0237 88.3712 51.8056C88.5978 51.5875 88.7073 51.302 88.7073 50.9411C88.7073 50.5803 88.5939 50.2948 88.3712 50.0727C88.1484 49.8507 87.8631 49.7396 87.527 49.7396H86.4053Z" fill="white"/>
<path d="M91.502 48.0781H93.3193V54.0064H96.618V55.7631H91.502V48.0781Z" fill="white"/>
<path d="M99.9488 48.0781H101.692L104.494 55.7631H102.657L102.263 54.6171H99.3664L98.9717 55.7631H97.1465L99.9488 48.0781ZM99.9292 53.015H101.715L100.824 50.4336L99.9331 53.015H99.9292Z" fill="white"/>
<path d="M105.771 49.7714H103.715V48.0742H109.57V49.7714H107.537V55.7631H105.775V49.7714H105.771Z" fill="white"/>
<path d="M110.566 48.0781H115.776V49.8031H112.372V51.1711H115.776V52.8683H112.372V55.7631H110.566V48.0781Z" fill="white"/>
<path d="M120.561 55.8697C120.021 55.8697 119.517 55.7666 119.044 55.5604C118.575 55.3542 118.165 55.0727 117.813 54.7197C117.461 54.3668 117.188 53.9465 116.988 53.4667C116.789 52.9869 116.688 52.4714 116.688 51.9241C116.688 51.3769 116.789 50.8654 116.988 50.3856C117.188 49.9097 117.465 49.4894 117.813 49.1325C118.161 48.7756 118.571 48.4901 119.044 48.2839C119.513 48.0777 120.021 47.9746 120.561 47.9746C121.1 47.9746 121.604 48.0777 122.077 48.2839C122.546 48.4901 122.96 48.7717 123.312 49.1325C123.664 49.4894 123.941 49.9097 124.141 50.3856C124.34 50.8614 124.442 51.3769 124.442 51.9241C124.442 52.4714 124.34 52.9869 124.141 53.4667C123.941 53.9465 123.664 54.3668 123.316 54.7197C122.968 55.0727 122.558 55.3542 122.085 55.5604C121.616 55.7666 121.108 55.8697 120.561 55.8697ZM120.561 54.0575C120.858 54.0575 121.131 54.002 121.385 53.891C121.639 53.7799 121.854 53.6253 122.038 53.427C122.222 53.2288 122.366 53.0027 122.468 52.7489C122.573 52.4912 122.624 52.2176 122.624 51.9241C122.624 51.6307 122.573 51.3531 122.468 51.0914C122.362 50.8337 122.218 50.6037 122.03 50.4054C121.843 50.2071 121.624 50.0525 121.37 49.9414C121.116 49.8304 120.846 49.7749 120.557 49.7749C120.268 49.7749 119.994 49.8304 119.744 49.9414C119.49 50.0525 119.275 50.2071 119.095 50.4054C118.915 50.6037 118.775 50.8297 118.669 51.0914C118.564 51.3492 118.513 51.6267 118.513 51.9241C118.513 52.2215 118.564 52.4952 118.665 52.7489C118.767 53.0067 118.907 53.2327 119.091 53.427C119.275 53.6253 119.49 53.7799 119.74 53.891C119.99 54.002 120.264 54.0575 120.561 54.0575Z" fill="white"/>
<path d="M125.395 48.0781H128.654C129.111 48.0781 129.514 48.1495 129.87 48.2883C130.221 48.4271 130.518 48.6174 130.761 48.8553C131.003 49.0933 131.187 49.3748 131.312 49.692C131.437 50.0132 131.499 50.3543 131.499 50.7191C131.499 51.2108 131.39 51.6549 131.171 52.0515C130.952 52.448 130.655 52.7573 130.272 52.9833L131.683 55.7631H129.69L128.619 53.4592H127.196V55.7631H125.391V48.0781H125.395ZM127.2 49.7515V51.7937H128.517C128.904 51.7937 129.19 51.6946 129.373 51.4923C129.557 51.2941 129.647 51.0482 129.647 50.7587C129.647 50.4415 129.553 50.1956 129.365 50.0172C129.178 49.8388 128.896 49.7476 128.513 49.7476H127.196L127.2 49.7515Z" fill="white"/>
<path d="M132.43 48.0781H134.153L136.197 50.953L138.304 48.0781H139.953V55.7631H138.191V50.8896L136.19 53.6178L134.208 50.9015V55.767H132.434V48.0821L132.43 48.0781Z" fill="white"/>
</g>
<defs>
<clipPath id="clip0_156_17314">
<rect width="139.493" height="55" fill="white" transform="translate(0.460938 0.870117)"/>
</clipPath>
</defs>
</svg>
