<svg width="148" height="56" viewBox="0 0 148 56" fill="none" xmlns="http://www.w3.org/2000/svg">
<g style="mix-blend-mode:luminosity" clip-path="url(#clip0_156_17665)">
<path d="M49.6901 0.870312C43.8018 0.883296 37.9136 0.876804 32.0189 0.876804C31.9215 0.876804 31.8306 0.876804 31.7333 0.876804C31.5969 0.876804 31.5385 0.935231 31.532 1.07805C31.4931 1.72725 31.4346 2.37645 31.4022 3.01915C31.3243 4.82392 31.2918 6.63518 31.1879 8.43995C31.0711 10.4525 31.123 12.4715 31.136 14.484C31.136 14.9774 31.2074 15.4643 31.2464 15.9512C31.2788 16.2952 31.4022 16.4381 31.8047 16.3472C32.389 16.2173 32.9992 16.12 33.5965 16.1264C36.8424 16.1654 40.0884 15.9836 43.3279 16.2238C43.4253 16.2563 43.5162 16.2563 43.6136 16.2563C44.4121 16.3537 45.2171 16.2758 46.0221 16.2823C46.1714 16.2952 46.3207 16.3082 46.4765 16.3147C46.4765 16.3407 46.483 16.3667 46.4895 16.3926C46.535 16.3926 46.5804 16.3926 46.6259 16.3926C47.0933 16.3926 47.5672 16.3926 48.0346 16.3991H48.2034C48.3332 16.3602 48.4826 16.4316 48.5864 16.3017C48.7747 15.9122 48.6578 15.4902 48.7033 15.0877C48.963 12.7376 49.2032 10.3875 49.4434 8.04394C49.6706 5.8172 49.8718 3.59045 50.138 1.37669C50.1964 0.902772 50.0796 0.857328 49.6771 0.86382L49.6901 0.870312ZM41.64 5.6549C42.5035 7.07664 43.3669 8.49189 44.2368 9.91363C44.3991 10.1733 44.3796 10.3291 44.0875 10.5174C43.2306 11.0757 43.302 11.1861 42.7307 10.2188C41.9776 8.95282 41.231 7.68039 40.452 6.43393C40.2248 6.07038 40.3092 5.90808 40.6532 5.73929C40.8805 5.62893 41.0557 5.43417 41.3414 5.39522C41.4907 5.4082 41.5686 5.53155 41.6465 5.6484L41.64 5.6549ZM36.5698 4.36948C36.5893 4.14876 36.7191 3.92154 36.9853 3.79819C37.6215 3.50605 38.1993 3.11653 38.79 2.74C39.1211 2.53226 39.4587 2.44786 39.7963 2.74C40.3351 3.20742 40.3157 3.42815 39.6989 3.78521C38.9848 4.20719 38.2902 4.64864 37.5696 5.05763C36.8879 5.44715 36.5438 5.21993 36.5633 4.36299L36.5698 4.36948ZM37.5176 6.32357C37.3229 6.01845 37.4267 5.85615 37.7189 5.68736C38.5369 5.20695 39.3419 4.70707 40.1534 4.21368C40.2962 4.12928 40.439 3.96049 40.6208 4.07735C40.835 4.22017 40.9454 4.46037 41.0168 4.71356C41.0038 4.87586 40.874 4.94078 40.7506 5.01868C39.9067 5.52506 39.0562 6.01195 38.2317 6.5443C37.8617 6.77801 37.6994 6.6222 37.5176 6.33006V6.32357ZM41.9841 11.7963C41.1791 12.3351 41.1791 12.3481 40.6727 11.5301C39.8742 10.2317 39.0887 8.92685 38.2902 7.63495C38.1279 7.36878 38.1863 7.19349 38.433 7.05067C38.6927 6.90136 38.9458 6.74555 39.1666 6.61571C39.3743 6.60272 39.4263 6.73256 39.4912 6.84293C40.3741 8.27765 41.2505 9.70589 42.1334 11.1406C42.3087 11.4263 42.2697 11.6145 41.9841 11.8028V11.7963ZM42.5359 12.9064C42.3022 12.7441 42.2373 12.6143 42.5359 12.4455C43.0747 12.1404 43.6006 11.8158 44.1329 11.4912C44.3472 11.3613 44.49 11.3094 44.516 11.66C44.5614 12.2767 44.6393 12.8934 44.7042 13.4842C44.6523 13.7179 44.8211 14.0101 44.6198 14.1399C44.3861 14.2892 44.1784 14.0295 43.9901 13.9062C43.4967 13.5881 43.0228 13.244 42.5359 12.9064Z" fill="white"/>
<path d="M101.068 42.9962C101.068 42.9962 101.061 42.9313 101.055 42.8989C101.042 42.769 101.035 42.6392 100.905 42.5613C100.886 42.5483 100.879 42.5353 100.853 42.5288C100.697 42.5288 100.535 42.5223 100.379 42.5158C100.327 42.5158 100.282 42.5158 100.23 42.5158C99.5938 42.5353 98.9706 42.4834 98.3474 42.399C98.1916 42.3795 98.0358 42.3535 97.8735 42.3341C97.6917 42.3276 97.5099 42.3146 97.3216 42.3081C97.3022 42.3081 97.2827 42.3081 97.2632 42.3081C96.7049 42.2691 96.7049 42.2886 96.8153 42.9053C96.8283 42.9638 96.8153 43.0222 96.8153 43.0806C96.8153 43.0806 96.8153 43.0871 96.8153 43.0936C96.8153 43.1585 96.8153 43.2235 96.8218 43.2819C96.8218 43.3078 96.8218 43.3273 96.8283 43.3533C96.9516 44.1583 96.9711 44.9763 97.036 45.7943C97.1983 47.8847 97.062 49.9751 97.1139 52.0655C97.1139 52.1369 97.1464 52.2213 97.036 52.3057C96.7698 52.0006 96.5556 51.663 96.3803 51.2995C96.3479 51.2865 96.3414 51.2605 96.3479 51.2281C96.244 51.0722 96.1401 50.9099 96.0362 50.7541C96.0103 50.7152 95.9843 50.6762 95.9648 50.6438C95.8155 50.436 95.6532 50.2348 95.5818 49.9816C95.5818 49.9816 95.5753 49.9686 95.5688 49.9686C95.1663 49.4038 94.8157 48.8001 94.5171 48.1703C94.4327 48.1379 94.4392 48.0665 94.4327 47.9951C94.1016 47.5406 93.8809 47.0277 93.6147 46.5408C93.6017 46.5084 93.5953 46.4824 93.5823 46.45C93.4784 46.2617 93.3745 46.0734 93.2707 45.8787C93.1863 45.8462 93.1928 45.7683 93.1928 45.6969C92.9006 45.1516 92.6085 44.6127 92.3163 44.0674C92.0631 43.6389 91.81 43.217 91.6671 42.7366C91.5373 42.6327 91.5568 42.4184 91.388 42.347C91.375 42.3276 91.3555 42.3146 91.3425 42.2951C91.3296 42.2756 91.3101 42.2626 91.2971 42.2432L89.6871 42.2561C89.6871 42.2561 89.6741 42.2821 89.6676 42.3016C89.6676 42.3146 89.6546 42.3211 89.6546 42.3341C89.4404 42.3341 89.2197 42.3341 89.0054 42.3341C88.8756 42.3341 88.7522 42.347 88.6224 42.3535L88.3432 42.4509C88.2653 42.4899 88.2459 42.5548 88.2394 42.6197C88.2394 42.6197 88.2394 42.6197 88.2394 42.6262C88.2394 42.6911 88.2394 42.7625 88.2199 42.821C88.2199 42.8274 88.2199 42.8404 88.2199 42.8469C88.2199 43.0027 88.2199 43.1585 88.2199 43.3143C88.2199 43.3403 88.2199 43.3663 88.2199 43.3922C88.2199 43.3987 88.2199 43.4117 88.2264 43.4247C88.2394 43.4701 88.2394 43.5221 88.2783 43.5545C88.2913 43.561 88.3043 43.5675 88.3303 43.574C88.3303 43.574 88.3303 43.574 88.3368 43.574L88.5185 43.6065C88.7133 43.574 88.9016 43.5675 89.0963 43.6065C89.1093 43.6065 89.1223 43.6065 89.1418 43.613C89.4404 43.6714 89.8104 43.5481 89.9987 43.7623C90.2 43.9895 90.0441 44.366 90.0506 44.6777C90.0571 45.2295 90.0506 45.7878 90.0441 46.3396C90.0441 46.4045 90.0441 46.4629 90.0441 46.5279C90.0441 46.7811 90.0441 47.0407 90.0441 47.2939V47.4952C90.0441 47.8068 90.0441 48.1119 90.0441 48.4235C90.0441 48.456 90.0441 48.4884 90.0441 48.5209C90.0312 48.5274 90.0182 48.5339 90.0117 48.5404C89.9987 48.5469 89.9857 48.5534 89.9727 48.5663C89.9662 48.7157 89.9597 48.865 89.9533 49.0143C89.9533 49.0857 89.9533 49.1636 89.9533 49.235C89.9533 49.287 89.9533 49.3454 89.9533 49.3973C89.9533 49.8063 89.9533 50.2088 89.9468 50.6178C89.9468 50.6568 89.9468 50.7022 89.9468 50.7412C89.9468 50.7996 89.9468 50.8645 89.9468 50.9229L89.9857 51.0203C89.9727 51.2086 89.9662 51.3968 89.9533 51.5916C89.9533 51.7214 89.9468 51.8448 89.9403 51.9746C89.9143 52.6563 89.8883 53.3379 89.8818 54.0131C89.8818 54.3572 89.6676 54.2403 89.4988 54.2403C89.369 54.143 89.2132 54.1689 89.0639 54.1624C89.0509 54.1624 89.0379 54.1624 89.0249 54.1624C88.986 54.1624 88.9535 54.1624 88.9145 54.1494C88.564 54.1494 88.2134 54.1494 87.8628 54.1494C87.8174 54.1624 87.772 54.1559 87.7265 54.1559C87.6811 54.1559 87.6421 54.1624 87.6097 54.1949C87.5967 54.2079 87.5772 54.2209 87.5642 54.2403C87.4279 54.6493 87.6551 55.0129 87.7265 55.3894C87.7525 55.5452 87.9343 55.4803 88.0576 55.4868C88.564 55.5128 89.0833 55.4154 89.5767 55.5972C89.5767 55.5972 89.5832 55.5972 89.5897 55.5972C89.8754 55.5972 90.161 55.6101 90.4531 55.6166C90.4726 55.5972 90.4986 55.5907 90.5246 55.5907C90.6998 55.5777 90.966 55.8309 91.0244 55.4868C91.0244 55.4608 91.0374 55.4413 91.0374 55.4089C91.0374 52.9354 91.0374 50.4555 91.0309 47.9821C91.1867 47.6705 91.1218 47.3394 91.1023 47.0148C91.1088 46.8265 91.1218 46.6382 91.1283 46.45C91.1283 46.4435 91.1283 46.437 91.1283 46.4305C91.1283 46.1773 91.005 45.8137 91.2452 45.7294C91.4594 45.6579 91.5827 46.0475 91.7061 46.2552C93.4265 49.0727 95.2637 51.8253 96.7763 54.7662C96.8477 54.9025 96.9581 55.0194 97.062 55.1362C97.0815 55.1622 97.1074 55.1817 97.1269 55.2076C97.3152 55.2076 97.5099 55.2206 97.6982 55.2206C97.7177 55.2206 97.7306 55.2206 97.7501 55.2141C97.9254 55.1752 98.1202 55.2596 98.276 55.1167V55.1038C98.276 53.6561 98.276 52.2018 98.276 50.7541C98.276 48.5534 98.289 46.3591 98.289 44.1583C98.289 44.1323 98.2825 44.1129 98.276 44.0934C98.2305 43.8272 98.2954 43.6909 98.6525 43.7883C99.3601 43.9765 100.094 43.9506 100.814 44.0155C101.152 44.0479 101.042 43.8077 101.029 43.626C101.029 43.574 101.029 43.5221 101.055 43.4896C101.055 43.3338 101.055 43.1715 101.055 43.0157L101.068 42.9962Z" fill="white"/>
<path d="M102.016 54.4287L102.023 54.4358L102.03 54.45V54.4429L102.023 54.4358L102.016 54.4287Z" fill="white"/>
<path d="M88.6303 34.9208C88.7212 34.9858 88.8121 35.0442 88.8965 35.1091C90.8441 36.5309 93.9083 36.2063 94.934 33.564C95.2521 32.746 95.4209 31.8956 95.5118 31.0257C95.6936 29.2988 95.5897 27.5719 95.4923 25.8451C95.4923 25.2413 95.4923 24.6311 95.4923 24.0273C95.5053 23.8455 95.5572 23.7287 95.778 23.7417C95.9987 23.7547 96.2194 23.7417 96.4402 23.7417C96.6349 23.7482 96.8167 23.7417 96.7453 23.482C96.6544 23.1379 96.9985 22.6965 96.5181 22.4433C96.4921 22.4303 96.4531 22.4433 96.4272 22.4433C95.3949 22.3654 94.3562 22.2875 93.324 22.2096C92.941 22.1187 92.558 22.0278 92.1814 22.242C92.1814 22.3524 92.1684 22.4627 92.1684 22.5731C92.1684 23.5015 92.1684 23.495 93.0708 23.6118C93.3824 23.6508 93.7784 23.5209 93.9927 23.7352C94.2264 23.9689 94.0316 24.3714 94.0966 24.6895C94.0641 25.0206 94.0381 25.3452 94.1615 25.6633C94.2004 27.2019 94.3692 28.734 94.181 30.2726C94.0641 31.2529 93.9343 32.2267 93.4863 33.1161C92.928 34.2262 91.9997 34.6936 90.922 34.4729C90.104 34.3041 89.5262 33.8432 89.1237 33.1226C88.507 32.0124 88.3187 30.792 88.2603 29.565C88.1694 27.6498 88.4031 25.7412 88.5135 23.8326C88.5329 23.5404 88.6887 23.5534 88.89 23.5469C89.2016 23.5339 89.6106 23.7092 89.7989 23.4885C90.0001 23.2613 89.8378 22.8523 89.8703 22.5212C89.9027 22.255 89.7794 22.2031 89.5457 22.2161C88.9289 22.255 88.3187 22.2875 87.702 22.3069C87.1112 22.3264 86.5269 22.3394 85.9361 22.3394C85.7609 22.3394 85.5986 22.3459 85.5986 22.5666C85.5986 22.9886 85.5012 23.4171 85.6959 23.8261C85.7414 23.8261 85.7803 23.8261 85.8258 23.8261C86.1374 23.6703 86.475 23.7676 86.7996 23.7482C87.0463 23.7352 87.0073 23.9299 87.0073 24.0792C87.0073 24.8518 86.9943 25.6178 86.9878 26.3904C86.9749 26.3904 86.9554 26.4034 86.9424 26.4034C86.9359 26.4034 86.9229 26.4034 86.9164 26.4099C86.9099 27.2668 86.897 28.1237 86.8905 28.9807C86.9099 29.0975 86.9099 29.2209 86.9099 29.3377C86.9099 29.6039 86.8905 29.8766 86.9878 30.1363C87.0917 31.8177 87.4033 33.4342 88.507 34.791C88.5459 34.83 88.5849 34.8754 88.6238 34.9144L88.6303 34.9208Z" fill="white"/>
<path d="M86.6438 47.6575V47.5666C86.5659 47.255 86.4944 46.9434 86.423 46.6383C86.4036 46.5864 86.3841 46.5344 86.3646 46.476C86.2997 46.3007 86.2283 46.1254 86.1634 45.9436C86.0595 45.8008 85.9491 45.658 85.9491 45.4697C85.7414 45.1192 85.5271 44.7686 85.3194 44.418C85.248 44.2622 84.9818 44.2168 85.0467 43.9896C85.0467 43.9766 85.0467 43.9701 85.0532 43.9571L85.0273 43.9766L85.0013 43.9571C85.0013 43.9571 84.9753 43.9376 84.9623 43.9246C84.7092 43.7299 84.43 43.5546 84.2742 43.2625C84.2612 43.2365 84.2417 43.217 84.2288 43.1846C84.0145 43.243 83.8977 43.0807 83.7613 42.9703C83.7419 42.9573 83.7159 42.9508 83.6964 42.9379C83.0212 42.5743 82.2941 42.3666 81.5346 42.2367C80.8659 42.2757 80.1778 42.1329 79.5351 42.3406C78.6716 42.6133 77.8471 42.9379 77.12 43.5546C76.0618 44.444 75.5035 45.5931 75.0101 46.8201C74.9452 46.9824 75.0296 47.1317 74.9647 47.281C74.9647 47.4043 74.9647 47.5277 74.9582 47.651C74.8154 48.3262 74.8219 48.9949 74.9582 49.67C74.9647 49.8583 74.9712 50.0466 74.9777 50.2283C75.0102 50.3517 75.0426 50.475 75.0751 50.5984C75.4256 51.8513 76.0878 52.9225 77.0162 53.8314C77.133 53.9353 77.2499 54.0391 77.3602 54.1495C78.3211 54.7792 79.3403 55.2402 80.5089 55.2856C80.9308 55.4219 81.3463 55.4284 81.7683 55.2856C81.8852 55.2856 81.9955 55.2856 82.1124 55.2856C82.1254 55.2856 82.1318 55.2856 82.1448 55.2856C82.3331 55.2466 82.5214 55.2142 82.7031 55.1752C82.7356 55.1687 82.7616 55.1493 82.794 55.1428C83.5406 54.8961 84.2288 54.5325 84.8455 54.0326C84.865 54.0197 84.8844 54.0067 84.8974 53.9937C84.9883 53.9093 85.0792 53.8249 85.1701 53.7405C85.2025 53.7016 85.2285 53.6626 85.261 53.6301C85.4363 53.4094 85.618 53.1887 85.7933 52.9615C85.8128 52.9355 85.8388 52.9095 85.8582 52.8771C85.8647 52.6823 86.0335 52.5655 86.1114 52.4032C86.1244 52.3772 86.1374 52.3577 86.1439 52.3317C86.2023 52.2084 86.2607 52.0915 86.3192 51.9682C86.3192 51.9552 86.3321 51.9487 86.3321 51.9357C86.462 51.4294 86.5918 50.923 86.7282 50.4166V50.3192C86.7282 50.1959 86.7347 50.066 86.7411 49.9427C86.8775 49.5272 86.884 49.1117 86.7411 48.6962C86.7087 48.3457 86.6762 48.0016 86.6438 47.651V47.6575ZM83.586 53.1303C82.0474 54.2599 79.6259 54.1365 78.0809 52.8511C76.3215 51.3904 75.6658 48.3911 76.6526 46.3267C77.568 44.4115 79.0611 43.5611 81.3139 43.6585C82.8654 43.7299 84.3781 44.9893 85.0013 46.7551C85.1182 47.0797 85.2025 47.4238 85.2805 47.7614C85.3778 48.1834 85.3973 48.6118 85.3973 49.0403C85.3519 50.6503 84.9688 52.1175 83.586 53.1368V53.1303Z" fill="white"/>
<path d="M73.4379 42.1981C73.4379 42.0683 73.4833 41.88 73.2431 41.932C72.6458 42.0618 72.0486 41.906 71.4513 41.932C70.075 41.7826 68.6922 41.8021 67.3159 41.932C67.0043 41.9449 66.6927 41.9514 66.3876 41.9644C65.9981 41.9449 65.602 41.919 65.219 42.0293C64.9983 42.0293 64.7776 42.0293 64.5568 42.0293C64.3361 42.1072 63.9726 41.9125 63.8947 42.2241C63.7973 42.5941 63.8362 43.0161 63.9596 43.3797C64.0505 43.6393 64.3556 43.4381 64.5568 43.4965C64.6802 43.49 64.797 43.4771 64.9204 43.4706C64.9788 43.4511 65.0372 43.4186 65.0957 43.4056C65.7449 43.3083 65.8033 43.3602 65.7968 44.0483C65.9396 44.9507 66.0045 45.8531 66.0045 46.7685C66.0045 47.9825 65.9851 49.203 65.9721 50.417C65.8033 51.4037 65.9072 52.397 65.9007 53.3903C65.9202 53.2734 65.9266 53.1566 65.9396 53.0332C65.9396 53.1501 65.9396 53.2734 65.9007 53.3903C65.8293 53.624 65.6345 53.5786 65.4657 53.585C65.1995 53.5915 64.9269 53.585 64.6607 53.585C64.4465 53.663 64.3296 53.7993 64.3556 54.046C64.3816 54.2472 64.3945 54.4615 64.3751 54.6627C64.3296 55.0847 64.5568 55.1496 64.8879 55.0912C65.3424 55.0068 65.8033 55.0198 66.2577 55.0003C66.6473 55.0198 67.0368 55.0652 67.4198 54.9289C67.5756 54.9289 67.7314 54.9289 67.8937 54.9289C68.1469 54.9289 68.4001 54.9289 68.6598 54.9289C69.1337 54.864 69.6076 55.0003 70.075 54.8834C70.062 54.8575 70.075 54.8315 70.101 54.8185C70.101 54.4874 70.0815 54.1563 70.0945 53.8253C70.101 53.5656 70.0101 53.4682 69.7374 53.4747C69.0947 53.4877 68.4455 53.4747 67.8028 53.4617C67.4328 53.5331 67.3224 53.3384 67.3224 53.0138C67.3289 51.7089 67.3354 50.404 67.3354 49.0991C67.251 48.7226 67.3484 48.5538 67.7769 48.6057C68.1469 48.6576 68.5364 48.6511 68.913 48.6252C69.2505 48.6057 69.3804 48.7226 69.3284 49.0537C69.3155 49.164 69.3155 49.2744 69.309 49.3847C69.309 49.4497 69.309 49.5146 69.309 49.5795C69.309 49.8002 69.3219 50.021 69.3155 50.2417C69.3155 50.404 69.3479 50.5273 69.5427 50.5273C69.9517 50.5273 70.4191 50.6247 70.7502 50.4689C71.0164 50.3391 70.8086 49.8587 70.8476 49.5341C70.8476 49.4886 70.8605 49.4432 70.8605 49.3912C70.7761 48.1837 70.8541 46.9762 70.8605 45.7752C70.8605 45.3987 70.7502 45.2883 70.3736 45.2883C69.3155 45.3013 69.3155 45.2883 69.3219 46.353C69.3219 46.9416 69.0341 47.2272 68.4585 47.2099C68.2832 47.2099 68.1079 47.2099 67.9327 47.2099C67.3029 47.2099 67.238 47.1775 67.225 46.5607C67.2056 45.574 67.225 44.5937 67.2121 43.6069C67.2121 43.3472 67.3159 43.2823 67.5496 43.2888C68.9519 43.3277 70.3477 43.3602 71.7499 43.3927C71.9642 43.3927 72.0226 43.49 72.0161 43.6848C71.9966 44.0678 71.9966 44.4444 71.9901 44.8274C72.0356 45.139 72.0551 45.6324 72.4511 45.522C72.8081 45.4246 73.1847 45.4376 73.5223 45.2883C73.4703 44.2691 73.3989 43.2433 73.4314 42.2176L73.4379 42.1981Z" fill="white"/>
<path d="M121.803 50.3322C121.608 50.0465 121.407 49.7609 121.212 49.4817C120.953 49.2675 120.693 49.0598 120.433 48.8455C120.342 48.7936 120.252 48.7416 120.161 48.6897C119.998 48.6053 119.836 48.5209 119.68 48.43C119.602 48.43 119.525 48.4495 119.486 48.3521C119.362 48.2872 119.232 48.2158 119.109 48.1509C118.817 48.1314 118.642 47.8782 118.395 47.7873C117.674 47.5212 116.999 47.1641 116.389 46.7032C115.486 46.028 115.37 44.775 116.129 44.0999C116.954 43.4052 118.2 43.3858 119.012 44.0544C119.31 44.3011 119.447 44.6257 119.505 44.9958C119.544 45.2555 119.661 45.4307 119.972 45.3788C120.31 45.3204 120.667 45.4762 120.992 45.2814C121.018 45.1321 121.096 44.9763 121.063 44.84C120.953 44.4245 121.005 44.0155 121.005 43.6C120.979 43.5286 120.966 43.4507 120.959 43.3793C120.914 43.1001 120.914 42.8145 120.933 42.5288L120.907 41.6719C120.674 41.4966 120.401 41.6264 120.154 41.5615C120.024 41.5615 119.901 41.5615 119.771 41.5615C119.466 41.6005 119.492 41.8342 119.486 42.0484L119.512 42.0809L119.499 42.1133C119.518 42.1588 119.544 42.1977 119.557 42.2432C119.596 42.4379 119.628 42.6392 119.667 42.8534C119.505 42.9119 119.401 42.821 119.291 42.7496C119.2 42.7106 119.07 42.769 119.005 42.6392C118.395 42.3665 117.752 42.3276 117.103 42.3341C117.071 42.3341 117.038 42.3341 117.006 42.3406C116.785 42.3925 116.558 42.4509 116.337 42.5029C116.084 42.6002 115.818 42.6522 115.597 42.821C115.188 43.1261 114.811 43.4572 114.539 43.8986C114.448 44.1064 114.357 44.3141 114.266 44.5219C114.214 44.9309 114.045 45.3334 114.253 45.7424C114.253 45.7424 114.273 45.7553 114.285 45.7553C114.298 45.7618 114.311 45.7683 114.324 45.7748C114.519 46.8784 115.227 47.5991 116.168 48.1119C117.058 48.5923 117.973 49.0273 118.888 49.4687C119.304 49.67 119.674 49.9362 120.011 50.2543C120.706 50.9165 120.829 51.5072 120.466 52.4356C120.135 53.3055 119.362 53.5976 118.577 53.8768C118.388 53.9937 118.181 53.9612 117.973 53.9547C117.811 53.9547 117.655 53.9482 117.493 53.9417C116.48 53.8054 115.714 53.3055 115.175 52.4421C115.071 52.3707 114.98 52.2992 115.006 52.1564C114.837 51.9682 114.753 51.7344 114.694 51.4942C114.591 51.3255 114.519 51.1437 114.519 50.9424C114.435 50.7931 114.389 50.5984 114.149 50.6308C114.091 50.6633 114.032 50.6957 113.974 50.7282C113.851 50.7931 113.734 50.884 113.604 50.9165C113.24 51.0073 113.143 51.2411 113.201 51.5786C113.253 51.6565 113.318 51.7344 113.299 51.8383C113.545 52.4875 113.831 53.1107 114.247 53.6755C115.09 54.6039 116.097 55.2271 117.389 55.318C117.746 55.4543 118.103 55.4479 118.46 55.3115C119.356 55.2401 120.122 54.8571 120.836 54.3442C121.797 53.4873 122.18 52.4031 122.069 51.1372L121.81 50.3452L121.803 50.3322Z" fill="white"/>
<path d="M107.716 35.0761C108.612 34.349 108.619 34.2711 107.703 33.5051C107.535 33.3623 107.431 33.3428 107.268 33.5181C106.885 33.9336 106.418 34.2322 105.905 34.4594C103.75 35.4137 101.354 34.9593 100.095 32.791C98.8613 30.6811 98.9068 28.4998 100.095 26.4158C100.945 24.9357 102.296 24.1696 104.074 24.3189C104.788 24.3774 105.275 24.7344 105.457 25.4031C105.516 25.6173 105.606 25.6952 105.821 25.6433C105.957 25.6108 106.106 25.5459 106.236 25.5654C106.684 25.6108 106.833 25.4031 106.788 24.9876C106.788 24.6046 106.788 24.2281 106.788 23.845C106.788 23.7022 106.775 23.5594 106.775 23.4166C106.775 22.3454 106.775 22.3519 105.684 22.4103C105.373 22.4298 105.282 22.5596 105.366 22.8323C105.496 23.2543 105.353 23.3581 104.957 23.2088C104.84 23.1634 104.711 23.1439 104.594 23.1049C102.322 22.3519 100.517 23.488 99.517 24.9227C98.3679 26.5781 97.7901 28.3959 97.8875 30.4214C97.9979 32.778 98.9457 34.6347 101.172 35.628C103.425 36.6342 105.652 36.7576 107.71 35.0826L107.716 35.0761Z" fill="white"/>
<path d="M65.3295 16.6784C65.7579 16.7953 66.1994 16.7693 66.6344 16.7823C66.894 16.7304 67.1537 16.6719 67.4199 16.62C67.4524 16.62 67.4848 16.607 67.5173 16.6005C68.2249 16.3214 68.7832 15.8604 69.2247 15.2502C69.2571 15.2048 69.2896 15.1723 69.322 15.1268C70.0686 13.7051 70.2569 12.1665 70.2958 10.5954C70.4516 10.2838 70.3867 9.95274 70.3672 9.62815C70.3672 9.13476 70.3672 8.63487 70.3672 8.14148C70.3478 8.08955 70.3348 8.03761 70.3283 7.98568C70.2699 7.71301 70.2828 7.44035 70.2958 7.1612C70.2893 7.12874 70.2764 7.09628 70.2699 7.07031C70.2699 6.21337 70.2699 5.34994 70.2699 4.49299C70.2699 4.26578 70.4257 4.29174 70.575 4.3242C70.588 4.3242 70.601 4.3242 70.6139 4.3242C70.9126 4.31771 71.2112 4.28525 71.5033 4.31771C71.8409 4.35017 71.9902 4.23332 72.0097 3.96065C72.0097 3.9217 72.0227 3.88275 72.0162 3.83081C72.0162 3.66851 72.0162 3.51271 72.0162 3.35041C72.0162 3.33093 72.0097 3.32444 72.0097 3.30496C71.9837 3.06476 71.8409 2.98036 71.5877 2.98036C70.2244 2.98036 68.8676 2.91545 67.5173 2.74016C67.2511 2.7077 67.1342 2.77911 67.1342 3.05827C67.1342 3.14266 67.1148 3.22057 67.0953 3.30496C67.0953 3.31795 67.0888 3.33742 67.0823 3.35041C67.0823 3.38936 67.0823 3.42831 67.0563 3.46726C67.0758 3.49323 67.0758 3.5192 67.0498 3.53867C67.0498 3.56464 67.0498 3.58412 67.0434 3.61009C66.9914 4.05803 67.2511 4.18138 67.6926 4.19436C68.8611 4.2463 68.8481 4.25928 68.8741 5.39538C68.8936 6.20038 68.9455 7.01188 68.9845 7.81688C68.9845 8.80366 68.9845 9.79045 68.9845 10.7772C68.965 11.6407 68.8092 12.4781 68.5755 13.3026C68.4132 13.8934 68.1275 14.4192 67.6796 14.8477C67.2186 15.2827 66.6538 15.419 66.0501 15.3216C65.4074 15.2177 65.0049 14.7179 64.9594 14.0622C64.9075 13.2572 65.0114 12.4781 65.3489 11.7445C65.5177 11.381 65.4788 11.1927 65.0568 11.0564C64.096 10.7448 64.1025 10.7188 63.8493 11.6991C63.7779 11.9717 63.7 12.2444 63.6286 12.5171C63.6221 12.5755 63.6156 12.6274 63.6091 12.6859C63.5766 13.0689 63.5442 13.4454 63.5117 13.8285L63.5442 14.3673C63.5896 14.562 63.6416 14.7633 63.687 14.9581C63.9077 15.8539 64.531 16.3603 65.3554 16.6719L65.3295 16.6784Z" fill="white"/>
<path d="M112.222 47.002C112.222 47.002 112.202 47.002 112.196 46.9955C112.183 46.9955 112.17 46.989 112.157 46.9825L112.046 46.0477C111.91 45.9178 111.956 45.7361 111.917 45.5803C111.845 45.392 111.774 45.2037 111.709 45.0155C111.689 44.957 111.67 44.8986 111.65 44.8402L111.202 44.0482C111.202 44.0482 111.164 44.0222 111.17 43.9962C111.014 43.8209 110.865 43.6521 110.709 43.4769C110.177 42.9705 109.579 42.5745 108.891 42.3148L108.404 42.1785L108.125 42.1265C107.872 42.1006 107.619 42.0681 107.366 42.0421C107.21 41.9318 107.035 41.9577 106.859 41.9577C106.308 41.9577 105.762 41.9577 105.21 41.9577C105.171 41.9577 105.132 41.9577 105.094 41.9577C105.081 41.9577 105.074 41.9577 105.061 41.9577C104.938 41.9577 104.808 41.9707 104.685 41.9707C104.685 41.9707 104.685 41.9772 104.685 41.9837C104.685 41.9837 104.685 41.9837 104.685 41.9902C104.685 42.0032 104.685 42.0227 104.672 42.0356H104.204C104.204 42.0356 104.139 42.0356 104.107 42.0356H103.912C103.854 42.0356 103.795 42.0486 103.737 42.0551C103.425 42.0876 103.113 42.1135 102.802 42.146C102.666 42.159 102.516 42.1525 102.458 42.3213C102.451 42.3343 102.438 42.3473 102.432 42.3537C102.432 42.3537 102.425 42.3602 102.419 42.3667C102.399 42.3862 102.386 42.4122 102.367 42.4316V42.9056C102.367 42.938 102.373 42.9705 102.38 43.0094C102.38 43.0094 102.38 43.0224 102.38 43.0289C102.38 43.2107 102.315 43.4119 102.49 43.5613C102.536 43.5677 102.588 43.5807 102.633 43.5872H102.672C102.802 43.5937 102.925 43.5937 103.055 43.5937C103.516 43.4898 103.665 43.6456 103.646 44.1325C103.626 44.5805 103.646 45.0349 103.672 45.4894C103.672 45.5608 103.678 45.6387 103.685 45.7101C103.691 45.8659 103.704 46.0217 103.711 46.1775C103.711 46.197 103.711 46.223 103.711 46.2424C103.724 46.3398 103.73 46.4307 103.743 46.5281C103.73 46.5605 103.717 46.593 103.711 46.6255C103.711 46.7099 103.711 46.7878 103.711 46.8722C103.711 46.8916 103.711 46.9111 103.711 46.9241C103.711 48.3718 103.711 49.826 103.711 51.2737C103.711 51.3906 103.711 51.5074 103.711 51.6243C103.711 51.6762 103.711 51.7217 103.711 51.7736C103.724 51.8385 103.73 51.9034 103.743 51.9684C103.73 52.0657 103.717 52.1566 103.711 52.254C103.711 52.28 103.711 52.2995 103.711 52.3189C103.724 52.8383 103.665 53.3512 103.555 53.851C103.555 53.851 103.555 53.864 103.555 53.8705C103.574 53.9484 103.574 54.0068 103.568 54.0523C103.568 54.0588 103.568 54.0653 103.568 54.0783C103.529 54.2211 103.386 54.2665 103.198 54.247C103.016 54.2276 102.847 54.1562 102.672 54.1042C102.484 54.0328 102.341 54.0328 102.231 54.1042C102.218 54.1107 102.205 54.1237 102.192 54.1367C102.127 54.1951 102.068 54.2795 102.049 54.4158C102.049 54.4353 102.042 54.4483 102.042 54.4613C102.042 54.6885 101.971 54.8897 101.848 55.078C101.841 55.091 101.835 55.104 101.828 55.117C101.828 55.1494 101.815 55.1819 101.809 55.2143C101.809 55.2533 101.828 55.2793 101.841 55.3117C101.899 55.4416 102.049 55.4675 102.179 55.5065C102.711 55.6688 103.263 55.7207 103.808 55.7921C103.847 55.7921 103.886 55.7986 103.925 55.8051C103.983 55.8246 104.048 55.8506 104.107 55.87C104.146 55.87 104.178 55.883 104.217 55.883C104.23 55.883 104.243 55.883 104.256 55.883C104.263 55.883 104.269 55.883 104.276 55.883C104.581 55.8635 104.892 55.9609 105.184 55.8116C105.528 55.7791 105.866 55.7532 106.21 55.7207C106.217 55.7207 106.223 55.7207 106.23 55.7207C106.45 55.6818 106.671 55.6363 106.892 55.5974C106.911 55.5909 106.931 55.5844 106.95 55.5779C108.333 55.117 109.489 54.3314 110.43 53.2278C110.462 53.1759 110.488 53.1174 110.527 53.072C111.488 51.8255 112.027 50.4103 112.157 48.8457C112.365 48.2485 112.202 47.6382 112.235 47.0345L112.222 47.002ZM109.898 51.5594C108.82 53.1174 107.333 54.1237 105.451 54.5067C104.951 54.6106 104.892 54.5522 104.944 54.0458C105.223 51.5853 105.197 49.1184 105.132 46.6514C105.107 45.7101 105.094 44.7623 105.035 43.8144C105.009 43.399 105.107 43.1717 105.574 43.2626C105.73 43.2886 105.892 43.2626 106.048 43.2626C106.736 43.2626 107.418 43.3211 108.08 43.4963C109.43 43.8534 110.313 44.6844 110.638 46.0866C111.086 48.0083 111.06 49.8779 109.898 51.5594Z" fill="white"/>
<path d="M113.474 37.0048C114 37.0048 114.532 36.9918 115.058 36.9853C115.103 36.9853 115.149 36.9853 115.194 36.9853C115.37 36.6412 115.253 36.2647 115.292 35.9076C115.324 35.6349 115.201 35.5506 114.935 35.557C114.11 35.57 113.279 35.557 112.455 35.557C111.981 35.557 111.903 35.4662 112.072 35.0442C112.461 34.0769 112.864 33.1096 113.24 32.1358C113.338 31.8826 113.467 31.7982 113.734 31.8177C114.974 31.9021 116.214 31.9994 117.447 31.8177C117.7 31.7787 117.759 31.8891 117.804 32.1228C117.94 32.8564 118.109 33.577 118.265 34.3106C118.142 34.7261 117.785 34.3885 117.577 34.5248C117.285 34.4924 116.928 34.3366 116.72 34.4534C116.486 34.5897 116.681 34.9922 116.616 35.2714C116.616 35.2844 116.616 35.3039 116.623 35.3233C116.668 35.583 116.447 35.992 117.012 35.9531C118.291 35.9141 119.57 35.8557 120.849 35.8362C122.05 35.8167 122.05 35.8297 121.965 34.6157C121.868 34.4209 121.686 34.5183 121.544 34.5183C120.927 34.5053 120.31 34.5053 119.7 34.5053C119.667 34.4015 119.622 34.2976 119.602 34.1872C119.148 31.967 118.505 29.7987 117.824 27.6433C117.415 26.3514 117.032 25.0465 116.636 23.7481C116.551 23.4235 116.363 23.3067 116.025 23.3846C115.545 23.495 115.045 23.456 114.558 23.4495C114.208 23.3327 113.851 23.3586 113.487 23.3846C113.377 23.3846 113.266 23.3716 113.156 23.3716C111.981 23.3456 111.987 23.3456 112.059 24.5207C112.072 24.7544 112.143 24.8063 112.37 24.7998C113.136 24.7869 113.896 24.7998 114.662 24.7869C114.941 24.7869 114.987 24.8518 114.85 25.1115C113.182 28.2666 111.877 31.5775 110.663 34.9273C110.52 35.3233 110.338 35.4272 109.942 35.4012C109.605 35.3753 109.248 35.2779 108.917 35.4662C108.917 35.5181 108.917 35.57 108.917 35.6155C108.917 35.8622 108.936 36.1154 108.904 36.362C108.852 36.8035 109.02 36.9139 109.449 36.9139C110.228 36.9139 111.014 36.8554 111.793 36.8944C112.052 36.9074 112.312 36.9333 112.565 36.9788C112.877 36.9853 113.182 36.9983 113.493 37.0048H113.474ZM117.272 29.8766C117.369 30.2077 117.285 30.4089 116.915 30.4089C116.025 30.4219 115.136 30.4284 114.24 30.4284C113.825 30.4284 114.032 30.1557 114.091 30.0064C114.461 29.0456 114.857 28.0978 115.24 27.1434C115.467 26.5722 115.675 25.9944 115.921 25.3192C116.395 26.9097 116.83 28.3899 117.272 29.8766Z" fill="white"/>
<path d="M68.1286 22.5986C67.2911 22.5986 66.4471 22.6311 65.6097 22.683C65.4474 22.683 65.2916 22.6895 65.1293 22.696C64.8306 22.8648 65.0124 23.118 65.0319 23.3322C65.0968 24.1177 65.1033 24.1177 65.8953 24.1307C65.9602 24.1307 66.0187 24.1437 66.0836 24.1437C66.2783 24.1048 66.2913 24.2346 66.2848 24.3709C66.2783 25.5005 66.2654 26.6236 66.2589 27.7533C66.168 28.6102 66.181 29.4736 66.181 30.3371C66.181 31.5251 66.181 32.7131 66.181 33.8947C66.181 34.0894 66.2069 34.2972 65.8953 34.2193C65.5837 34.2257 65.2721 34.2322 64.9605 34.2387C64.2139 34.4335 64.2334 34.4335 64.2658 35.1931C64.2853 35.5956 64.4022 35.8228 64.8436 35.7579C65.3435 35.615 65.8629 35.6605 66.3692 35.6605C66.9405 35.5306 67.5118 35.5501 68.0896 35.5761C68.3428 35.5761 68.6025 35.5761 68.8557 35.5761H69.3166C69.4334 35.6735 69.5828 35.6215 69.7126 35.667C69.7775 35.667 69.8424 35.667 69.9074 35.667C70.1605 35.667 70.4202 35.667 70.6734 35.667C70.7383 35.667 70.7968 35.667 70.8617 35.667C71.1798 35.667 71.4979 35.667 71.816 35.667C72.1016 35.667 72.3873 35.667 72.6729 35.6735C72.7768 35.641 72.9067 35.6929 72.9716 35.5696C73.004 35.5306 73.0365 35.4982 73.069 35.4592C72.9975 34.5114 72.9261 33.5701 72.8547 32.6222C72.8482 32.4924 72.8482 32.3041 72.7444 32.2782C72.3873 32.2003 72.0043 32.1678 71.6667 32.2782C71.381 32.369 71.5433 32.6872 71.5433 32.9079C71.5498 33.3753 71.7251 33.8362 71.6083 34.3101C70.9396 34.3231 70.2709 34.3296 69.6022 34.3426C69.2582 34.3296 68.9141 34.3166 68.5765 34.3037C68.2584 34.1868 67.9273 34.2063 67.5962 34.2452C67.369 34.1219 67.4729 33.9076 67.4794 33.7324C67.5183 32.7586 67.5703 31.7783 67.6222 30.8045C67.752 30.4864 67.7131 30.1618 67.6871 29.8372C67.7044 29.3914 67.9446 29.1685 68.4077 29.1685C68.6284 29.1685 68.8557 29.1945 69.0699 29.1685C69.4724 29.1231 69.6087 29.2659 69.5308 29.6684C69.4854 29.9151 69.5243 30.1748 69.5178 30.4279C69.5178 30.5902 69.5633 30.7136 69.758 30.7006C70.1086 30.6876 70.4527 30.6681 70.7968 30.6422C70.9591 30.6292 71.037 30.5383 71.0045 30.35C70.8487 29.3957 70.9396 28.4284 70.9526 27.4676C71.0175 27.0521 71.1603 26.6366 70.9331 26.2211C70.641 26.0718 70.3034 26.1757 69.9982 26.0653C69.6087 25.929 69.4919 26.0913 69.4984 26.4743C69.4984 26.8768 69.6866 27.4157 69.414 27.6559C69.1283 27.9155 68.596 27.7013 68.174 27.7403C67.8819 27.7662 67.7845 27.6624 67.7845 27.3702C67.7975 26.4678 67.7845 25.559 67.791 24.6566C67.791 24.4423 67.7196 24.2151 67.8689 24.0204C69.0504 24.0204 70.232 24.0204 71.42 24.0204C71.5758 24.0983 71.5109 24.2411 71.5044 24.3579C71.4524 25.3837 71.4524 25.3707 72.4782 25.3642C72.7508 25.3642 72.8417 25.2733 72.8417 25.0071C72.8417 24.5202 72.8158 24.0333 72.9391 23.5529C72.9391 23.54 72.9326 23.5205 72.9391 23.5075C72.9391 23.5075 72.9391 23.501 72.9391 23.4945C72.9521 22.8193 72.9456 22.8129 72.2834 22.7674C72.0432 22.8453 71.829 22.7674 71.6083 22.683C70.4397 22.6181 69.2776 22.5921 68.1091 22.5986H68.1286Z" fill="white"/>
<path d="M78.0272 36.2254C78.7738 36.076 79.5204 35.9267 80.202 35.5762C82.8962 34.1999 84.1881 31.9277 84.4478 28.9933C84.5841 28.5778 84.5776 28.1558 84.4478 27.7404C84.4088 27.4093 84.3893 27.0782 84.3309 26.7536C83.9284 24.2801 82.1431 22.6182 79.7606 22.4948C79.6113 22.391 79.4295 22.4429 79.2672 22.3975C79.1698 22.3975 79.0789 22.3975 78.9815 22.3975C78.4752 22.3975 77.9688 22.3975 77.4624 22.3975H77.4559C77.1638 22.4494 76.8651 22.378 76.5795 22.4948C76.0536 22.5208 75.5213 22.5468 74.9955 22.5792C74.8656 22.5857 74.6449 22.5208 74.7033 22.8C74.7033 23.0207 74.6903 23.2349 74.6903 23.4557C74.6903 23.5271 74.6903 23.592 74.6903 23.6439C74.6903 24.0334 74.7617 24.0984 75.1058 24.0205C75.1837 24.001 75.2746 23.9815 75.3785 23.949C75.5603 24.0075 75.7745 23.8452 75.9303 24.0334C75.9433 24.9553 75.8719 25.8772 75.9693 26.799C75.9628 26.9353 75.9563 27.0652 76.0082 27.195C76.0147 27.5391 76.0212 27.8767 76.0342 28.2208C76.0342 29.4672 76.0342 30.7137 76.0342 31.9601C76.0212 32.6548 75.9433 33.3364 75.8329 34.0181C75.8264 34.057 75.8199 34.096 75.8134 34.1414C75.8134 34.2713 75.8134 34.3946 75.807 34.5245C75.8005 34.5375 75.794 34.5504 75.7875 34.5634C75.6317 34.8685 75.4109 34.6868 75.2032 34.6218C75.1902 34.6218 75.1772 34.6154 75.1642 34.6089C74.6189 34.6089 74.3289 34.795 74.2943 35.1672C74.2943 35.1672 74.2424 35.1866 74.2164 35.1931C74.2684 35.4398 73.9957 35.8099 74.4761 35.9008L75.359 36.1215C76.2419 36.2903 77.1378 36.2059 78.0272 36.2319V36.2254ZM80.7214 24.0724C81.8315 24.4359 82.5651 25.189 82.8378 26.3186C83.2208 27.9416 83.448 29.6165 82.669 31.1616C81.6238 33.2261 79.8904 34.492 77.6117 34.9854C77.2612 35.0633 77.1054 34.9854 77.1768 34.5894C77.5533 32.3886 77.4494 30.1619 77.4429 27.9481C77.4754 27.591 77.5079 27.2275 77.378 26.8834C77.3715 25.9486 77.3585 25.0137 77.3585 24.0789C77.3585 23.9296 77.3001 23.7478 77.5663 23.7478C78.631 23.7413 79.6957 23.7413 80.7279 24.0789L80.7214 24.0724Z" fill="white"/>
<path d="M147.855 34.5964C147.907 33.9472 147.861 33.3045 147.758 32.6618C147.738 32.5255 147.745 32.3048 147.621 32.2853C147.264 32.2334 146.868 32.1425 146.55 32.2853C146.297 32.4021 146.466 32.7332 146.479 32.9734C146.498 33.4214 146.654 33.8628 146.531 34.3173C145.862 34.3173 145.187 34.3303 144.518 34.3303C144.206 34.3173 143.895 34.3108 143.577 34.2978C143.226 34.168 142.869 34.1939 142.512 34.2264C142.298 34.116 142.382 33.9278 142.389 33.7655C142.434 32.902 142.486 32.0386 142.532 31.1752C142.668 30.8571 142.622 30.5325 142.596 30.2014C142.631 29.5046 142.997 29.1562 143.694 29.1562C143.791 29.1562 143.888 29.1691 143.979 29.1562C144.356 29.1172 144.505 29.2081 144.46 29.6496C144.349 30.6883 144.564 30.8441 145.589 30.6233C145.804 30.5779 145.888 30.513 145.881 30.2598C145.855 29.3899 145.881 28.5199 145.881 27.6435C145.953 27.1631 146.076 26.6827 145.862 26.2023C145.524 26.0465 145.141 26.1374 144.791 26.014C144.628 25.9556 144.551 26.0595 144.499 26.2348C144.395 26.6113 144.44 26.9943 144.434 27.3709C144.434 27.6305 144.369 27.7474 144.083 27.7279C143.752 27.702 143.414 27.702 143.083 27.7279C142.778 27.7539 142.707 27.637 142.713 27.3514C142.733 26.3646 142.713 25.3843 142.726 24.3975C142.726 24.2677 142.668 24.1119 142.804 24.0015C143.986 24.0015 145.174 24.0015 146.355 24.0015C146.505 24.1054 146.433 24.2612 146.433 24.3975C146.453 25.4038 146.446 25.3973 147.465 25.3389C147.667 25.3259 147.758 25.2675 147.758 25.0662C147.751 24.4105 147.829 23.7678 147.907 23.1186C147.939 22.8849 147.848 22.794 147.634 22.7746C146.758 22.7096 145.875 22.5993 144.999 22.5928C143.505 22.5798 142.006 22.5473 140.513 22.6577C140.013 22.6966 139.896 22.8005 139.928 23.2939C139.987 24.0989 139.948 24.1249 140.746 24.0989C141.155 24.0859 141.207 24.2352 141.201 24.5858C141.175 26.3776 141.201 28.1629 141.11 29.9547C141.038 31.2531 141.09 32.558 141.097 33.8628C141.097 34.1095 141.058 34.2264 140.766 34.2264C140.24 34.2264 139.721 34.2783 139.195 34.3108C139.019 34.7977 139.234 35.2586 139.286 35.7325C139.286 35.7325 139.299 35.7325 139.305 35.7325C139.552 35.7325 139.792 35.7325 140.039 35.7325C140.058 35.7325 140.078 35.7325 140.091 35.726C140.896 35.6027 141.707 35.5443 142.525 35.5572C143.096 35.5572 143.661 35.5572 144.232 35.5572C144.356 35.6481 144.505 35.6287 144.648 35.6287C145.628 35.6352 146.609 35.6416 147.595 35.6416C147.699 35.6416 147.823 35.6741 147.9 35.5637C148.134 35.2262 147.848 34.908 147.874 34.5705L147.855 34.5964Z" fill="white"/>
<path d="M131.315 22.4497C129.874 22.7224 128.406 22.7094 126.946 22.8068C126.848 22.8393 126.745 22.8457 126.641 22.8393C126.745 22.8263 126.842 22.8198 126.946 22.8068C126.076 22.8003 125.206 22.7224 124.343 22.8717C123.972 22.8847 123.602 22.8977 123.226 22.9042C122.895 22.8782 122.57 22.8328 122.246 22.9626C122.168 22.9626 122.09 22.9756 122.005 22.9821C121.278 23.0275 121.2 23.1054 121.2 23.839C121.2 24.6181 121.213 25.3906 121.2 26.1696C121.174 27.1564 121.168 27.1369 122.174 27.2863C122.531 27.3382 122.635 27.2278 122.629 26.9032C122.629 26.1567 122.642 25.4101 122.629 24.67C122.622 24.3649 122.661 24.2091 123.025 24.1896C123.356 24.1766 123.687 24.1247 124.018 24.1247C124.784 24.1247 125.189 24.5055 125.232 25.2673C125.219 25.9749 125.154 26.6825 125.297 27.3836C125.31 27.7212 125.316 28.0588 125.329 28.4029C125.31 28.7275 125.264 29.0586 125.394 29.3767C125.485 30.8698 125.453 32.3695 125.628 33.8561C125.673 34.2197 125.511 34.2586 125.232 34.2132C124.752 34.1093 124.265 34.0249 123.784 34.2327C123.57 34.5573 123.518 34.9273 123.486 35.2974C123.466 35.4986 123.538 35.57 123.745 35.5635C124.076 35.5505 124.401 35.57 124.732 35.5765C125.089 35.7128 125.44 35.7193 125.797 35.57C126.563 35.57 127.322 35.5635 128.088 35.5635C128.991 35.5635 128.978 35.5635 128.952 34.6676C128.939 34.3365 128.815 34.2132 128.491 34.2327C128.14 34.2521 127.79 34.2327 127.439 34.2392C127.115 34.2457 126.946 34.1353 126.939 33.7782C126.913 32.4669 126.706 31.1685 126.738 29.8506C126.764 29.2728 126.796 28.6885 126.667 28.1172C126.66 26.9422 126.667 25.7671 126.634 24.5921C126.621 24.1896 126.764 24.0533 127.134 24.0403C128.023 24.0143 128.913 23.9818 129.802 23.9364C130.094 23.9234 130.198 24.0468 130.192 24.3324C130.179 25.0141 130.192 25.6957 130.192 26.3774C130.192 27.0612 130.536 27.388 131.224 27.3577C131.224 27.3577 131.256 27.3577 131.269 27.3577C131.451 27.3836 131.529 27.3057 131.529 27.1175C131.529 25.6243 131.529 24.1312 131.529 22.638C131.529 22.4887 131.503 22.3978 131.315 22.4368V22.4497Z" fill="white"/>
<path d="M137.327 22.5993C136.184 22.6187 135.041 22.6058 133.892 22.6058C132.672 22.6058 132.678 22.6058 132.782 23.8198C132.802 24.0794 132.906 24.1508 133.133 24.1249C133.561 24.0794 133.983 24.0405 134.412 23.9756C134.645 23.9431 134.73 23.995 134.697 24.2482C134.658 24.5598 134.574 24.852 134.58 25.1766C134.6 26.0011 134.58 26.8255 134.567 27.65C134.431 28.3187 134.483 28.9939 134.503 29.669C134.438 31.1102 134.366 32.5515 134.314 33.9927C134.288 34.7328 134.314 34.7328 133.587 34.7263C132.484 34.7263 132.49 34.7263 132.574 35.8104C132.594 36.0312 132.665 36.122 132.886 36.135C134.269 36.1935 135.652 36.2584 137.028 36.3298C137.288 36.3428 137.346 36.2324 137.359 35.9987C137.411 34.8951 137.417 34.8951 136.314 34.9145C136.249 34.9145 136.184 34.9145 136.126 34.921C135.814 34.9665 135.73 34.8301 135.73 34.5185C135.704 33.2136 135.807 31.9152 135.846 30.6169C135.957 30.2663 135.937 29.9092 135.911 29.5522C135.924 29.1756 135.931 28.7991 135.944 28.4291C136.061 28.046 136.028 27.6565 136.009 27.267C136.022 26.8905 136.035 26.5204 136.048 26.1439C136.171 25.7933 136.126 25.4363 136.113 25.0727C136.113 24.9299 136.126 24.7871 136.126 24.6442C136.132 23.9301 136.126 23.9366 136.84 23.9366C137.859 23.9366 137.729 24.1249 137.749 22.9888C137.749 22.6772 137.645 22.5928 137.333 22.5928L137.327 22.5993Z" fill="white"/>
<path d="M109.247 16.3404C109.773 16.4248 110.286 16.5741 110.806 16.691C110.812 16.691 110.825 16.691 110.831 16.691C111.422 16.691 112.02 16.691 112.61 16.691C113.798 16.4832 114.902 16.0807 115.908 15.4121C115.954 15.3861 115.999 15.3601 116.038 15.3342C116.213 15.1654 116.33 14.9382 116.583 14.8667L116.642 14.8083C116.759 14.6915 116.882 14.5681 116.999 14.4513C117.031 14.4188 117.057 14.3928 117.09 14.3604C117.09 14.2305 117.187 14.1656 117.285 14.1072C117.336 14.0552 117.382 14.0033 117.434 13.9514C117.447 13.9384 117.46 13.9254 117.473 13.9124C117.512 13.854 117.551 13.7956 117.583 13.7371C117.59 13.7242 117.603 13.7112 117.609 13.6982C117.719 13.5489 117.823 13.3996 117.934 13.2502C118.064 13.0165 118.193 12.7828 118.323 12.5426C118.992 11.017 119.174 9.41348 119.089 7.76452C119.076 7.73206 119.063 7.70609 119.057 7.67363C118.992 7.47238 119.005 7.26464 119.005 7.06339C118.875 6.82968 118.836 6.57 118.784 6.31032L118.589 5.83641C118.518 5.71955 118.421 5.60919 118.427 5.45338C118.206 5.13527 117.979 4.81067 117.758 4.49257C117.499 4.25236 117.246 4.01216 116.986 3.77196C116.239 3.29804 115.434 2.98643 114.532 2.94748C114.506 2.928 114.467 2.92151 114.435 2.91502C114.376 2.89554 114.324 2.88256 114.266 2.86308C114.253 2.86308 114.24 2.85659 114.227 2.8501C113.156 2.85659 112.084 2.86308 111.02 2.87607C111.013 2.88905 111 2.90203 110.987 2.91502C110.981 2.928 110.974 2.93449 110.961 2.94748C110.741 2.94748 110.526 2.94748 110.306 2.94748C110.065 2.94748 109.832 2.96046 109.592 2.96046C109.572 2.96046 109.559 2.96046 109.54 2.96046C109.202 3.10328 109.364 3.39542 109.358 3.62264C109.338 4.39519 109.358 4.41466 110.104 4.34974C110.474 4.31728 110.546 4.44712 110.481 4.75225C110.481 4.75225 110.481 4.75874 110.481 4.76523C110.487 4.87559 110.494 4.98596 110.507 5.09632C110.526 5.12878 110.533 5.16124 110.539 5.1937C110.559 5.25862 110.578 5.33003 110.585 5.39495C110.591 5.50531 110.585 5.61568 110.585 5.73253C110.585 5.7585 110.585 5.79096 110.585 5.81693C110.598 5.97274 110.604 6.12854 110.617 6.28435C110.604 6.47911 110.591 6.66738 110.585 6.86214C110.591 6.93355 110.591 6.99847 110.591 7.06988C110.591 7.1348 110.598 7.20621 110.598 7.27113C110.598 7.68013 110.552 8.09561 110.676 8.49811C110.676 8.93957 110.676 9.38102 110.682 9.81598C110.682 9.8809 110.682 9.94582 110.682 10.0043C110.546 10.608 110.728 11.2118 110.682 11.8155C110.682 11.835 110.682 11.8545 110.682 11.8739C110.695 12.1661 110.708 12.4647 110.656 12.7568C110.643 12.8348 110.63 12.9191 110.604 12.9971C110.598 13.1464 110.591 13.2892 110.578 13.4385C110.578 13.471 110.578 13.4969 110.585 13.5294C110.598 13.6722 110.585 13.815 110.513 13.9449C110.5 13.9644 110.494 13.9838 110.481 14.0098C110.481 14.2305 110.481 14.4577 110.481 14.6785C110.481 14.6915 110.481 14.6979 110.481 14.7109C110.468 15.2822 110.455 15.2757 109.721 14.9836C109.494 14.9836 109.228 14.8667 109.066 15.055C109.027 15.1005 108.994 15.1654 108.968 15.2563C108.968 15.2757 108.962 15.3017 108.955 15.3212C108.936 15.4575 108.923 15.5938 108.871 15.7172C108.715 16.0872 108.812 16.2625 109.228 16.3274L109.247 16.3404ZM114.993 4.3887C116.434 4.73926 117.239 5.65463 117.59 7.0504C117.856 8.11509 117.843 9.19925 117.739 10.2704C117.616 11.5364 116.908 12.5426 116.006 13.4125C114.934 14.4448 113.714 15.2043 112.201 15.4315C111.89 15.477 111.76 15.4445 111.825 15.081C111.968 14.3019 112.026 13.5099 112.052 12.7179C112.175 12.3349 112.143 11.9454 112.117 11.5558C112.117 10.8028 112.117 10.0432 112.117 9.29013C112.143 8.96554 112.175 8.63445 112.052 8.31634C112.052 6.95952 112.052 5.60269 112.052 4.24587C112.37 4.23938 112.682 4.2264 113 4.2199C113.662 4.24587 114.324 4.24587 114.986 4.40817L114.993 4.3887Z" fill="white"/>
<path d="M83.2988 3.72676C83.2339 4.0968 83.4027 4.23962 83.7532 4.22015C83.909 4.22015 84.0713 4.20067 84.2271 4.20716C84.8309 4.20716 84.8633 4.2591 84.727 4.84987C84.701 4.95374 84.714 5.07059 84.714 5.18096C84.7075 5.75225 84.701 6.31705 84.6946 6.88835V6.94028C84.6946 7.19996 84.6946 7.45964 84.6946 7.72581C84.6816 7.72581 84.6686 7.7323 84.6621 7.7388C84.6491 7.7388 84.6361 7.7388 84.6231 7.75178L84.6037 8.03093C84.6037 8.13481 84.6037 8.23868 84.6037 8.34255C84.6037 8.34255 84.6037 8.34904 84.6037 8.35553C84.6037 8.69311 84.6037 9.0307 84.6037 9.36828C84.6037 9.39425 84.6037 9.41372 84.6037 9.43969C84.6037 9.5111 84.6037 9.57602 84.6037 9.64744C84.6037 9.74481 84.6037 9.8357 84.6102 9.93308C84.6166 9.95256 84.6231 9.96554 84.6296 9.98502C84.6491 10.037 84.6751 10.0889 84.6946 10.1343C84.6946 10.3486 84.701 10.5563 84.7075 10.7705C84.7075 10.8095 84.7075 10.8485 84.7075 10.8874C84.7075 10.9393 84.714 10.9848 84.7205 11.0367C84.74 11.1081 84.7465 11.186 84.766 11.2574C84.8374 11.595 84.8893 11.9326 84.9088 12.2767C84.9088 12.2897 84.9088 12.3027 84.9088 12.3156L84.9997 12.6987C84.9997 12.6987 85.0191 12.7506 85.0256 12.7766C85.0516 12.8415 85.0776 12.8999 85.0906 12.9648C85.4671 14.3281 86.1552 15.4578 87.4926 16.094C87.5056 16.094 87.525 16.1005 87.538 16.1069C87.8626 16.2043 88.1937 16.3017 88.5183 16.3991C88.9403 16.3991 89.3688 16.5159 89.7778 16.3277C89.8687 16.3277 89.9595 16.3212 90.0504 16.3147C90.1024 16.3017 90.1543 16.2757 90.2062 16.2563C90.9009 16.029 91.5371 15.6915 92.0175 15.1202C92.0305 15.1007 92.05 15.0942 92.0629 15.0747C92.9913 13.7633 93.199 12.2442 93.3094 10.6926C93.4717 9.80324 93.4587 8.90735 93.3094 8.01795C93.3808 7.47262 93.1211 6.94677 93.2315 6.40145C93.2315 6.35601 93.2315 6.31705 93.2315 6.27161C93.2315 6.10282 93.2315 5.92753 93.225 5.75874V5.73927C93.225 5.551 93.212 5.35624 93.2055 5.16797C93.199 4.99269 93.199 4.8239 93.1796 4.64862C93.1341 4.23962 93.3484 4.16821 93.6924 4.22015C94.452 4.337 94.452 4.33051 94.4455 3.57744C94.4455 3.49954 94.4455 3.42163 94.4455 3.33724C94.426 3.05159 94.3157 2.86332 93.9911 2.84385C92.803 2.77244 91.615 2.68155 90.4205 2.61014C90.2387 2.59715 89.979 2.56469 89.9725 2.83086C89.966 3.21389 89.8427 3.62288 90.0504 3.98643C90.0829 4.03837 90.2582 4.01889 90.3685 4.02539C90.7321 4.03188 91.1021 4.03837 91.4657 4.03837C91.6734 4.03837 91.7708 4.11627 91.7773 4.34999C91.8227 5.34326 91.9136 6.33653 91.9526 7.3298C91.998 8.59574 92.037 9.86816 91.8617 11.1341C91.7189 12.1793 91.5176 13.1985 90.8879 14.075C90.6347 14.432 90.3231 14.7696 89.8881 14.841C88.6482 15.0488 87.8042 14.9124 87.0317 13.8283C86.3695 12.9064 86.1098 11.8028 86.0644 10.6991C85.9929 9.08263 86.0124 7.46613 86.1552 5.84963C86.2721 5.49906 86.2396 5.13551 86.2137 4.77846C86.2007 4.08381 86.2007 4.09031 86.9343 4.0124C87.0771 3.99942 87.2134 3.94748 87.3563 3.9345C87.4861 3.92151 87.5705 3.87607 87.5705 3.73974C87.5705 3.38917 87.6484 2.99965 87.5186 2.70752C87.3952 2.44134 87.0317 2.73998 86.772 2.69453C86.6616 2.67506 86.5513 2.69453 86.4409 2.70102C85.954 2.68804 85.4671 2.6426 84.9932 2.76594C84.8179 2.76594 84.6491 2.76594 84.4738 2.78542C84.0778 2.83086 83.6623 2.67506 83.2793 2.87631C83.2793 2.90227 83.2793 2.93473 83.2793 2.9607V3.4476C83.2793 3.4476 83.2793 3.47357 83.2793 3.48655C83.2923 3.56446 83.3053 3.64885 83.2923 3.72676H83.2988Z" fill="white"/>
<path d="M74.9772 16.1262C75.4446 15.9769 75.925 16.0288 76.4055 16.0353C77.2624 16.0028 78.1258 15.9963 78.9828 16.0418C79.2814 16.0223 79.58 16.0158 79.8657 16.1132C79.9566 16.0807 80.041 16.0807 80.1254 16.1197C80.5928 16.1521 81.0602 16.0548 81.5341 16.1976C81.8327 16.2885 82.008 16.0483 82.0405 15.5808C82.0405 15.5679 82.0405 15.5614 82.0405 15.5484C81.8912 14.7044 81.8392 13.854 81.8457 12.997C81.8457 12.8737 81.9171 12.666 81.6769 12.6984C81.2809 12.7439 80.8654 12.5621 80.4954 12.8023C80.4694 12.8218 80.4954 12.9191 80.4954 12.9841C80.5279 13.458 80.5279 13.9384 80.6123 14.3993C80.6772 14.7369 80.5798 14.7953 80.2682 14.8018C79.1061 14.8343 77.9505 14.7239 76.795 14.7044C76.4769 14.7044 76.4963 14.5291 76.4898 14.3084C76.4509 13.1658 76.5548 12.0297 76.6067 10.8936C76.7365 10.5171 76.6781 10.1211 76.6846 9.73807C77.0676 9.53682 77.4831 9.66666 77.8856 9.65367C78.5283 9.62771 78.5283 9.64718 78.5218 10.2899C78.5132 10.8612 78.7815 11.123 79.3268 11.0754C79.3918 11.0754 79.4567 11.0494 79.5151 11.0624C79.8916 11.1274 79.9695 10.9196 79.9501 10.6145C79.9501 10.6145 79.9501 10.608 79.9501 10.6015V8.21895C79.9501 8.1735 79.9501 8.13455 79.9436 8.08911C79.9306 7.93979 79.9306 7.79048 79.9566 7.64116C79.9695 7.56326 79.989 7.49185 80.0215 7.41394C80.0345 7.26463 80.041 7.1218 80.0539 6.97249C80.0604 6.88809 80.0539 6.82317 80.0345 6.76475C80.002 6.6414 79.9046 6.56999 79.6839 6.58297C79.4177 6.59595 79.1516 6.52454 78.8854 6.49858C78.6517 6.4791 78.5283 6.56999 78.5283 6.82317C78.5283 7.03092 78.5153 7.23217 78.5024 7.43991C78.4699 8.10858 78.4245 8.16052 77.7688 8.20596C76.6651 8.29036 76.6651 8.29036 76.6781 7.18672C76.6846 6.38172 76.6976 5.57022 76.6781 4.76522C76.6781 4.49256 76.756 4.40167 77.0287 4.40816C78.0609 4.41465 79.0931 4.40816 80.1254 4.39518C80.4045 4.39518 80.4954 4.47308 80.4564 4.75223C80.424 5.01841 80.4435 5.29107 80.424 5.55724C80.411 5.75849 80.5019 5.83639 80.6772 5.84289C80.6837 5.84289 80.6902 5.84289 80.6966 5.84289C80.9823 5.84289 81.2679 5.84289 81.5536 5.84289C81.5731 5.84289 81.599 5.84289 81.6185 5.84289C81.664 5.84289 81.7094 5.83639 81.7548 5.8299C81.7808 5.8299 81.8133 5.8299 81.8392 5.82341C81.8652 5.03788 81.7808 4.24586 81.9561 3.46682V3.45384C81.9366 3.2461 81.8133 3.22662 81.6315 3.22013C81.0667 3.19416 80.4954 3.13573 79.9306 3.09029C79.8852 3.09029 79.8332 3.09029 79.7878 3.09029C79.4242 3.0773 79.0672 3.07081 78.7036 3.05783C78.4569 2.91501 78.1843 3.01888 77.9311 2.96045C77.9246 2.96045 77.9181 2.96045 77.9051 2.96045C77.548 2.96045 77.1845 2.96045 76.8274 2.96694C76.8144 2.96694 76.795 2.96694 76.782 2.96694C76.6262 3.01888 76.4444 2.95396 76.2951 3.06432C76.1717 3.07081 76.0484 3.0838 75.925 3.09029C75.9186 3.09029 75.9121 3.09029 75.9056 3.09029C75.6329 3.0838 75.3667 3.0773 75.0941 3.09678C75.0227 3.09678 74.9513 3.10976 74.8863 3.12275C74.8084 3.13573 74.7305 3.14222 74.6526 3.1617C74.2891 3.14222 73.8996 3.0773 73.932 3.6486C73.932 3.66807 73.932 3.67457 73.932 3.69404C73.932 4.62239 73.945 4.63538 74.8669 4.58993C75.1915 4.57046 75.3148 4.66784 75.2499 4.98595C75.0356 4.98595 74.9318 5.05087 75.0227 5.28458C75.0681 5.40792 75.1006 5.53776 75.0421 5.65462C75.0227 5.68708 75.0032 5.71954 74.9707 5.752V5.94027C74.9707 5.97922 74.9707 6.01168 74.9707 6.05063C74.9707 6.27136 75.0097 6.4791 75.1785 6.6414C75.1979 6.66087 75.2109 6.68035 75.2369 6.69983C75.2499 6.73229 75.2629 6.77124 75.2759 6.8037C75.1979 7.05039 75.0681 7.30358 75.2564 7.55677C75.2304 7.771 75.1655 7.98524 75.12 8.19947C75.0746 8.40722 75.0616 8.62145 75.133 8.84218C75.133 8.86165 75.1395 8.87464 75.146 8.89411C75.146 8.89411 75.1395 8.91359 75.133 8.92657C75.0097 9.20573 74.9642 9.49787 74.9707 9.80299C74.9837 10.3223 74.9318 10.8417 75.0292 11.3546C75.0421 11.4325 75.0551 11.5169 75.0746 11.5948C75.0746 11.6986 75.0681 11.8025 75.0616 11.9129C75.0616 11.9129 75.0616 11.9129 75.0616 11.9194C75.0616 11.9583 75.0616 11.9973 75.0616 12.0427L75.0811 12.7114C75.0811 12.8672 75.0811 13.023 75.0811 13.1788C75.0486 13.6268 75.0811 14.0812 74.9772 14.5227C74.9188 14.6525 74.8214 14.7174 74.6786 14.7239C74.367 14.7239 74.0554 14.7239 73.7373 14.7174C73.7243 14.7369 73.7113 14.7499 73.6918 14.7694C73.6853 14.7758 73.6788 14.7823 73.6723 14.7953L73.6529 14.7823L73.6334 14.8018C73.6204 14.8018 73.6074 14.8018 73.6009 14.8018C73.3737 14.7823 73.1984 14.8343 73.1465 15.1004C73.1465 15.1199 73.1465 15.1329 73.1465 15.1524C73.1465 15.2562 73.153 15.3666 73.1595 15.4705C73.1595 15.4705 73.1984 15.5159 73.2114 15.5419C73.2114 15.5419 73.2114 15.5419 73.2179 15.5484L73.2374 15.5744L73.2633 15.86C73.2633 15.9119 73.2633 15.9509 73.2763 15.9898C73.3088 16.1846 73.4581 16.243 73.6529 16.243C73.6788 16.243 73.6983 16.243 73.7243 16.243C73.7243 16.243 73.7243 16.243 73.7308 16.243C73.7502 16.2236 73.7697 16.2236 73.7892 16.243C73.8087 16.2171 73.8281 16.1911 73.8476 16.1716C74.0878 16.1716 74.328 16.1716 74.5682 16.1716C74.6981 16.1716 74.8279 16.1651 74.9577 16.1586L74.9772 16.1262Z" fill="white"/>
<path d="M95.6868 9.43991C95.6868 9.64116 95.6868 9.8489 95.6868 10.0502C95.6868 10.206 95.6868 10.3618 95.6868 10.5176V10.602C95.6933 10.7188 95.7063 10.8357 95.7128 10.959C95.7193 11.0045 95.7323 11.0434 95.7388 11.0889C95.8102 11.4394 95.8816 11.7835 95.953 12.1341C95.953 12.1665 95.966 12.199 95.9725 12.225C95.9725 12.2574 95.9854 12.2834 95.9919 12.3159C96.0114 12.3678 96.0309 12.4132 96.0504 12.4587C96.4009 13.3481 96.8684 14.1596 97.5565 14.8412C97.576 14.8607 97.589 14.8802 97.6084 14.8932C97.6084 14.8932 97.6539 14.9321 97.6799 14.9451C98.8224 15.828 100.121 16.2045 101.569 16.1396C102.205 16.1072 102.731 15.8345 103.263 15.5489C103.282 15.5359 103.308 15.5229 103.328 15.5164C103.581 15.2762 103.841 15.0295 104.094 14.7893C104.12 14.7568 104.139 14.7244 104.165 14.6984C104.25 14.5815 104.341 14.4647 104.432 14.3478C104.607 14.4907 104.529 14.6335 104.49 14.7763C104.49 14.7828 104.49 14.7893 104.49 14.7958C104.347 15.2632 104.477 15.7501 104.386 16.224C104.386 16.25 104.386 16.2824 104.386 16.3084C104.386 16.4707 104.386 16.6265 104.399 16.7888C104.406 16.9122 104.341 17.1004 104.587 17.068C105.353 17.068 106.126 17.1654 106.885 17.0031C107.048 16.8862 106.97 16.7109 106.97 16.5616C106.996 15.7176 106.989 15.7047 106.171 15.6527C105.938 15.6333 105.821 15.5553 105.827 15.3087C105.827 14.8412 105.827 14.3803 105.827 13.9129C105.827 13.8869 105.827 13.8609 105.827 13.835C105.749 13.4844 105.873 13.1338 105.847 12.7833C105.847 12.7638 105.847 12.7508 105.847 12.7313C105.847 12.5301 105.847 12.3288 105.847 12.1276C105.847 12.1276 105.847 12.1276 105.853 12.1276C105.86 12.1276 105.873 12.1211 105.879 12.1146C105.892 12.1146 105.905 12.1016 105.912 12.0951C105.912 11.7835 105.912 11.4719 105.905 11.1603C105.918 10.8487 105.931 10.5306 105.938 10.2189C105.938 10.193 105.938 10.1735 105.931 10.1475C105.899 9.92031 105.97 9.771 106.223 9.771C106.249 9.771 106.269 9.76451 106.301 9.771C106.522 9.75152 106.717 9.61519 106.95 9.64765C106.989 9.61519 107.028 9.59571 107.067 9.58273C107.145 9.55676 107.223 9.55676 107.301 9.55027C107.58 9.55027 107.749 9.45289 107.82 9.27761C107.859 9.17374 107.879 9.05688 107.846 8.89458C107.84 8.77773 107.827 8.66087 107.82 8.55051C107.781 8.34276 107.677 8.25188 107.528 8.22591C107.457 8.21292 107.379 8.20643 107.281 8.22591C107.106 8.25837 106.931 8.27135 106.756 8.29083C106.704 8.29083 106.645 8.30381 106.593 8.3103C106.314 8.35575 106.042 8.45962 105.749 8.42716C105.704 8.44014 105.658 8.44664 105.613 8.45962C105.34 8.53752 105.061 8.58297 104.776 8.59595C104.743 8.59595 104.711 8.60244 104.678 8.60244C104.406 8.65438 104.133 8.62192 103.86 8.70631C103.25 8.89458 102.614 8.76474 101.991 8.83615C101.705 8.86861 101.432 8.85563 101.62 9.29059C101.685 9.4464 101.62 9.66063 101.614 9.8489C101.614 9.85539 101.614 9.86189 101.614 9.87487C101.614 10.0956 101.698 10.206 101.893 10.2319C101.939 10.2319 101.978 10.2449 102.029 10.2384C102.432 10.2189 102.841 10.2384 103.243 10.2449C103.419 10.2384 103.594 10.2254 103.763 10.2189C103.88 10.1865 103.971 10.167 104.055 10.1475C104.509 10.0502 104.542 10.18 104.49 10.9006C104.49 10.9331 104.49 10.9525 104.49 10.985C104.49 11.1733 104.49 11.368 104.49 11.5563C104.49 11.5693 104.49 11.5823 104.49 11.5888C104.503 11.7575 104.516 11.9263 104.438 12.0821C104.425 12.1016 104.419 12.1276 104.406 12.1471C104.302 12.6015 103.984 12.9326 103.756 13.3156C103.276 14.1076 102.659 14.6854 101.737 14.8932C101.685 14.9126 101.633 14.9256 101.588 14.9386C101.335 15.01 101.075 14.997 100.822 14.9126C100.796 14.9061 100.777 14.8997 100.751 14.8932C100.582 14.8997 100.419 14.9126 100.29 14.7763C100.27 14.7763 100.251 14.7698 100.231 14.7633C100.062 14.7309 99.9066 14.6595 99.7768 14.5491C99.7573 14.5361 99.7378 14.5231 99.7248 14.5036C99.7248 14.5036 99.6794 14.4777 99.6599 14.4647C99.4976 14.3803 99.3678 14.2634 99.2444 14.1271C99.212 14.0947 99.186 14.0622 99.1535 14.0297C98.5692 13.4974 98.0629 12.9066 97.8097 12.1341C97.7902 12.1081 97.7837 12.0821 97.7707 12.0627C97.6604 11.8874 97.5825 11.6991 97.5435 11.4914C97.5435 11.4784 97.537 11.4719 97.537 11.4589C97.5111 11.4394 97.5046 11.4135 97.5176 11.381C97.4916 11.3356 97.4721 11.2836 97.4526 11.2317C97.3553 10.9915 97.3033 10.7383 97.2644 10.4786C97.2644 10.4527 97.2579 10.4332 97.2514 10.4137C97.0501 9.71257 97.167 8.99845 97.1345 8.29083C97.0891 7.30405 97.4332 6.44062 97.985 5.6486C98.0045 5.61614 98.0304 5.59017 98.0499 5.5642C99.0367 4.2723 101.017 3.9477 102.328 4.90202C102.594 5.09678 102.854 5.31101 102.932 5.65509C102.938 5.68755 102.951 5.71352 102.958 5.75247C102.984 5.77194 102.99 5.79142 102.971 5.82388C103.016 5.8888 103.029 5.98618 103.055 6.07057C103.088 6.18094 103.146 6.27832 103.341 6.24586C103.562 6.24586 103.789 6.24586 104.01 6.24586C104.035 6.24586 104.061 6.24586 104.081 6.24586C104.133 6.24586 104.191 6.23936 104.243 6.23287C104.289 6.23287 104.334 6.23287 104.38 6.22638C104.399 5.46682 104.315 4.69427 104.568 3.9477C104.568 3.92173 104.568 3.90225 104.568 3.87629C104.555 3.60362 104.685 3.33745 104.685 3.06479C104.685 2.98689 104.672 2.90898 104.646 2.82459C104.607 2.81809 104.574 2.8116 104.535 2.80511C104.321 2.76616 104.107 2.72072 103.886 2.68176C103.789 2.66229 103.691 2.64281 103.594 2.62334C103.594 2.62334 103.542 2.64281 103.523 2.61035C103.503 2.61035 103.49 2.61684 103.471 2.62334C103.101 2.68826 103.289 3.03882 103.198 3.24656C103.185 3.27253 103.172 3.2985 103.153 3.31798C103.14 3.68586 103.005 3.83733 102.75 3.77241C102.718 3.75294 102.685 3.73346 102.653 3.71399C101.991 3.29201 101.302 2.96741 100.543 2.88951C100.303 2.86354 100.056 2.85705 99.8027 2.88951C98.6342 3.00636 97.8616 3.69451 97.1994 4.5904C96.6346 5.35646 96.349 6.23936 95.9854 7.0963C95.9854 7.12877 95.9854 7.16772 95.9854 7.20018C95.9725 7.4274 95.914 7.64163 95.8491 7.85587C95.8361 7.90131 95.8232 7.94675 95.8037 7.9922C95.57 8.40768 95.8037 8.86212 95.6738 9.29059C95.6738 9.34902 95.6738 9.40745 95.6738 9.45938L95.6868 9.43991Z" fill="white"/>
<path d="M34.3628 19.9173H34.1615C33.7266 19.9173 33.2916 19.9173 32.8567 19.9173H32.6424C32.5775 19.9173 32.5191 19.9173 32.4542 19.9173C29.8898 19.9173 27.3255 19.9303 24.7612 19.9303C22.5085 19.9303 20.2622 19.9238 18.0095 19.9173C17.9835 19.9173 17.9576 19.9173 17.9316 19.9173C17.6784 19.9173 17.4252 19.9173 17.1656 19.9173C17.1461 19.9173 17.1331 19.9173 17.1136 19.9173C16.9708 19.9173 16.828 19.9173 16.6852 19.9173C16.3865 20.1185 16.4514 20.4366 16.4255 20.7223C16.3995 21.0599 16.3995 21.4039 16.393 21.7415C16.393 21.7415 16.393 21.7415 16.393 21.748C16.3216 23.5593 16.2567 25.377 16.1853 27.1883C16.1853 27.2467 16.1528 27.3051 16.1333 27.3636C16.1204 28.5776 16.1074 29.7786 16.0879 30.9861C16.0879 31.4925 16.0879 31.9988 16.0944 32.5052C16.1074 33.1284 16.1204 33.7517 16.1333 34.3684C16.1333 34.3814 16.1333 34.3944 16.1333 34.4009C16.1528 34.5047 16.1918 34.6151 16.1983 34.719C16.2329 35.2124 16.4904 35.4591 16.9708 35.4591C16.9708 35.4591 16.9773 35.4591 16.9838 35.4591C17.0357 35.4591 17.0812 35.4461 17.1331 35.4396C17.1526 35.4396 17.1656 35.4396 17.185 35.4331C18.3471 35.2254 19.5286 35.2838 20.6972 35.1864H20.7426C21.4827 35.1864 22.2228 35.1864 22.9629 35.1864H22.9953C23.4173 35.128 23.8133 35.3033 24.2353 35.2838C24.4041 35.4136 24.5989 35.3617 24.7871 35.3617C25.8453 35.3747 26.897 35.3747 27.9552 35.3747C27.9552 35.3747 27.9617 35.3747 27.9682 35.3747C27.9682 35.3747 28.0331 35.3747 28.0656 35.3682C28.163 35.3617 28.2603 35.3552 28.3642 35.3487C28.5265 35.3357 28.6499 35.524 28.8251 35.4396C29.5328 35.4461 30.2404 35.4526 30.948 35.4656C31.1363 35.4656 31.3246 35.4656 31.5128 35.4656C31.5128 35.4656 31.5258 35.4656 31.5323 35.4656C31.8764 35.4591 32.2269 35.4526 32.571 35.4396C32.7463 35.4396 32.9151 35.4396 33.0904 35.4461C33.5383 35.4785 33.759 35.3227 33.7201 34.8293C33.6941 34.5242 33.6682 34.2061 33.8045 33.914C33.7915 33.8945 33.8045 33.875 33.8045 33.8555C33.8045 33.8555 33.8045 33.8426 33.8045 33.8361C33.759 33.3427 33.8759 32.8688 33.9148 32.3819C33.9733 31.6548 34.0836 30.9342 34.1745 30.2071C34.1745 30.2071 34.1745 30.1941 34.1745 30.1876C34.1745 30.1551 34.1745 30.1227 34.181 30.0902C34.181 30.0642 34.181 30.0448 34.181 30.0188C34.2135 29.5644 34.233 29.1099 34.2849 28.6555C34.3628 27.9284 34.4537 27.2078 34.5446 26.4872V26.4612C34.5511 26.4222 34.5576 26.3833 34.5576 26.3443C34.5576 26.3314 34.5576 26.3184 34.5576 26.3054C34.629 25.0914 34.7523 23.8839 34.9276 22.6829C34.9276 22.6764 34.9276 22.6699 34.9276 22.6634C34.9146 22.6439 34.9146 22.6309 34.9276 22.6115C34.9276 22.605 34.9276 22.5985 34.9406 22.5855C34.9925 21.9687 35.0315 21.3585 35.0964 20.7418C35.1743 19.9432 35.1808 19.9432 34.3693 19.9043L34.3628 19.9173ZM25.1052 32.8363C22.5085 32.8493 20.048 30.8887 20.035 27.7856C20.022 24.981 22.3656 22.605 25.1442 22.6374C28.3837 22.6764 30.2664 25.2017 30.3572 27.7985C30.169 30.4408 28.3382 32.8103 25.1052 32.8298V32.8363Z" fill="white"/>
<path d="M22.3405 30.3365C23.4246 31.0636 24.6192 30.9402 25.7942 30.7325C27.2614 30.4728 28.417 29.6743 28.7416 28.6875C26.807 30.265 24.6257 30.4793 22.334 30.3365H22.3405Z" fill="white"/>
<path d="M23.5923 27.6234C23.8195 27.539 23.7806 27.3183 23.813 27.169C23.8 26.7016 23.6312 26.338 23.3002 26.0524C23.0405 25.8317 22.8587 25.9225 22.7678 26.2147C22.625 26.6756 22.8262 27.0521 23.1119 27.3897C23.2352 27.5325 23.3586 27.7078 23.5923 27.6169V27.6234Z" fill="white"/>
<path d="M26.2999 26.7725C26.4298 26.9088 26.5726 27.0841 26.7803 26.9867C26.9686 26.9023 26.9946 26.6881 27.0011 26.4609C26.9491 26.1493 26.8647 25.8117 26.6115 25.552C26.4752 25.4157 26.3259 25.2534 26.1246 25.3572C25.9169 25.4546 25.865 25.6753 25.8909 25.8896C25.9299 26.2272 26.0727 26.5258 26.3064 26.779L26.2999 26.7725Z" fill="white"/>
<path d="M52.6127 36.8036C52.1323 36.8036 51.6584 36.8101 51.178 36.8166C51.0352 36.8166 50.8924 36.8036 50.7495 36.8036C47.4062 36.8036 44.0628 36.8036 40.7194 36.8036C39.3691 36.8036 38.0123 36.8101 36.662 36.8166C36.597 36.8166 36.5386 36.8036 36.4737 36.7971C35.7726 36.7192 35.0714 36.888 34.3703 36.7841C34.1366 36.7517 34.1625 36.9269 34.182 37.0633C34.2404 37.5177 34.3054 37.9722 34.3833 38.4201C34.987 41.77 35.4155 45.1458 36.0972 48.4827C36.3374 49.6447 36.5386 50.8133 36.9086 51.9429C37.006 52.2415 37.1553 52.3973 37.4864 52.3389C37.7851 52.287 38.0837 52.2675 38.3823 52.235C38.4018 52.2091 38.4278 52.209 38.4537 52.2285C38.9991 52.1247 39.5509 52.1701 40.1027 52.1506C40.1546 52.1441 40.2066 52.1376 40.265 52.1311C41.1739 52.0078 42.0828 52.0143 42.9916 52.1311C43.0176 52.1117 43.0436 52.1182 43.0695 52.1441C43.1929 52.1441 43.3162 52.1571 43.4461 52.1571C43.4461 52.1831 43.4526 52.2026 43.4591 52.2285C43.498 52.2285 43.5434 52.2285 43.5824 52.2285C44.6601 52.2285 45.7377 52.2285 46.8154 52.222C46.8738 52.2285 46.9323 52.2415 46.9907 52.248C48.2631 52.2675 49.5355 52.1961 50.8015 52.3389C51.2819 52.3908 51.5026 52.2415 51.4637 51.7546C51.4182 51.6248 51.4637 51.5014 51.4896 51.3781C51.5221 50.8587 51.5416 50.3394 51.587 49.8265C51.6844 48.7813 51.7493 47.7296 51.9441 46.6909C51.9635 46.0157 52.0155 45.347 52.1388 44.6849C52.1518 43.9902 52.2102 43.2956 52.3401 42.6074C52.3401 42.0556 52.418 41.5038 52.5218 40.9585C52.5024 40.9325 52.5089 40.9065 52.5348 40.887C52.5348 40.5884 52.5089 40.2898 52.6192 40.0041C52.6062 39.5302 52.6517 39.0628 52.7426 38.6019C52.801 38.128 52.8594 37.6476 52.9114 37.1736C53.0477 36.875 52.9958 36.7192 52.6322 36.7906L52.6127 36.8036ZM49.1006 48.9371C48.7046 48.976 48.3086 48.9955 47.9125 48.9955C44.9847 48.9955 42.0568 48.989 39.1289 48.9825C38.3953 48.9825 38.2849 48.8592 38.2849 48.1191C38.2849 45.6911 38.2849 43.2631 38.2849 40.8351C38.2849 40.2508 38.2849 40.2378 38.9017 40.2378C41.1479 40.2378 43.3876 40.2378 45.6339 40.2378C46.718 40.2378 47.7957 40.2378 48.8798 40.2378C49.1071 40.2378 49.3732 40.1924 49.4706 40.504C49.4706 43.2436 49.4706 45.9832 49.4706 48.7229C49.4447 48.9566 49.2369 48.9241 49.1006 48.9371Z" fill="white"/>
<path d="M44.893 44.0876C45.289 43.6591 45.2111 43.2566 44.6982 42.971C44.1334 42.6529 43.5167 42.8476 42.9194 42.8217C42.7116 42.8152 42.7636 43.0229 42.7636 43.1527C42.7636 43.5812 42.7636 44.0097 42.7636 44.4382H42.7766C42.7766 44.8796 42.7831 45.3276 42.7766 45.769C42.7701 46.0222 42.8739 46.1196 43.1206 46.1845C43.5946 46.3078 44.036 46.1715 44.4775 46.0676C45.3149 45.8599 45.5097 45.1782 44.9254 44.5485C44.7696 44.3862 44.7177 44.2823 44.8994 44.0876H44.893ZM43.9516 43.2826C44.2567 43.2631 44.4775 43.3605 44.484 43.7175C44.484 44.0357 44.3281 44.133 43.7569 44.1395C43.4128 44.2174 43.4517 43.9513 43.4323 43.7111C43.3998 43.3021 43.6725 43.2956 43.9516 43.2826ZM43.7439 45.782C43.2829 45.782 43.5167 45.373 43.4323 45.1588C43.4582 44.9121 43.3349 44.6069 43.7504 44.594C44.2308 44.581 44.5813 44.8601 44.5813 45.2691C44.5813 45.5483 44.2502 45.782 43.7439 45.782Z" fill="white"/>
<path d="M41.2975 43.2176C41.1936 42.8865 40.9729 42.7697 40.6288 42.8086C40.2913 42.7307 40.1679 42.919 40.0835 43.2241C39.8433 44.0616 39.5771 44.886 39.324 45.7235C39.2785 45.8793 39.1292 46.1 39.3694 46.1715C39.5901 46.2364 39.8563 46.1844 39.9602 45.9118C40.0056 45.7949 40.0056 45.6651 40.0381 45.5417C40.0705 45.4184 40.1095 45.2821 40.2718 45.2885C40.5574 45.2885 40.8496 45.2691 41.1222 45.334C41.3689 45.3924 41.291 45.6781 41.3624 45.8598C41.4663 46.1195 41.6416 46.2429 41.9208 46.1715C42.2518 46.0871 42.096 45.8404 42.0441 45.6716C41.8039 44.8536 41.5377 44.0421 41.2845 43.2241L41.2975 43.2176ZM40.4925 44.7952C40.2848 44.7887 40.2199 44.6199 40.2913 44.4576C40.4601 44.081 40.4795 43.672 40.6418 43.1852C40.9405 43.7045 41.0573 44.2109 41.0768 44.7043C41.0833 44.8925 40.7003 44.8017 40.4925 44.7952Z" fill="white"/>
<path d="M47.7897 43.2894C48.017 43.3024 48.361 43.4193 48.4 43.1336C48.4389 42.8415 48.0624 42.822 47.8352 42.7311C47.7768 42.7052 47.7118 42.7117 47.6469 42.7117C46.6017 42.7117 45.7383 43.5426 45.7383 44.5554C45.7383 45.5551 46.5822 46.2822 47.6924 46.2368C47.978 46.2238 48.3351 46.1589 48.3351 45.8733C48.3351 45.4902 47.9326 45.7304 47.7378 45.6525C47.3353 45.7045 46.9653 45.6395 46.7445 45.302C46.4329 44.8345 46.3875 44.3087 46.6472 43.8153C46.8744 43.3803 47.3093 43.257 47.7833 43.2894H47.7897Z" fill="white"/>
<path d="M18.9783 0.870117C18.3096 0.883101 17.641 0.870117 16.9723 0.870117C11.6619 0.876609 6.34493 0.883101 1.02801 0.870117C0.664457 0.870117 0.567077 0.941529 0.631997 1.31806C0.833248 2.40872 0.989056 3.50586 1.17083 4.59651C1.53438 6.79729 1.89144 9.00456 2.26797 11.2053C2.54064 12.7959 2.8912 14.3734 3.31967 15.9315C3.43004 16.3405 3.58585 16.4833 4.05976 16.347C4.69597 16.1717 5.37114 16.1263 6.03981 16.1133C9.79217 16.0484 13.5445 16.2107 17.2969 16.347C17.7254 16.36 17.8357 16.2366 17.8422 15.8276C17.8747 14.328 18.0694 12.8413 18.2967 11.3611C18.2967 11.3547 18.2967 11.3482 18.2967 11.3417C18.2967 11.3417 18.2772 11.2897 18.3032 11.2638C18.3032 11.2313 18.3032 11.2053 18.3032 11.1729C18.2837 10.5367 18.3681 9.90045 18.433 9.27073C18.7057 6.58955 18.9978 3.90836 19.2899 1.23367C19.3224 0.941529 19.2315 0.870117 18.9653 0.876609L18.9783 0.870117ZM5.6438 13.075C5.22832 13.0815 5.02706 12.9192 5.02706 12.4843C5.03356 10.0433 5.02706 7.5958 5.03356 5.15482C5.03356 4.55107 5.28025 4.31086 5.87102 4.31086C9.12999 4.31086 12.3955 4.31086 15.6544 4.31086C15.979 4.31086 16.2647 4.36929 16.3101 4.77179C16.3101 7.45298 16.3101 10.1342 16.3101 12.8089C16.2712 13.1464 16.0115 13.075 15.7973 13.075C12.9148 13.075 10.0389 13.075 7.15643 13.075C6.65006 13.075 6.13719 13.0685 5.63082 13.075H5.6438Z" fill="white"/>
<path d="M7.41534 8.51772C7.41534 9.15393 7.44131 9.78365 7.42832 10.4199C7.42832 10.712 7.51272 10.8029 7.80486 10.7964C8.08401 10.7964 8.20736 10.7185 8.20087 10.4199C8.18788 9.86805 8.20087 9.30974 8.20087 8.75792H8.19437C8.19437 8.17364 8.19437 7.58287 8.19437 6.9986C8.19437 6.87525 8.23333 6.5896 7.96716 6.76488C7.51921 7.06352 7.09074 7.39461 6.68174 7.73868C6.49348 7.90098 6.51295 8.18663 6.61682 8.35542C6.73368 8.53719 6.92195 8.35542 7.05828 8.26453C7.38288 8.06328 7.42832 8.22558 7.42183 8.51772H7.41534Z" fill="white"/>
<path d="M13.1607 8.31626C13.2256 8.31626 13.2905 8.31626 13.3489 8.2903C13.6346 8.17993 13.6541 8.29679 13.6476 8.55647C13.6216 9.18619 13.6476 9.8224 13.6281 10.4586C13.6151 10.7962 13.8099 10.7897 14.0501 10.7962C14.3098 10.8027 14.4266 10.7378 14.4136 10.4521C14.3942 9.90031 14.4136 9.342 14.4136 8.79018H14.4071C14.4071 8.21888 14.4071 7.64759 14.4071 7.0763C14.4071 6.96593 14.4006 6.83609 14.2903 6.78416C14.1669 6.71924 14.089 6.83609 14.0046 6.90101C13.7774 7.0763 13.5697 7.27106 13.3425 7.43985C13.1672 7.57618 12.9789 7.69304 12.8815 7.90727C12.8296 8.01763 12.7192 8.128 12.8101 8.25784C12.8945 8.37469 13.0438 8.33574 13.1672 8.32276L13.1607 8.31626Z" fill="white"/>
<path d="M9.88866 9.36174C10.2457 9.3163 10.4275 9.43965 10.395 9.82916C10.3821 9.9655 10.4275 10.1083 10.4729 10.2446C10.5054 10.3355 10.5898 10.394 10.6937 10.3875C10.804 10.3875 10.8819 10.3226 10.9079 10.2317C10.9404 10.1278 10.9663 10.0109 10.9469 9.90707C10.8884 9.4786 11.0183 9.27085 11.4922 9.36823C11.7259 9.41368 11.9012 9.32279 11.9077 9.05013C11.9142 8.79694 11.8038 8.64762 11.5376 8.69307C11.1156 8.75799 10.8495 8.67359 10.9339 8.16722C10.9404 8.12177 10.9274 8.06984 10.9079 8.03089C10.8754 7.92702 10.8495 7.79718 10.7196 7.78419C10.5703 7.77121 10.4989 7.88806 10.4665 8.0179C10.4405 8.10879 10.3885 8.20617 10.4015 8.29057C10.434 8.6671 10.2457 8.76448 9.94709 8.70605C9.68741 8.70605 9.42773 8.62166 9.42773 9.01767C9.42773 9.37473 9.62899 9.40069 9.89516 9.36823L9.88866 9.36174Z" fill="white"/>
<path d="M18.1265 40.0358C17.9383 40.0358 17.7435 40.0358 17.5552 40.0358C17.5552 40.0358 17.5293 40.0358 17.5163 40.0358C15.2701 40.0358 13.0238 40.0358 10.7776 40.0358C10.7776 40.0358 10.7711 40.0358 10.7646 40.0358C10.4206 40.0358 10.07 40.0358 9.72592 40.0293C9.31043 40.0293 8.89494 40.0293 8.47297 40.0293C6.27868 40.0293 4.08439 40.0293 1.8966 40.0358C1.81869 40.0358 1.74079 40.0488 1.66938 40.0488C1.6499 40.0488 1.63692 40.0488 1.61744 40.0488C1.44216 40.1981 1.5655 40.4448 1.42917 40.6071V40.672C1.42917 40.711 1.42268 40.7564 1.42268 40.7953C1.42268 40.8148 1.42268 40.8408 1.42268 40.8603C1.43566 42.2625 1.28635 43.6648 1.25389 45.0671C1.20195 47.1445 1.163 49.2154 1.05913 51.2929C0.994211 52.5913 1.16949 53.8897 1.22792 55.1816C1.24091 55.5062 1.39671 55.5711 1.69534 55.5256C2.48736 55.4023 3.27939 55.2595 4.0779 55.1945C6.11638 55.0258 8.16135 54.8764 10.2128 54.9024H10.3297C10.4465 54.8959 10.5569 54.8894 10.6737 54.8894C10.6867 54.8894 10.6997 54.8829 10.7127 54.8764C10.7906 54.8505 10.862 54.818 10.9399 54.818C11.9527 54.7985 12.9654 54.7726 13.9782 54.7206C15.3999 54.6427 16.8281 54.6362 18.2499 54.6233C18.555 54.6233 18.6459 54.4999 18.6329 54.2337C18.6329 54.2337 18.6329 54.2207 18.6329 54.2143C18.5875 52.3835 18.594 50.5593 18.7303 48.7285C18.7303 48.7221 18.7303 48.7091 18.7303 48.7026C18.7303 47.112 18.7303 45.528 18.7303 43.9375V43.9245C18.7303 43.3727 18.7303 42.8208 18.7303 42.269V42.2236C18.7303 41.8406 18.6654 41.451 18.8017 41.0745C18.8017 41.0745 18.8017 41.0745 18.8017 41.068C18.8017 40.8018 18.8147 40.5357 18.8212 40.2695C18.8212 40.2565 18.8212 40.237 18.8212 40.2241C18.6394 39.9968 18.3732 40.0683 18.1395 40.0358H18.1265ZM9.29745 41.0031C11.4917 41.0161 13.8094 43.0026 13.6536 45.7422C13.5302 47.8781 11.6346 50.0269 9.12866 49.8646C6.51239 50.0075 4.71411 47.7093 4.68165 45.4436C4.64919 43.1844 6.5059 40.9836 9.30394 41.0031H9.29745ZM9.49221 53.9546C8.77809 53.9546 8.05748 53.9351 7.34336 53.9611C6.91489 53.9805 6.95384 53.7274 6.94086 53.4482C6.92788 53.1496 6.96683 52.9613 7.34336 52.9873C7.70691 53.0197 8.07696 52.9873 8.44051 53.0068C8.73914 53.0262 8.88196 52.9418 8.86248 52.6107C8.83652 52.2017 8.97934 51.7019 8.79107 51.4032C8.62228 51.1241 8.07046 51.228 7.69393 51.1241C6.70066 50.8579 5.82424 50.4165 5.10363 49.6894C4.91536 49.5011 4.60375 49.2674 4.8829 48.9752C5.17504 48.6701 5.49964 48.8194 5.75283 49.0921C6.73312 50.1438 8.038 50.5333 9.38184 50.4944C12.0176 50.4165 13.7834 48.5013 14.2119 46.1642C14.4586 44.8398 14.2313 43.6194 13.4718 42.4962C13.303 42.2496 13.1537 41.9704 13.5042 41.7627C13.8353 41.5679 14.0236 41.8146 14.1924 42.0678C16.2568 45.2359 14.8676 49.0142 12.102 50.5982C11.6216 50.8774 11.1022 51.0916 10.5504 51.189C10.2842 51.2344 10.1933 51.3513 10.1998 51.598C10.2453 53.3378 9.92068 52.9743 11.5242 53.0132C12.089 53.0262 12.115 53.0522 12.115 53.5456C12.115 53.8507 12.0046 53.9741 11.693 53.9676C10.9594 53.9546 10.2258 53.9676 9.4987 53.9676L9.49221 53.9546Z" fill="white"/>
<path d="M10.2522 43.9509C9.4732 43.7691 8.70715 43.8924 7.9346 43.9509C7.7723 43.9639 7.73335 44.0482 7.70738 44.1976C7.57105 45.0026 7.61 45.8011 7.70738 46.6061C7.73335 46.7944 7.82424 46.8788 8.01251 46.9047C8.68767 47.0021 9.37582 47.0281 10.0575 46.9891C10.6872 46.9567 10.7521 46.8723 10.7651 46.249C10.7651 45.9958 10.7651 45.7427 10.7651 45.4895C10.7651 45.1908 10.7391 44.8857 10.7651 44.5871C10.8041 44.1846 10.6093 44.0418 10.2457 43.9574L10.2522 43.9509Z" fill="white"/>
<path d="M12.3873 44.5871C12.1861 44.4638 11.9783 44.3469 11.7576 44.2496C11.1474 43.9769 11.1409 43.9834 11.1474 44.6261C11.1474 44.8793 11.1474 45.1325 11.1474 45.4571C11.2188 45.8141 10.9266 46.4374 11.2253 46.6321C11.5434 46.8399 12.0433 46.4374 12.4133 46.2101C13.2378 45.6973 13.2183 45.1 12.3938 44.5871H12.3873Z" fill="white"/>
<path d="M7.07005 44.1514C6.58315 44.3267 6.07029 44.476 5.68726 44.8526C5.3367 45.1966 5.32371 45.5797 5.66129 45.9367C6.05081 46.3522 6.58315 46.534 7.09602 46.7352C7.33622 46.8326 7.34272 46.6703 7.32324 46.5275C7.21937 45.8199 7.1934 45.1187 7.32324 44.4955C7.34272 44.2293 7.30376 44.0605 7.07654 44.1449L7.07005 44.1514Z" fill="white"/>
<path d="M8.21905 43.5607C8.92668 43.4309 9.6343 43.4179 10.3484 43.5477C10.4977 43.5737 10.6211 43.5152 10.5497 43.3335C10.3419 42.8206 10.1537 42.2883 9.72519 41.9052C9.32269 41.5417 8.9072 41.5871 8.5826 42.0221C8.30345 42.3921 8.13466 42.8206 7.95937 43.2491C7.83603 43.5477 7.99183 43.5802 8.22554 43.5672L8.21905 43.5607Z" fill="white"/>
<path d="M10.207 47.3266C9.83045 47.4305 9.44743 47.3461 9.07089 47.3656C8.77226 47.3656 8.46714 47.3656 8.16851 47.3656C7.96726 47.3656 7.86988 47.4305 7.95427 47.6512C8.11657 48.0862 8.30484 48.5017 8.60347 48.8522C8.88912 49.1898 9.27214 49.2742 9.57077 49.0665C10.0966 48.7029 10.3498 48.1641 10.4796 47.5603C10.5251 47.3526 10.4277 47.2617 10.207 47.3201V47.3266Z" fill="white"/>
<path d="M10.5372 42.3792C10.6865 43.3595 11.2124 43.9503 12.2187 44.1126C12.4264 44.145 12.6082 44.3138 12.7899 44.4112C13.0042 44.3852 12.9198 44.2684 12.8808 44.171C12.4783 43.0869 11.8162 42.2429 10.6995 41.8209C10.5502 41.7625 10.3749 41.6651 10.2646 41.8144C10.1737 41.9313 10.3425 42.0287 10.4074 42.1325C10.4593 42.2104 10.5242 42.2948 10.5372 42.3792Z" fill="white"/>
<path d="M5.53117 44.405C5.57012 44.3921 5.60258 44.3856 5.62205 44.3661C6.11544 43.9636 6.73218 43.8467 7.31646 43.6585C7.41384 43.626 7.48525 43.5611 7.49823 43.4572C7.56315 42.9119 7.78388 42.425 8.03707 41.9446C8.07602 41.8732 8.12146 41.8018 8.06304 41.7239C7.99812 41.6395 7.92021 41.7044 7.8488 41.7239C7.49174 41.8018 7.23206 42.0485 6.93992 42.2302C6.21932 42.6782 5.78435 43.3469 5.47923 44.1064C5.43379 44.2103 5.3429 44.3401 5.53766 44.405H5.53117Z" fill="white"/>
<path d="M10.888 47.3848C10.8101 48.0145 10.4401 48.5274 10.1934 49.1506C11.5177 48.8845 12.6733 47.7159 12.9135 46.3721C12.2968 46.7811 11.68 47.0407 11.0308 47.216C10.9724 47.2355 10.8945 47.3264 10.888 47.3913V47.3848Z" fill="white"/>
<path d="M7.26634 47.164C6.63013 46.9952 6.0069 46.7874 5.45508 46.333C5.47455 47.4431 6.83787 48.8389 8.19469 49.144C7.87009 48.5598 7.62989 48.0144 7.51303 47.4237C7.48707 47.2808 7.39618 47.1964 7.26634 47.1575V47.164Z" fill="white"/>
</g>
<defs>
<clipPath id="clip0_156_17665">
<rect width="147.368" height="55" fill="white" transform="translate(0.611328 0.870117)"/>
</clipPath>
</defs>
</svg>
