<?xml version="1.0" encoding="UTF-8"?>
<!DOCTYPE svg PUBLIC "-//W3C//DTD SVG 1.1//EN" "http://www.w3.org/Graphics/SVG/1.1/DTD/svg11.dtd">
<svg xmlns="http://www.w3.org/2000/svg" xmlns:xlink="http://www.w3.org/1999/xlink">
<symbol id="arrow-up" viewBox="0 0 55 55">
  <g data-name="Group 83">
    <g data-name="Group 84" transform="translate(-273 -4039)">
      <circle cx="27.5" cy="27.5" r="27.5" fill="#d8ff01" data-name="Ellipse 16" transform="translate(273 4039)"/>
      <g fill="none" stroke="#202020" stroke-linecap="round" stroke-width="5">
        <path d="m300.5 4059.852 13.298 13.298M300.5 4059.852l-13.298 13.298"/>
      </g>
    </g>
  </g>
</symbol>
<symbol id="mouse-arrow" viewBox="0 0 14 8"><g fill="none">
  <path stroke="#fff" stroke-width="2" stroke-linecap="round" d="M1.695 1.092 6.87 6.266M12.174 1.092 7 6.266"/>
</g></symbol>
<symbol id="mouse" viewBox="0 0 30 47"><g fill="none">
  <rect x="1.002" y="1.975" width="28" height="43.063" rx="14" stroke="#fff" stroke-width="2"/>
  <path stroke="#fff" stroke-width="4" stroke-linecap="round" d="M14.9 14.251v2.838"/>
</g></symbol>
<symbol id="triangle-down" viewBox="0 0 11.324 6.991"><g fill="none">
  <path d="M5.661 6.991-.002.001h11.326L5.661 6.99Z" fill="#202020"/>
</g></symbol>
<symbol id="wreath-left" viewBox="0 0 15 32"><g fill="none">
  <path fill-rule="evenodd" clip-rule="evenodd" d="M14.524 30.335a27.537 27.537 0 0 1-1.826-1.2c1.834-2-.664-6.46-1.217-7.381-.199-.396-.331-.66-.728-.66-.33-.066-.53.198-.926.726-.661.99-.86 2.244-.595 3.697.059.264.135.532.225.799a17.577 17.577 0 0 1-1.634-2.025c1.731-1.534 1.67-3.864 1.608-5.904v-1.056a.504.504 0 0 0-.133-.33.506.506 0 0 0-.33-.132c-1.456.066-2.382.792-2.845 2.178-.141.4-.231.816-.29 1.235a15.468 15.468 0 0 1-.517-2.075c2.749-.902 3.744-3.347 4.313-5.43.066-.264-.066-.462-.264-.528-.067-.067-1.257-.595-2.646-.067-.598.281-1.12.748-1.57 1.392.058-.58.139-1.139.237-1.67 2.73-.126 4.256-.95 5.962-3.22.067-.132.067-.33 0-.528-.066-.066-.926-1.32-2.447-1.32-.822.039-1.644.471-2.452 1.295.228-.595.428-1.04.548-1.299 1.74-.072 3.507-1.43 4.021-3.165C11.415 2.281 12.54.83 12.606.763a.412.412 0 0 0 .065-.288.455.455 0 0 0-.16-.332.689.689 0 0 0-.037-.04.407.407 0 0 0-.27-.066c-.195 0-3.058.023-4.758 1.98-.97 1.098-1.37 2.514-1.2 4.306-.099.194-.283.571-.503 1.1l.05-1.908c.066-1.782-1.125-3.3-1.39-3.564v-.066l-.066-.066c-.132-.132-.264-.264-.529-.264a.713.713 0 0 0-.463.396s-.066.066-.066.132C1.956 4.327 1.493 6.572 2.022 8.42c.367 1.343 1.187 2.458 2.458 3.246a19.92 19.92 0 0 0-.27 1.963c-.289-.761-.617-1.42-.997-1.974-.728-1.122-1.39-1.65-1.919-1.848-.33-.198-.595-.33-.86-.132-.264.132-.264.462-.264.66v.198c0 1.518 0 3.366.53 4.885.617 1.787 1.87 2.769 3.702 2.998.083.454.183.901.303 1.343-1.132-.993-2.168-1.2-2.683-1.238-.728-.066-1.124-.066-1.389.198-.265.33-.198.66-.132 1.122.066 0 .066.066.066.198.661 3.102 2.513 4.62 5.689 4.62.197 0 .43-.036.675-.055.409.616.86 1.215 1.355 1.794-1.17-.58-2.385-.946-3.42-.616-.595.132-.926.264-1.058.66-.132.33.066.594.265.858 0 .066.066.132.132.198 1.125 1.65 3.175 3.3 5.16 3.367h.132c.926 0 1.802-.354 2.494-1.062.63.461 1.298.903 2.004 1.326a.5.5 0 0 0 .265.066c.132 0 .33-.066.397-.198.132-.264.066-.528-.133-.66v-.002Zm-3.903-7.987c0-.066.066-.066.066-.132 1.126 1.872 2.487 5.1 1.236 6.34a23.321 23.321 0 0 1-.555-.445c-1.207-1.72-1.82-4.251-.747-5.763ZM8.504 17.86v.528c.06 2 .12 3.887-1.2 5.102-.236-.39-.453-.786-.652-1.19.008-2.172.178-4.119 1.851-4.44h.001Zm-1.39-4.818c.596-.264 1.125-.198 1.456-.066-.663 2.346-1.711 3.705-3.394 4.277a17.09 17.09 0 0 1-.101-1.34c.462-1.499 1.12-2.478 2.04-2.871ZM8.968 7.76c.662 0 1.125.396 1.39.66-1.367 1.752-2.54 2.42-4.78 2.567l.038-.162c1.118-1.956 2.301-3 3.353-3.065Zm-.86-5.149c.903-.984 2.265-1.382 3.168-1.543-.396.602-.891 1.458-1.183 2.335-.359 1.312-1.635 2.354-2.95 2.495-.093-1.335.244-2.447.965-3.287Zm-5.16 5.61c-.463-1.583-.066-3.564.993-5.412.33.462.992 1.518.926 2.706l-.13 4.97-.041.171c-.93-.65-1.493-1.48-1.748-2.434Zm-1.852 2.51c.794.461 2.25 1.914 3.11 6.402l.022.064c.01.097.021.193.033.29-2.854-.53-3.165-3.364-3.165-6.757Zm.397 9.109c0-.066-.066-.132-.066-.198s0-.198-.066-.264c.132 0 .33.066.53.066h.065c.661.06 2.249.447 3.773 3.086a.449.449 0 0 0 .175.318c.05.098.101.195.154.292l.02.037.112.227a.345.345 0 0 0 .122.196l.06.103c-2.797.056-4.265-1.108-4.879-3.863Zm7.938 10.1c-1.654 0-3.44-1.585-4.432-2.971-.066-.066-.132-.198-.198-.264.066 0 .198-.066.33-.066 1.257-.396 3.242.792 4.697 1.716.394.224.738.4 1.037.57l.01.009.012.015a.34.34 0 0 0 .173.135l.198.159c-.549.508-1.187.754-1.826.696Z" fill="#fff"/>
</g></symbol>
<symbol id="wreath-right" viewBox="0 0 16 32"><g fill="none">
  <path fill-rule="evenodd" clip-rule="evenodd" d="M14.922 15.416c.529-1.518.529-3.366.529-4.885v-.197c0-.198 0-.529-.265-.66-.264-.199-.529-.067-.86.131-.767.336-1.952 1.261-2.923 3.707a20.706 20.706 0 0 0-.254-1.852c1.267-.787 2.084-1.9 2.45-3.24.463-1.915 0-4.225-1.323-6.47l-.066-.066c-.066-.132-.199-.33-.463-.33-.265 0-.397.198-.53.33-1.19 1.386-1.389 2.509-1.389 4.093l.039 1.35c-.212-.501-.39-.854-.49-1.029.164-1.78-.236-3.188-1.203-4.282C6.454.036 3.478.036 3.346.036a.452.452 0 0 0-.463.462c0 .17.083.314.213.393.276.394 1.173 1.608 1.507 2.775.514 1.735 2.282 3.094 4.022 3.166.13.274.348.754.594 1.402-.855-.892-1.71-1.359-2.566-1.399-1.521 0-2.381 1.254-2.447 1.32-.066.198-.066.396 0 .528.992 1.254 1.852 2.047 2.844 2.509.85.424 1.813.625 3.194.707.1.54.18 1.11.236 1.702-.474-.665-1.03-1.13-1.643-1.42-1.323-.527-2.514 0-2.58.067-.198.066-.265.33-.265.528.57 2.082 1.563 4.525 4.307 5.429a15.55 15.55 0 0 1-.513 2.056 6.287 6.287 0 0 0-.288-1.214c-.463-1.386-1.455-2.113-2.91-2.178a.506.506 0 0 0-.331.131.504.504 0 0 0-.132.33v.925c-.063 2.1-.124 4.491 1.66 6.034a17.474 17.474 0 0 1-1.63 2.01c.487-1.561.477-3.25-.427-4.48-.331-.462-.53-.792-.86-.726-.397 0-.53.264-.728.66-.551.918-3.034 5.35-1.236 7.361-.59.42-1.214.828-1.873 1.22-.198.133-.264.397-.132.66.066.133.264.199.397.199.066 0 .198 0 .264-.066a27.242 27.242 0 0 0 2.07-1.37 3.316 3.316 0 0 0 2.495 1.106h.132c1.984-.066 4.035-1.717 5.16-3.367.066-.066.066-.198.132-.264.198-.198.397-.462.264-.792-.132-.396-.463-.528-1.058-.726-1.027-.328-2.233.057-3.411.649.489-.568.936-1.155 1.34-1.758.212.02.447.052.682.052 3.175 0 5.027-1.518 5.623-4.62 0-.067 0-.199.066-.199.066-.462.132-.792-.133-1.122-.264-.264-.661-.264-1.322-.198-.521.04-1.575.274-2.722 1.301.124-.46.228-.927.312-1.401 1.85-.223 3.112-1.206 3.732-3.003v.001Zm-.397-4.686c0 3.38-.309 6.267-3.194 6.756.025-.195.047-.39.065-.587.867-4.306 2.35-5.715 3.129-6.17Zm-3.77-4.753c0-1.386.264-2.245.925-3.169 1.059 1.849 1.456 3.829.993 5.347-.258 1.029-.83 1.869-1.715 2.583l-.076-.325-.127-4.436ZM5.529 3.402c-.289-.864-.793-1.727-1.204-2.345.909.153 2.258.545 3.188 1.553.721.84 1.059 1.952.966 3.287-1.316-.14-2.592-1.183-2.95-2.495ZM5.198 8.42c.265-.264.728-.66 1.455-.66.992 0 2.182 1.056 3.372 3.1l.03.127c-1.993-.14-3.361-.62-4.857-2.567Zm1.852 4.555c.33-.132.86-.132 1.39.066.917.393 1.64 1.37 2.104 2.867-.01.237-.023.472-.042.705a24.05 24.05 0 0 0-.078.389.374.374 0 0 0 .017.242v.007c-1.68-.573-2.727-1.932-3.39-4.276Zm0 5.347v-.462c1.732.32 1.91 2.254 1.918 4.417-.201.409-.42.81-.66 1.204-1.323-1.234-1.319-3.224-1.259-5.16h.001Zm-2.183 3.96c.044 0 .066.022.066.066 1.12 1.49.543 3.975-.632 5.693-.202.168-.41.333-.622.498-1.22-1.252.13-4.455 1.188-6.257Zm5.623 4.357c.132 0 .264.066.33.066-.066.066-.132.198-.198.264-.926 1.386-2.712 2.97-4.366 2.97-.716.06-1.378-.203-1.889-.74l.197-.159a.631.631 0 0 0 .187-.111c.3-.17.647-.348 1.043-.574 1.455-.924 3.44-2.113 4.697-1.717l-.001.001Zm3.175-7.195h.53c-.067 0-.067.132-.067.132 0 .066-.066.132-.066.264-.55 2.739-1.998 3.905-4.813 3.864.02-.033.038-.066.057-.1a.356.356 0 0 0 .125-.2l.113-.228.02-.036c.052-.096.103-.194.153-.291a.452.452 0 0 0 .175-.32c1.525-2.64 3.112-3.026 3.773-3.086Z" fill="#fff"/>
</g></symbol>
</svg>