<svg xmlns="http://www.w3.org/2000/svg" width="123" height="108" fill="none" viewBox="0 0 123 108"><g fill="#DC9906" clip-path="url(#a)"><path d="M93.076 102.153c-4.57-1.295-9.766.6-14.175 1.776l2.311-1.297c3.051-1.751 6.874-6.78 5.66-10.448-.261-.793-.754-.808-1.375-.342-1.492 1.122-3.852 3.866-5.193 5.34-2.42 2.656-4.678 5.467-6.883 8.304l-.015.279c2.006.94 4.075 1.603 6.29 1.845.39.043.84-.119 1.16.125h1.955c3.376-.175 7.413-1.288 10.348-3.047 1.711-1.026 2.273-1.867-.083-2.535ZM48.834 105.587c-2.171-2.717-4.318-5.461-6.656-8.039-1.435-1.58-3.955-4.495-5.56-5.706-1.598-1.206-1.55 1.618-1.472 2.584.252 3.19 3.239 6.609 5.832 8.254l2.603 1.372c-1.998-.527-3.957-1.228-5.985-1.657-2.32-.491-4.766-.862-7.134-.536-1.577.217-4.42.867-1.948 2.537 3.045 2.056 7.221 2.985 10.792 3.336h1.955c.017 0 .14-.117.295-.128 2.56-.196 5.073-.591 7.28-2.019l-.002.002ZM76.855 81.628c-.198-.425-1.125-.299-1.546-.26-5.811.54-7.589 6.322-12.861 6.719-5.73.431-6.944-3.958-11.49-5.856-.87-.364-3.011-1.023-3.898-.942-.435.04-.5.507-.546.862-.062.494-.18 3.23.117 3.441 3.989.159 5.96 3.683 9.047 5.397 3.165 1.757 7.534 1.955 10.877.609 3.342-1.347 5.005-4.554 8.557-5.641.505-.155 1.212-.177 1.626-.33.175-.066.175-.117.207-.284.093-.497.135-1.33.127-1.847-.005-.292-.137-1.695-.216-1.867l-.001-.001Z"/><path d="M104.261 90.803c-1.891.128-3.646.873-5.362 1.61l-6.31 3.418c3-2.845 6.076-7.039 4.973-11.434-.227-.907-.745-2.587-1.795-1.508-2.083 2.144-4.598 7.764-5.802 10.617-.257.609-2.144 5.057-1.97 5.277 5.498 1.564 11.974-.267 16.262-3.936.545-.466 2.517-2.373 2.7-2.935.057-.177.089-.349.033-.533-.199-.675-2.163-.614-2.728-.576h-.001ZM31.994 93.05c-1.234-2.862-2.739-6.05-4.493-8.619-1.156-1.691-2.13-3.22-2.903-.114-.642 2.585.158 5.105 1.457 7.332.973 1.67 2.294 3.026 3.718 4.304l-5.456-3.05c-2.08-.904-4.146-1.962-6.462-2.101-.567-.035-2.528-.102-2.729.576-.13.552.383 1.042.717 1.443 4.158 4.998 11.968 7.79 18.276 5.96.111-.164.007-.315-.032-.471-.347-1.408-1.484-3.843-2.095-5.261h.002ZM51.005 73.15c-.337.094-2.09 2.352-2.269 2.762-.113.26-.26.644-.086.907.057.084 1.534.647 1.86.832 3.777 2.145 5.21 7.343 10.137 7.86 6.977.732 7.579-5.237 12.307-7.86.445-.246 1.537-.597 1.786-.782a.649.649 0 0 0 .224-.382c.034-.418-2.02-3.108-2.42-3.295-.204-.096-.289-.061-.487-.006-.94.263-3.256 2.001-4.033 2.705-2.276 2.064-3.912 6.77-7.696 5.277-1.537-.606-2.333-2.346-3.304-3.553-1.095-1.363-2.557-2.624-4.04-3.552-.393-.246-1.587-1.02-1.979-.913Z"/><path d="M113.424 77.303c-2.194.751-3.873 2.36-5.683 3.743l-4.03 3.865c2.173-2.996 3.95-8.118 2.259-11.654-.285-.594-1.221-2.297-2.021-1.541-.547.516-1.678 4.5-1.913 5.44-.936 3.75-1.274 7.61-1.747 11.437h2.016c4.531 0 10.531-4.882 12.822-8.599 1.582-2.569 2.028-3.969-1.703-2.691ZM21.828 88.593c-.566-5.076-1.019-10.318-2.841-15.122-.272-.716-.596-2.31-1.556-1.868-.706.324-1.568 2.278-1.75 3.028-.559 2.292.312 5.926 1.36 8.034.363.73.917 1.374 1.242 2.125-2.935-2.657-6.509-6.88-10.504-7.796-2.978-.681-1.915 1.02-.958 2.68 2.936 5.1 9.028 9.103 15.007 8.92Z"/><path d="M13.275 76.692c.292-1.734.636-3.481.84-5.23.34-2.908.569-6.153.258-9.064-.057-.538-.207-2.463-.797-2.52-1.449.492-2.684 2.21-3.076 3.659-.775 2.872-.43 5.94.452 8.736l-2.906-4.75c-1.254-1.781-3.107-4.11-5.076-5.088-.492-.245-1.71-.758-1.804.081-.085.765.728 3.18 1.05 3.989 1.834 4.62 6.183 8.969 11.058 10.186v.001ZM120.827 62.144c-.78-.544-3.122 1.24-3.732 1.79-1.107.995-1.991 2.292-2.902 3.466l-3.026 4.875c1.191-3.703 1.716-9.195-1.648-11.906-.817-.659-1.232-.796-1.497.344-.69 2.965-.36 7.45-.019 10.503.206 1.831.611 3.648.841 5.476 5.063-1.269 9.38-5.702 11.211-10.523.228-.6 1.287-3.667.772-4.025Z"/><path d="M7.954 63.075c1.861-3.873 3.64-7.954 4.309-12.249.14-.897.357-2.055.165-2.916-.77-.542-3.055 1.36-3.549 1.974-.901 1.118-1.821 3.602-1.958 5.028-.11 1.15.082 2.453 0 3.62L5.3 53.225c-.733-1.917-1.813-4.2-3.326-5.617C1.653 47.307.565 46.368.26 47c-.343.709-.15 2.877-.048 3.725.58 4.815 3.452 9.978 7.74 12.351l.001-.001ZM121.672 46.806c-.34-.133-.719.17-.98.372-3.095 2.415-4.636 7.881-5.375 11.597-.212.03-.116-.28-.121-.427-.022-.71.144-1.358.127-2.093-.055-2.354-.969-5.458-2.751-7.053-.701-.627-1.908-1.592-2.888-1.275-.219.301.199 2.833.296 3.387.724 4.135 2.459 7.945 4.122 11.751.183.127 1.231-.637 1.45-.802 3.357-2.51 5.819-7.15 6.348-11.297.094-.744.419-3.818-.228-4.162v.002ZM73.682 92.055c-2.153-.48-3.684.922-5.452 1.712-3.884 1.736-9.111 1.724-12.997 0-1.488-.66-2.966-1.896-4.704-1.833-2.284.085-.923 1.466-.042 2.427 5.892 6.427 16.934 6.423 22.668-.19.46-.53 1.759-1.844.527-2.117Z"/><path d="M8.505 47.054c2.043-2.586 4.235-5.926 5.261-9.074.115-.35.3-.702.231-1.088-.257-.747-2.498.183-2.959.435-1.74.95-3.36 3.74-3.96 5.596L6.432 45.4c-.091-3.464.038-8.617-1.979-11.571-.643-.944-1.135-1.498-1.627-.085-1.727 4.953-.305 12.086 3.44 15.82.803-.694 1.562-1.656 2.239-2.511ZM110.426 36.999c-.461-.178-1.778-.6-2.167-.278-.285.238.104 1.183.211 1.505 1.096 3.256 3.23 6.235 5.261 8.952l2.127 2.392c3.68-3.661 4.942-10.025 3.699-14.991-.279-1.113-.487-2.407-1.615-1.081-1.657 1.947-1.753 5.135-2.136 7.549l-.124 4.232-.955-3.273c-.944-1.936-2.19-4.191-4.301-5.007Z"/><path d="M112.386 32.518c-1.116-2.686-4.167-6.141-7.286-6.122-1.635.011-1.372.562-.737 1.599 2.155 3.517 6.05 6.437 9.428 8.69 2.387-4.257 2.162-10.872-.452-15-1.271-2.008-1.699.352-1.898 1.604-.499 3.159.563 5.848 1.036 8.832.021.13.13.426-.09.397h-.001ZM16.203 30.122c.385-.448 2.123-2.754 2.084-3.181-.067-.728-1.837-.477-2.331-.381-2.018.393-4.091 2.435-5.203 4.102L9.609 32.64c.602-3.235 2.019-7.781.702-10.952-.64-1.545-1.13-.663-1.702.317-2.457 4.215-2.492 10.346-.344 14.683 2.852-1.725 5.76-4.028 7.938-6.568v.001ZM42.001 32.88l2.426-.006c.48-2.398 1.13-4.775 1.295-7.228l1.34 7.123 2.402.046 2.43-10.972h-2.322l-1.223 8.22-1.4-7.98-2.317-.125-1.354 8.107-1.405-8.222H39.55L42 32.88Z"/><path d="M107.131 22.211c-1.82-2.09-4.437-4.15-7.376-3.91-.417.035-1.937.262-1.774.88 3.046 3.23 7.188 5.125 11.351 6.466.844-4.364-.486-9.584-3.48-12.885-.682-.752-1.709-1.995-1.898-.183-.219 2.115.722 4.492 1.569 6.403.486 1.098 1.132 2.127 1.608 3.23ZM24.138 19.18c.12-.451-.628-.658-.937-.739-3.143-.818-6.095 1.501-8.092 3.647 1.371-2.99 3.342-6.073 3.059-9.514-.045-.542-.085-1.072-.744-.862-.421.134-1.731 1.79-2.05 2.24-2.337 3.3-3.274 7.582-2.588 11.574 4.163-1.045 8.379-3.188 11.351-6.345h.001ZM101.51 46.506V35.464h-2.2l.184 6.748-2.75-6.748h-2.322v11.042h2.2l-.184-6.872 2.75 6.872h2.322ZM61.914 71.169c-.456-1.564-1.731-3.218-3.51-2.234-2.77 1.534-.29 5.332.965 7.058 2.037 2.802 2.989 3.419 4.73-.114.505-1.026.98-2.378 1.298-3.483.242-.84 1.103-3.733.355-4.286-1.809-.373-2.826 1.944-3.837 3.059h-.001Z"/><path d="M92.074 11.696c-.502.117-2.002.569-1.628 1.314.288.573 4.139 1.952 4.926 2.173 2.188.613 4.369.838 6.624 1.016-.056-3.691-2.21-7.551-5.008-9.879-.364-.303-2.186-1.663-2.566-1.478-.476.233-.146 1.328-.036 1.76.657 2.588 3.28 5 4.923 7.019l-2.624-1.351c-1.483-.497-3.049-.935-4.61-.574ZM31.843 12.807c-1.75-2.25-5.691-1.003-7.815.138-.457.246-.846.651-1.342.799 1.575-1.704 5.712-6.086 5.253-8.522-.144-.763-.953-.172-1.378.081-3.522 2.092-6.337 6.766-6.44 10.896 2.294-.174 4.5-.418 6.72-1.043.78-.218 4.884-1.64 5.003-2.349h-.001ZM51.438 44.94c1.161 2.546 5.584 2.402 6.502-.278.495-1.442.503-6.23-.118-7.604-.737-1.629-2.64-1.962-4.248-1.69-1.603.272-2.422 1.853-2.538 3.341-.114 1.445-.159 4.995.404 6.23h-.002Zm1.953-6.318c.09-.54.457-1.102 1.042-1.173.495-.06 1.124.234 1.314.712.284.715.274 4.204.15 5.063-.272 1.877-2.346 1.696-2.535.031-.106-.923-.12-3.75.029-4.633ZM88.522 35.37c-1.102.17-2.056 1.089-2.378 2.152-.293.97-.274 5.202-.143 6.333.408 3.52 5.642 3.924 6.803.844.42-1.118.391-5.038.257-6.338-.256-2.474-2.268-3.343-4.539-2.99Zm2.202 8.1c-.227 1.368-1.986 1.446-2.334.316-.17-.558-.178-4.621-.073-5.31a1.186 1.186 0 0 1 1.063-1.027c.873-.101 1.305.61 1.377 1.383.093.996.123 3.699-.034 4.638h.001ZM63.26 29.206c.218.04.68-.076.836.02.252.155 1.295 3.245 1.791 3.66h2.383l-2.086-4.226c2.4-1.417 1.927-6.398-1.031-6.817-1.228-.175-2.823.129-4.094 0v11.043h2.2v-3.681Zm0-5.276c1.226-.15 2.173.124 2.173 1.534 0 1.41-.948 1.683-2.174 1.534V23.93ZM59.438 30.827c.433-1.44.46-6.05-.15-7.389-.686-1.507-2.328-2.02-3.879-1.81-1.223.167-2.263.917-2.665 2.11-.369 1.09-.369 5.016-.225 6.25.45 3.87 5.947 4.07 6.919.838v.001Zm-4.6-5.845c.062-.465.308-1.035.81-1.15.648-.147 1.313.057 1.564.708.302.783.282 4.6.025 5.428-.386 1.24-1.942 1.217-2.315.063-.19-.59-.183-4.305-.083-5.048h-.001ZM65.272 36.323c-.303-.293-1.439-.86-1.832-.86h-3.85v11.044h2.2v-3.682c.218.041.68-.076.836.02.198.124 1.313 3.273 1.791 3.66H66.8l-2.063-4.113c1.876-1.032 1.938-4.715.535-6.07v.001Zm-3.481 4.232v-2.821c.133-.432 1.69-.128 1.981.464.733 1.491-.397 3.123-1.981 2.357ZM27.234 41.316c1.115-2.113.407-5.49-2.287-5.854-1.167-.157-2.646.117-3.85 0v11.044h2.2v-3.682c.274.009.571-.077.796.12.464.41 1.229 2.892 1.648 3.56h2.445l-1.936-4.009c.257-.475.71-.662.983-1.18Zm-1.854-1.858c-.11 1.275-.993 1.326-2.083 1.282v-3.19c1.464-.09 2.22.35 2.083 1.908ZM82.329 24.845c-.09-1.05-.674-2.176-1.632-2.656-.114-.058-.83-.346-.877-.346h-3.972v11.043h3.605c1.12 0 2.295-1.093 2.648-2.126.365-1.067.334-4.674.228-5.915Zm-2.426 5.181c-.393.917-1.006.611-1.857.651V23.93c.795-.029 1.53-.12 1.894.737.319.754.288 4.599-.038 5.36ZM57.453 48.962c-1.446.14-2.683 1.157-2.86 2.65-.166 1.41-.127 4.307-.018 5.76.265 3.564 5.137 4.034 6.46 1.444.083-.163.389-.972.389-1.082v-3.62H57.88v1.778c.179.368 1.25.087 1.344.183-.039.441.069.96-.026 1.386-.215.963-1.84 1.09-2.204.178-.197-.492-.157-4.421-.097-5.188.037-.487.06-1.054.609-1.227.987-.312 1.754.248 1.595 1.294h2.322c-.096-2.463-1.478-3.799-3.971-3.558l.001.002ZM74.99 53.44l-.183.183h-2.139v-4.417h-2.2v11.043h2.2v-4.54h2.139l.183.184v4.356h2.2V49.206h-2.2v4.233ZM89.41 52.213c-.121-1.215-1.308-3.007-2.627-3.007h-4.217v11.043h2.322v-3.558c3.076.256 4.835-1.323 4.52-4.478h.002Zm-2.315.988c-.123 1.415-1.037 1.339-2.206 1.281v-3.19c1.505-.166 2.347.292 2.206 1.909ZM42.822 42.794c-.346-2.06-2.572-2.47-3.762-3.586-1.726-1.62 1.253-2.743 1.347-.677h2.322c.225-4.46-7.01-4.448-6.463.17.31 2.609 3.923 3.21 4.238 4.58.386 1.686-2.418 1.75-2.174.036h-2.322c-.21 4.862 7.68 4.619 6.815-.523h-.001ZM66.803 52.15h2.322c-.05-1.553-.887-2.965-2.515-3.18-2.494-.328-4.317.926-3.951 3.598.33 2.413 4.062 3.065 4.265 4.561.167 1.224-1.548 1.548-2.083.61-.162-.284-.043-.592-.298-.804h-2.139c-.35 5.489 8.823 4.165 6.541-1.107-.798-1.846-2.593-1.903-3.668-3.065-1.444-1.56 1.33-2.513 1.528-.612h-.002ZM48.97 58.42l2.325.058.352 1.77h2.322l-2.637-11.05-2.438.127-2.624 10.923h2.321l.38-1.828Zm1.09-6.391c.182.024.2.53.226.691.178 1.158.323 2.325.506 3.48h-1.344c.242-1.381.533-2.765.611-4.171ZM72.67 46.506h2.321l-2.579-11.032-2.357-.02-2.64 11.052h2.32l.36-1.786h2.216l.358 1.786Zm-2.2-3.928c.347-1.267.448-2.564.612-3.864.028-.221-.048-.202.242-.183l.611 4.047H70.47Z"/><path d="M32.282 9.449c1.094.074 8.093-.04 8.56-.73.553-.815-1.672-1.689-2.24-1.812-2.08-.447-3.558.014-5.522.403-.126.025-.401.161-.372-.066 1.77-.919 6.237-3.911 6.457-5.985.03-.273-.14-.499-.413-.523-.23-.021-1.965.711-2.303.877-3.018 1.489-5.675 4.129-6.914 7.288.017.205 2.401.526 2.747.55v-.002ZM89.958 9.449c.36-.026 2.589-.355 2.63-.554-1.131-3.056-3.742-5.632-6.597-7.116-.423-.22-2.508-1.218-2.82-.99-.116.084-.12.244-.126.378-.049 1.236 2.09 3.118 3.008 3.863 1.063.864 2.26 1.526 3.357 2.334-2.17-.59-5.166-1.093-7.214.06-.37.207-1.263.79-.92 1.297.46.678 7.587.808 8.683.73v-.002ZM31.668 37.55h3.24v-2.086h-5.623v11.042h5.867V44.42h-3.484l-.182-.183v-2.27h3.177V39.88h-3.177v-2.147l.182-.185ZM33.684 60.25h2.2v-4.664h2.933v-1.963h-2.934v-2.331h3.177v-2.086h-5.376v11.043ZM47.981 46.506v-8.772l.183-.185h2.017v-2.085h-6.599v2.085h2.077v8.957h2.322ZM74.625 37.55h2.017l.184.184v8.772h2.2v-8.772l.183-.185h2.016v-2.085h-6.6v2.085ZM74.745 30.677h-3.3v-8.834h-2.199v11.043h5.499v-2.209ZM42.482 58.04v-8.834h-2.2v11.043h5.5v-2.025l-.184-.183h-3.116ZM80.977 49.206h-2.2v11.043h2.2V49.206ZM84.524 35.464h-2.2v11.043h2.2V35.464Z"/></g><defs><clipPath id="a"><path fill="#fff" d="M.066.734h122v107h-122z"/></clipPath></defs></svg>